%TF.GenerationSoftware,Altium Limited,Altium Designer,21.2.1 (34)*%
G04 Layer_Color=4408131*
%FSLAX25Y25*%
%MOIN*%
%TF.SameCoordinates,3D92BD4A-1653-4209-B07E-4AD3ED082CDC*%
%TF.FilePolarity,Negative*%
%TF.FileFunction,Soldermask,Top*%
%TF.Part,Single*%
G01*
G75*
%TA.AperFunction,SMDPad,CuDef*%
%ADD81R,0.12611X0.35052*%
%ADD82R,0.35052X0.12611*%
%ADD90R,0.03950X0.04737*%
%ADD91R,0.04737X0.03950*%
%ADD101R,0.06200X0.05300*%
%ADD102R,0.05300X0.06200*%
%TA.AperFunction,ComponentPad*%
%ADD109O,0.07099X0.14580*%
%TA.AperFunction,WasherPad*%
%ADD110C,0.19685*%
%TA.AperFunction,ComponentPad*%
%ADD111C,0.07887*%
%ADD112O,0.12611X0.16548*%
%ADD113O,0.10642X0.08674*%
%ADD114O,0.14580X0.07099*%
%ADD115O,0.16548X0.12611*%
%ADD116C,0.08674*%
%ADD117R,0.08674X0.08674*%
%TA.AperFunction,ViaPad*%
%ADD118C,0.02769*%
%TA.AperFunction,SMDPad,CuDef*%
%ADD128R,0.07493X0.02375*%
%ADD129R,0.02375X0.07493*%
%ADD130R,0.38202X0.42532*%
%ADD131R,0.16351X0.04737*%
%ADD132R,0.03950X0.04540*%
%ADD133R,0.04737X0.09265*%
%ADD134R,0.13792X0.09265*%
%ADD135R,0.06800X0.07800*%
%ADD136R,0.10249X0.05524*%
%ADD137R,0.05524X0.10249*%
%ADD138R,0.06706X0.14973*%
%ADD139R,0.07887X0.03950*%
%ADD140R,0.04737X0.12611*%
D81*
X81614Y130866D02*
D03*
Y190866D02*
D03*
Y250866D02*
D03*
Y320866D02*
D03*
Y380866D02*
D03*
Y440866D02*
D03*
D82*
X145866Y433386D02*
D03*
X205866D02*
D03*
X265866D02*
D03*
X325866D02*
D03*
D90*
X262500Y410000D02*
D03*
X269094D02*
D03*
X315000D02*
D03*
X321594D02*
D03*
X306594D02*
D03*
X300000D02*
D03*
X247510Y410001D02*
D03*
X254105D02*
D03*
X187510D02*
D03*
X194105D02*
D03*
X127510D02*
D03*
X134105D02*
D03*
X240010Y147501D02*
D03*
X246605D02*
D03*
X225010D02*
D03*
X231605D02*
D03*
X210010D02*
D03*
X216605D02*
D03*
X149094Y186000D02*
D03*
X142500D02*
D03*
X165010Y147501D02*
D03*
X171605D02*
D03*
X142500Y176000D02*
D03*
X149094D02*
D03*
X340000Y372500D02*
D03*
X346594D02*
D03*
X209094Y410000D02*
D03*
X202500D02*
D03*
X149094D02*
D03*
X142500D02*
D03*
X342500Y457500D02*
D03*
X335906D02*
D03*
X282500D02*
D03*
X275906D02*
D03*
X222500D02*
D03*
X215906D02*
D03*
X162500D02*
D03*
X155906D02*
D03*
X142594Y84000D02*
D03*
X136000D02*
D03*
X124094Y104000D02*
D03*
X117500D02*
D03*
D91*
X105000Y419063D02*
D03*
Y425657D02*
D03*
Y358406D02*
D03*
Y365000D02*
D03*
Y298406D02*
D03*
Y305000D02*
D03*
Y228406D02*
D03*
Y235000D02*
D03*
Y168406D02*
D03*
Y175000D02*
D03*
Y108406D02*
D03*
Y115000D02*
D03*
X319000Y188500D02*
D03*
Y195094D02*
D03*
X304961Y195039D02*
D03*
Y188444D02*
D03*
X238500Y130906D02*
D03*
Y137500D02*
D03*
X224500D02*
D03*
Y130906D02*
D03*
X210500D02*
D03*
Y137500D02*
D03*
X165000D02*
D03*
Y130906D02*
D03*
X350000Y457500D02*
D03*
Y450906D02*
D03*
X290000Y457500D02*
D03*
Y450906D02*
D03*
X230000Y457500D02*
D03*
Y450906D02*
D03*
X170000Y457500D02*
D03*
Y450906D02*
D03*
X104977Y442501D02*
D03*
Y435906D02*
D03*
Y382501D02*
D03*
Y375906D02*
D03*
Y322501D02*
D03*
Y315906D02*
D03*
X57500Y473157D02*
D03*
Y466563D02*
D03*
Y458157D02*
D03*
Y451563D02*
D03*
Y406563D02*
D03*
Y413157D02*
D03*
Y398157D02*
D03*
Y391563D02*
D03*
Y346563D02*
D03*
Y353157D02*
D03*
Y338157D02*
D03*
Y331563D02*
D03*
X104977Y252501D02*
D03*
Y245906D02*
D03*
X105000Y192500D02*
D03*
Y185906D02*
D03*
Y132500D02*
D03*
Y125906D02*
D03*
X57500Y283157D02*
D03*
Y276563D02*
D03*
Y268157D02*
D03*
Y261563D02*
D03*
Y216563D02*
D03*
Y223157D02*
D03*
Y208157D02*
D03*
Y201563D02*
D03*
Y156563D02*
D03*
Y163157D02*
D03*
Y141563D02*
D03*
Y148157D02*
D03*
X282500Y137500D02*
D03*
Y130906D02*
D03*
Y98406D02*
D03*
Y105000D02*
D03*
D101*
X292500Y137500D02*
D03*
Y129000D02*
D03*
Y96500D02*
D03*
Y105000D02*
D03*
D102*
X280000Y117500D02*
D03*
X288500D02*
D03*
X144500Y94000D02*
D03*
X136000D02*
D03*
X126000D02*
D03*
X117500D02*
D03*
D109*
X245000Y45000D02*
D03*
X255000D02*
D03*
X265000D02*
D03*
X235000D02*
D03*
X60000Y20000D02*
D03*
X70000D02*
D03*
X80000D02*
D03*
X50000D02*
D03*
X100000Y20000D02*
D03*
X130000D02*
D03*
X120000D02*
D03*
X110000D02*
D03*
X235000Y70000D02*
D03*
X265000D02*
D03*
X255000D02*
D03*
X245000D02*
D03*
X285000D02*
D03*
X315000D02*
D03*
X305000D02*
D03*
X295000D02*
D03*
Y45000D02*
D03*
X305000D02*
D03*
X315000D02*
D03*
X285000D02*
D03*
X185157D02*
D03*
X215157D02*
D03*
X205157D02*
D03*
X195157D02*
D03*
X155000Y20000D02*
D03*
X165000Y20000D02*
D03*
X195000Y20000D02*
D03*
X205000D02*
D03*
X215000D02*
D03*
X185000D02*
D03*
Y70000D02*
D03*
X215000D02*
D03*
X205000D02*
D03*
X195000D02*
D03*
D110*
X334646Y19685D02*
D03*
Y393701D02*
D03*
X19685Y492126D02*
D03*
Y19685D02*
D03*
D111*
X255000Y22500D02*
D03*
X265000D02*
D03*
X342500Y245000D02*
D03*
Y265000D02*
D03*
Y275000D02*
D03*
Y285000D02*
D03*
Y295000D02*
D03*
Y305000D02*
D03*
Y255000D02*
D03*
Y235000D02*
D03*
Y140000D02*
D03*
Y150000D02*
D03*
Y160000D02*
D03*
Y105000D02*
D03*
Y115000D02*
D03*
Y125000D02*
D03*
Y320000D02*
D03*
Y360000D02*
D03*
Y350000D02*
D03*
Y340000D02*
D03*
Y330000D02*
D03*
X310000Y12500D02*
D03*
X300000D02*
D03*
X290000D02*
D03*
X280000D02*
D03*
X80000Y490000D02*
D03*
X90000D02*
D03*
X50000D02*
D03*
X60000D02*
D03*
X342500Y190000D02*
D03*
Y200000D02*
D03*
Y210000D02*
D03*
Y220000D02*
D03*
Y180000D02*
D03*
X235000Y12500D02*
D03*
X245000D02*
D03*
X255000D02*
D03*
X265000D02*
D03*
X342500Y45000D02*
D03*
Y85000D02*
D03*
Y75000D02*
D03*
Y65000D02*
D03*
Y55000D02*
D03*
D112*
X120000Y485000D02*
D03*
X140000D02*
D03*
X160000D02*
D03*
X300000D02*
D03*
X320000D02*
D03*
X340000D02*
D03*
X240000D02*
D03*
X260000D02*
D03*
X280000D02*
D03*
X180000D02*
D03*
X200000D02*
D03*
X220000D02*
D03*
D113*
X185787Y181000D02*
D03*
Y165252D02*
D03*
X207835D02*
D03*
Y181000D02*
D03*
X247835D02*
D03*
Y165252D02*
D03*
X225787D02*
D03*
Y181000D02*
D03*
X265787D02*
D03*
Y165252D02*
D03*
X287835D02*
D03*
Y181000D02*
D03*
D114*
X310000Y139527D02*
D03*
Y169527D02*
D03*
Y159527D02*
D03*
Y149527D02*
D03*
Y99527D02*
D03*
Y109527D02*
D03*
Y119527D02*
D03*
Y89527D02*
D03*
D115*
X30000Y70000D02*
D03*
Y50000D02*
D03*
Y460000D02*
D03*
Y440000D02*
D03*
Y420000D02*
D03*
Y400000D02*
D03*
Y380000D02*
D03*
Y360000D02*
D03*
Y340000D02*
D03*
Y320000D02*
D03*
Y300000D02*
D03*
Y230000D02*
D03*
Y250000D02*
D03*
Y270000D02*
D03*
Y210000D02*
D03*
Y190000D02*
D03*
Y170000D02*
D03*
Y150000D02*
D03*
Y130000D02*
D03*
Y110000D02*
D03*
D116*
X127500Y150000D02*
D03*
D117*
X147500D02*
D03*
D118*
X81614Y120039D02*
D03*
Y124370D02*
D03*
Y128701D02*
D03*
Y133031D02*
D03*
Y115709D02*
D03*
X77284D02*
D03*
Y120039D02*
D03*
Y128701D02*
D03*
Y133031D02*
D03*
Y137362D02*
D03*
Y141693D02*
D03*
Y124370D02*
D03*
X85945Y115709D02*
D03*
Y120039D02*
D03*
Y124370D02*
D03*
Y128701D02*
D03*
Y133031D02*
D03*
Y137362D02*
D03*
X81614D02*
D03*
X85945Y141693D02*
D03*
X81614D02*
D03*
X85945Y146024D02*
D03*
X81614D02*
D03*
X77284D02*
D03*
Y206024D02*
D03*
X81614D02*
D03*
X85945D02*
D03*
X81614Y201693D02*
D03*
X85945D02*
D03*
X81614Y197362D02*
D03*
X85945D02*
D03*
Y193032D02*
D03*
Y188701D02*
D03*
Y184370D02*
D03*
Y180039D02*
D03*
Y175709D02*
D03*
X77284Y184370D02*
D03*
Y201693D02*
D03*
Y197362D02*
D03*
Y193032D02*
D03*
Y188701D02*
D03*
Y180039D02*
D03*
Y175709D02*
D03*
X81614D02*
D03*
Y193032D02*
D03*
Y188701D02*
D03*
Y184370D02*
D03*
Y180039D02*
D03*
Y240039D02*
D03*
Y244370D02*
D03*
Y248701D02*
D03*
Y253031D02*
D03*
Y235709D02*
D03*
X77284D02*
D03*
Y240039D02*
D03*
Y248701D02*
D03*
Y253031D02*
D03*
Y257362D02*
D03*
Y261693D02*
D03*
Y244370D02*
D03*
X85945Y235709D02*
D03*
Y240039D02*
D03*
Y244370D02*
D03*
Y248701D02*
D03*
Y253031D02*
D03*
Y257362D02*
D03*
X81614D02*
D03*
X85945Y261693D02*
D03*
X81614D02*
D03*
X85945Y266024D02*
D03*
X81614D02*
D03*
X77284D02*
D03*
Y336024D02*
D03*
X81614D02*
D03*
X85945D02*
D03*
X81614Y331693D02*
D03*
X85945D02*
D03*
X81614Y327362D02*
D03*
X85945D02*
D03*
Y323031D02*
D03*
Y318701D02*
D03*
Y314370D02*
D03*
Y310039D02*
D03*
Y305709D02*
D03*
X77284Y314370D02*
D03*
Y331693D02*
D03*
Y327362D02*
D03*
Y323031D02*
D03*
Y318701D02*
D03*
Y310039D02*
D03*
Y305709D02*
D03*
X81614D02*
D03*
Y323031D02*
D03*
Y318701D02*
D03*
Y314370D02*
D03*
Y310039D02*
D03*
Y370039D02*
D03*
Y374370D02*
D03*
Y378701D02*
D03*
Y383032D02*
D03*
Y365709D02*
D03*
X77284D02*
D03*
Y370039D02*
D03*
Y378701D02*
D03*
Y383032D02*
D03*
Y387362D02*
D03*
Y391693D02*
D03*
Y374370D02*
D03*
X85945Y365709D02*
D03*
Y370039D02*
D03*
Y374370D02*
D03*
Y378701D02*
D03*
Y383032D02*
D03*
Y387362D02*
D03*
X81614D02*
D03*
X85945Y391693D02*
D03*
X81614D02*
D03*
X85945Y396024D02*
D03*
X81614D02*
D03*
X77284D02*
D03*
Y456024D02*
D03*
X81614D02*
D03*
X85945D02*
D03*
X81614Y451693D02*
D03*
X85945D02*
D03*
X81614Y447362D02*
D03*
X85945D02*
D03*
Y443032D02*
D03*
Y438701D02*
D03*
Y434370D02*
D03*
Y430039D02*
D03*
Y425709D02*
D03*
X77284Y434370D02*
D03*
Y451693D02*
D03*
Y447362D02*
D03*
Y443032D02*
D03*
Y438701D02*
D03*
Y430039D02*
D03*
Y425709D02*
D03*
X81614D02*
D03*
Y443032D02*
D03*
Y438701D02*
D03*
Y434370D02*
D03*
Y430039D02*
D03*
X135039Y433386D02*
D03*
X139370D02*
D03*
X143701D02*
D03*
X148031D02*
D03*
X130709D02*
D03*
Y437716D02*
D03*
X135039D02*
D03*
X143701D02*
D03*
X148031D02*
D03*
X152362D02*
D03*
X156693D02*
D03*
X139370D02*
D03*
X130709Y429055D02*
D03*
X135039D02*
D03*
X139370D02*
D03*
X143701D02*
D03*
X148031D02*
D03*
X152362D02*
D03*
Y433386D02*
D03*
X156693Y429055D02*
D03*
Y433386D02*
D03*
X161024Y429055D02*
D03*
Y433386D02*
D03*
Y437716D02*
D03*
X221024D02*
D03*
Y433386D02*
D03*
Y429055D02*
D03*
X216693Y433386D02*
D03*
Y429055D02*
D03*
X212362Y433386D02*
D03*
Y429055D02*
D03*
X208032D02*
D03*
X203701D02*
D03*
X199370D02*
D03*
X195039D02*
D03*
X190709D02*
D03*
X199370Y437716D02*
D03*
X216693D02*
D03*
X212362D02*
D03*
X208032D02*
D03*
X203701D02*
D03*
X195039D02*
D03*
X190709D02*
D03*
Y433386D02*
D03*
X208032D02*
D03*
X203701D02*
D03*
X199370D02*
D03*
X195039D02*
D03*
X255039D02*
D03*
X259370D02*
D03*
X263701D02*
D03*
X268032D02*
D03*
X250709D02*
D03*
Y437716D02*
D03*
X255039D02*
D03*
X263701D02*
D03*
X268032D02*
D03*
X272362D02*
D03*
X276693D02*
D03*
X259370D02*
D03*
X250709Y429055D02*
D03*
X255039D02*
D03*
X259370D02*
D03*
X263701D02*
D03*
X268032D02*
D03*
X272362D02*
D03*
Y433386D02*
D03*
X276693Y429055D02*
D03*
Y433386D02*
D03*
X281024Y429055D02*
D03*
Y433386D02*
D03*
Y437716D02*
D03*
X341024D02*
D03*
Y433386D02*
D03*
Y429055D02*
D03*
X336693Y433386D02*
D03*
Y429055D02*
D03*
X332362Y433386D02*
D03*
Y429055D02*
D03*
X328031D02*
D03*
X323701D02*
D03*
X319370D02*
D03*
X315039D02*
D03*
X310709D02*
D03*
X319370Y437716D02*
D03*
X336693D02*
D03*
X332362D02*
D03*
X328031D02*
D03*
X323701D02*
D03*
X315039D02*
D03*
X310709D02*
D03*
Y433386D02*
D03*
X328031D02*
D03*
X323701D02*
D03*
X319370D02*
D03*
X315039D02*
D03*
D128*
X93228Y114232D02*
D03*
Y116791D02*
D03*
Y119350D02*
D03*
Y121909D02*
D03*
Y124469D02*
D03*
Y127028D02*
D03*
Y129587D02*
D03*
Y132146D02*
D03*
Y134705D02*
D03*
Y137264D02*
D03*
Y139823D02*
D03*
Y142382D02*
D03*
Y144941D02*
D03*
Y147500D02*
D03*
X70000Y114232D02*
D03*
Y116791D02*
D03*
Y119350D02*
D03*
Y121909D02*
D03*
Y124469D02*
D03*
Y127028D02*
D03*
Y129587D02*
D03*
Y132146D02*
D03*
Y134705D02*
D03*
Y137264D02*
D03*
Y139823D02*
D03*
Y142382D02*
D03*
Y144941D02*
D03*
Y147500D02*
D03*
Y207500D02*
D03*
Y204941D02*
D03*
Y202382D02*
D03*
Y199823D02*
D03*
Y197264D02*
D03*
Y194705D02*
D03*
Y192146D02*
D03*
Y189587D02*
D03*
Y187028D02*
D03*
Y184468D02*
D03*
Y181909D02*
D03*
Y179350D02*
D03*
Y176791D02*
D03*
Y174232D02*
D03*
X93228Y207500D02*
D03*
Y204941D02*
D03*
Y202382D02*
D03*
Y199823D02*
D03*
Y197264D02*
D03*
Y194705D02*
D03*
Y192146D02*
D03*
Y189587D02*
D03*
Y187028D02*
D03*
Y184468D02*
D03*
Y181909D02*
D03*
Y179350D02*
D03*
Y176791D02*
D03*
Y174232D02*
D03*
Y234232D02*
D03*
Y236791D02*
D03*
Y239350D02*
D03*
Y241910D02*
D03*
Y244468D02*
D03*
Y247028D02*
D03*
Y249587D02*
D03*
Y252146D02*
D03*
Y254705D02*
D03*
Y257264D02*
D03*
Y259823D02*
D03*
Y262382D02*
D03*
Y264941D02*
D03*
Y267500D02*
D03*
X70000Y234232D02*
D03*
Y236791D02*
D03*
Y239350D02*
D03*
Y241910D02*
D03*
Y244468D02*
D03*
Y247028D02*
D03*
Y249587D02*
D03*
Y252146D02*
D03*
Y254705D02*
D03*
Y257264D02*
D03*
Y259823D02*
D03*
Y262382D02*
D03*
Y264941D02*
D03*
Y267500D02*
D03*
Y337500D02*
D03*
Y334941D02*
D03*
Y332382D02*
D03*
Y329823D02*
D03*
Y327264D02*
D03*
Y324705D02*
D03*
Y322146D02*
D03*
Y319587D02*
D03*
Y317028D02*
D03*
Y314469D02*
D03*
Y311910D02*
D03*
Y309350D02*
D03*
Y306791D02*
D03*
Y304232D02*
D03*
X93228Y337500D02*
D03*
Y334941D02*
D03*
Y332382D02*
D03*
Y329823D02*
D03*
Y327264D02*
D03*
Y324705D02*
D03*
Y322146D02*
D03*
Y319587D02*
D03*
Y317028D02*
D03*
Y314469D02*
D03*
Y311910D02*
D03*
Y309350D02*
D03*
Y306791D02*
D03*
Y304232D02*
D03*
Y364232D02*
D03*
Y366791D02*
D03*
Y369350D02*
D03*
Y371909D02*
D03*
Y374468D02*
D03*
Y377028D02*
D03*
Y379587D02*
D03*
Y382146D02*
D03*
Y384705D02*
D03*
Y387264D02*
D03*
Y389823D02*
D03*
Y392382D02*
D03*
Y394941D02*
D03*
Y397500D02*
D03*
X70000Y364232D02*
D03*
Y366791D02*
D03*
Y369350D02*
D03*
Y371909D02*
D03*
Y374468D02*
D03*
Y377028D02*
D03*
Y379587D02*
D03*
Y382146D02*
D03*
Y384705D02*
D03*
Y387264D02*
D03*
Y389823D02*
D03*
Y392382D02*
D03*
Y394941D02*
D03*
Y397500D02*
D03*
Y457500D02*
D03*
Y454941D02*
D03*
Y452382D02*
D03*
Y449823D02*
D03*
Y447264D02*
D03*
Y444705D02*
D03*
Y442146D02*
D03*
Y439587D02*
D03*
Y437028D02*
D03*
Y434469D02*
D03*
Y431910D02*
D03*
Y429350D02*
D03*
Y426791D02*
D03*
Y424232D02*
D03*
X93228Y457500D02*
D03*
Y454941D02*
D03*
Y452382D02*
D03*
Y449823D02*
D03*
Y447264D02*
D03*
Y444705D02*
D03*
Y442146D02*
D03*
Y439587D02*
D03*
Y437028D02*
D03*
Y434469D02*
D03*
Y431910D02*
D03*
Y429350D02*
D03*
Y426791D02*
D03*
Y424232D02*
D03*
D129*
X129232Y421772D02*
D03*
X131791D02*
D03*
X134350D02*
D03*
X136909D02*
D03*
X139469D02*
D03*
X142028D02*
D03*
X144587D02*
D03*
X147146D02*
D03*
X149705D02*
D03*
X152264D02*
D03*
X154823D02*
D03*
X157382D02*
D03*
X159941D02*
D03*
X162500D02*
D03*
X129232Y445000D02*
D03*
X131791D02*
D03*
X134350D02*
D03*
X136909D02*
D03*
X139469D02*
D03*
X142028D02*
D03*
X144587D02*
D03*
X147146D02*
D03*
X149705D02*
D03*
X152264D02*
D03*
X154823D02*
D03*
X157382D02*
D03*
X159941D02*
D03*
X162500D02*
D03*
X222500D02*
D03*
X219941D02*
D03*
X217382D02*
D03*
X214823D02*
D03*
X212264D02*
D03*
X209705D02*
D03*
X207146D02*
D03*
X204587D02*
D03*
X202028D02*
D03*
X199469D02*
D03*
X196909D02*
D03*
X194350D02*
D03*
X191791D02*
D03*
X189232D02*
D03*
X222500Y421772D02*
D03*
X219941D02*
D03*
X217382D02*
D03*
X214823D02*
D03*
X212264D02*
D03*
X209705D02*
D03*
X207146D02*
D03*
X204587D02*
D03*
X202028D02*
D03*
X199469D02*
D03*
X196909D02*
D03*
X194350D02*
D03*
X191791D02*
D03*
X189232D02*
D03*
X249232D02*
D03*
X251791D02*
D03*
X254350D02*
D03*
X256909D02*
D03*
X259469D02*
D03*
X262028D02*
D03*
X264587D02*
D03*
X267146D02*
D03*
X269705D02*
D03*
X272264D02*
D03*
X274823D02*
D03*
X277382D02*
D03*
X279941D02*
D03*
X282500D02*
D03*
X249232Y445000D02*
D03*
X251791D02*
D03*
X254350D02*
D03*
X256909D02*
D03*
X259469D02*
D03*
X262028D02*
D03*
X264587D02*
D03*
X267146D02*
D03*
X269705D02*
D03*
X272264D02*
D03*
X274823D02*
D03*
X277382D02*
D03*
X279941D02*
D03*
X282500D02*
D03*
X342500D02*
D03*
X339941D02*
D03*
X337382D02*
D03*
X334823D02*
D03*
X332264D02*
D03*
X329705D02*
D03*
X327146D02*
D03*
X324587D02*
D03*
X322028D02*
D03*
X319468D02*
D03*
X316910D02*
D03*
X314350D02*
D03*
X311791D02*
D03*
X309232D02*
D03*
X342500Y421772D02*
D03*
X339941D02*
D03*
X337382D02*
D03*
X334823D02*
D03*
X332264D02*
D03*
X329705D02*
D03*
X327146D02*
D03*
X324587D02*
D03*
X322028D02*
D03*
X319468D02*
D03*
X316910D02*
D03*
X314350D02*
D03*
X311791D02*
D03*
X309232D02*
D03*
D130*
X77500Y60000D02*
D03*
D131*
X120000Y70000D02*
D03*
Y50000D02*
D03*
D132*
X131437Y185449D02*
D03*
X123563D02*
D03*
X127500Y176000D02*
D03*
D133*
X253445Y89469D02*
D03*
X262500D02*
D03*
X271555D02*
D03*
X188445D02*
D03*
X197500D02*
D03*
X206555D02*
D03*
D134*
X262500Y112500D02*
D03*
X197500D02*
D03*
D135*
X124000Y115500D02*
D03*
X137500D02*
D03*
D136*
X297500Y440000D02*
D03*
Y425827D02*
D03*
X237500Y440000D02*
D03*
Y425827D02*
D03*
X177500Y440000D02*
D03*
Y425827D02*
D03*
X117500Y440000D02*
D03*
Y425827D02*
D03*
D137*
X75000Y412500D02*
D03*
X89173D02*
D03*
X75000Y352500D02*
D03*
X89173D02*
D03*
X75000Y292500D02*
D03*
X89173D02*
D03*
X75000Y102500D02*
D03*
X89173D02*
D03*
X75000Y162500D02*
D03*
X89173D02*
D03*
X75000Y222500D02*
D03*
X89173D02*
D03*
D138*
X152500Y43878D02*
D03*
Y67500D02*
D03*
D139*
X270000Y132500D02*
D03*
X252677D02*
D03*
X182677D02*
D03*
X200000D02*
D03*
D140*
X230000Y114500D02*
D03*
Y92500D02*
D03*
X165000Y114500D02*
D03*
Y92500D02*
D03*
%TF.MD5,6a174f497223e8319cc19322c6e98e8a*%
M02*
