%TF.GenerationSoftware,Altium Limited,Altium Designer,21.2.1 (34)*%
G04 Layer_Color=128*
%FSLAX25Y25*%
%MOIN*%
%TF.SameCoordinates,3D92BD4A-1653-4209-B07E-4AD3ED082CDC*%
%TF.FilePolarity,Positive*%
%TF.FileFunction,Drillmap*%
%TF.Part,Single*%
G01*
G75*
%TA.AperFunction,NonConductor*%
%ADD155C,0.00500*%
D155*
X243032Y45000D02*
X246969D01*
X245000Y43031D02*
Y46968D01*
X253031Y45000D02*
X256968D01*
X255000Y43031D02*
Y46968D01*
X263032Y45000D02*
X266968D01*
X265000Y43031D02*
Y46968D01*
X233032Y45000D02*
X236968D01*
X235000Y43031D02*
Y46968D01*
X328740Y19685D02*
X340551D01*
X334646Y13780D02*
Y25591D01*
X328740Y393701D02*
X340551D01*
X334646Y387795D02*
Y399606D01*
X13780Y492126D02*
X25591D01*
X19685Y486221D02*
Y498032D01*
X13780Y19685D02*
X25591D01*
X19685Y13780D02*
Y25591D01*
X253031Y22500D02*
X256968D01*
X255000Y20531D02*
Y24468D01*
X263032Y22500D02*
X266968D01*
X265000Y20531D02*
Y24468D01*
X117047Y485000D02*
X122953D01*
X120000Y482047D02*
Y487953D01*
X137047Y485000D02*
X142953D01*
X140000Y482047D02*
Y487953D01*
X157047Y485000D02*
X162953D01*
X160000Y482047D02*
Y487953D01*
X182638Y181000D02*
X187362D01*
X185000Y178638D02*
Y183362D01*
X182638Y165252D02*
X187362D01*
X185000Y162890D02*
Y167614D01*
X206260Y165252D02*
X210984D01*
X208622Y162890D02*
Y167614D01*
X206260Y181000D02*
X210984D01*
X208622Y178638D02*
Y183362D01*
X246260Y181000D02*
X250984D01*
X248622Y178638D02*
Y183362D01*
X246260Y165252D02*
X250984D01*
X248622Y162890D02*
Y167614D01*
X222638Y165252D02*
X227362D01*
X225000Y162890D02*
Y167614D01*
X222638Y181000D02*
X227362D01*
X225000Y178638D02*
Y183362D01*
X262638Y181000D02*
X267362D01*
X265000Y178638D02*
Y183362D01*
X262638Y165252D02*
X267362D01*
X265000Y162890D02*
Y167614D01*
X286260Y165252D02*
X290984D01*
X288622Y162890D02*
Y167614D01*
X286260Y181000D02*
X290984D01*
X288622Y178638D02*
Y183362D01*
X308032Y139527D02*
X311969D01*
X310000Y137559D02*
Y141496D01*
X308032Y169527D02*
X311969D01*
X310000Y167559D02*
Y171496D01*
X308032Y159527D02*
X311969D01*
X310000Y157559D02*
Y161496D01*
X308032Y149527D02*
X311969D01*
X310000Y147559D02*
Y151496D01*
X27047Y70000D02*
X32953D01*
X30000Y67047D02*
Y72953D01*
X27047Y50000D02*
X32953D01*
X30000Y47047D02*
Y52953D01*
X340531Y245000D02*
X344468D01*
X342500Y243032D02*
Y246969D01*
X340531Y265000D02*
X344468D01*
X342500Y263032D02*
Y266968D01*
X340531Y275000D02*
X344468D01*
X342500Y273031D02*
Y276969D01*
X340531Y285000D02*
X344468D01*
X342500Y283032D02*
Y286968D01*
X340531Y295000D02*
X344468D01*
X342500Y293032D02*
Y296969D01*
X340531Y305000D02*
X344468D01*
X342500Y303031D02*
Y306968D01*
X340531Y255000D02*
X344468D01*
X342500Y253031D02*
Y256968D01*
X340531Y235000D02*
X344468D01*
X342500Y233032D02*
Y236968D01*
X58031Y20000D02*
X61968D01*
X60000Y18032D02*
Y21969D01*
X68032Y20000D02*
X71969D01*
X70000Y18032D02*
Y21969D01*
X78031Y20000D02*
X81968D01*
X80000Y18032D02*
Y21969D01*
X48031Y20000D02*
X51968D01*
X50000Y18032D02*
Y21969D01*
X340531Y140000D02*
X344468D01*
X342500Y138031D02*
Y141969D01*
X340531Y150000D02*
X344468D01*
X342500Y148031D02*
Y151969D01*
X340531Y160000D02*
X344468D01*
X342500Y158031D02*
Y161969D01*
X340531Y105000D02*
X344468D01*
X342500Y103032D02*
Y106968D01*
X340531Y115000D02*
X344468D01*
X342500Y113031D02*
Y116969D01*
X340531Y125000D02*
X344468D01*
X342500Y123031D02*
Y126969D01*
X297047Y485000D02*
X302953D01*
X300000Y482047D02*
Y487953D01*
X317047Y485000D02*
X322953D01*
X320000Y482047D02*
Y487953D01*
X337047Y485000D02*
X342953D01*
X340000Y482047D02*
Y487953D01*
X237047Y485000D02*
X242953D01*
X240000Y482047D02*
Y487953D01*
X257047Y485000D02*
X262953D01*
X260000Y482047D02*
Y487953D01*
X277047Y485000D02*
X282953D01*
X280000Y482047D02*
Y487953D01*
X177047Y485000D02*
X182953D01*
X180000Y482047D02*
Y487953D01*
X197047Y485000D02*
X202953D01*
X200000Y482047D02*
Y487953D01*
X217047Y485000D02*
X222953D01*
X220000Y482047D02*
Y487953D01*
X340531Y320000D02*
X344468D01*
X342500Y318032D02*
Y321969D01*
X340531Y360000D02*
X344468D01*
X342500Y358032D02*
Y361968D01*
X340531Y350000D02*
X344468D01*
X342500Y348031D02*
Y351969D01*
X340531Y340000D02*
X344468D01*
X342500Y338032D02*
Y341968D01*
X340531Y330000D02*
X344468D01*
X342500Y328031D02*
Y331968D01*
X27047Y460000D02*
X32953D01*
X30000Y457047D02*
Y462953D01*
X27047Y440000D02*
X32953D01*
X30000Y437047D02*
Y442953D01*
X27047Y420000D02*
X32953D01*
X30000Y417047D02*
Y422953D01*
X27047Y400000D02*
X32953D01*
X30000Y397047D02*
Y402953D01*
X27047Y380000D02*
X32953D01*
X30000Y377047D02*
Y382953D01*
X27047Y360000D02*
X32953D01*
X30000Y357047D02*
Y362953D01*
X27047Y340000D02*
X32953D01*
X30000Y337047D02*
Y342953D01*
X27047Y320000D02*
X32953D01*
X30000Y317047D02*
Y322953D01*
X27047Y300000D02*
X32953D01*
X30000Y297047D02*
Y302953D01*
X27047Y230000D02*
X32953D01*
X30000Y227047D02*
Y232953D01*
X27047Y250000D02*
X32953D01*
X30000Y247047D02*
Y252953D01*
X27047Y270000D02*
X32953D01*
X30000Y267047D02*
Y272953D01*
X27047Y210000D02*
X32953D01*
X30000Y207047D02*
Y212953D01*
X27047Y190000D02*
X32953D01*
X30000Y187047D02*
Y192953D01*
X27047Y170000D02*
X32953D01*
X30000Y167047D02*
Y172953D01*
X27047Y150000D02*
X32953D01*
X30000Y147047D02*
Y152953D01*
X27047Y130000D02*
X32953D01*
X30000Y127047D02*
Y132953D01*
X27047Y110000D02*
X32953D01*
X30000Y107047D02*
Y112953D01*
X98032Y20000D02*
X101969D01*
X100000Y18031D02*
Y21968D01*
X128032Y20000D02*
X131968D01*
X130000Y18031D02*
Y21968D01*
X118032Y20000D02*
X121968D01*
X120000Y18031D02*
Y21968D01*
X108031Y20000D02*
X111969D01*
X110000Y18031D02*
Y21968D01*
X308032Y12500D02*
X311968D01*
X310000Y10531D02*
Y14469D01*
X298031Y12500D02*
X301969D01*
X300000Y10531D02*
Y14469D01*
X288032Y12500D02*
X291968D01*
X290000Y10531D02*
Y14469D01*
X278031Y12500D02*
X281968D01*
X280000Y10531D02*
Y14469D01*
X78031Y490000D02*
X81968D01*
X80000Y488031D02*
Y491968D01*
X88032Y490000D02*
X91969D01*
X90000Y488031D02*
Y491968D01*
X308032Y99527D02*
X311969D01*
X310000Y97559D02*
Y101496D01*
X308032Y109527D02*
X311969D01*
X310000Y107559D02*
Y111496D01*
X308032Y119527D02*
X311969D01*
X310000Y117559D02*
Y121496D01*
X308032Y89527D02*
X311969D01*
X310000Y87559D02*
Y91496D01*
X48031Y490000D02*
X51968D01*
X50000Y488031D02*
Y491968D01*
X58031Y490000D02*
X61968D01*
X60000Y488031D02*
Y491968D01*
X340531Y190000D02*
X344468D01*
X342500Y188031D02*
Y191969D01*
X340531Y200000D02*
X344468D01*
X342500Y198031D02*
Y201969D01*
X340531Y210000D02*
X344468D01*
X342500Y208032D02*
Y211968D01*
X340531Y220000D02*
X344468D01*
X342500Y218032D02*
Y221969D01*
X340531Y180000D02*
X344468D01*
X342500Y178032D02*
Y181968D01*
X233032Y70000D02*
X236968D01*
X235000Y68032D02*
Y71969D01*
X263032Y70000D02*
X266968D01*
X265000Y68032D02*
Y71969D01*
X253031Y70000D02*
X256968D01*
X255000Y68032D02*
Y71969D01*
X243032Y70000D02*
X246969D01*
X245000Y68032D02*
Y71969D01*
X283032Y70000D02*
X286968D01*
X285000Y68032D02*
Y71969D01*
X313032Y70000D02*
X316968D01*
X315000Y68032D02*
Y71969D01*
X303031Y70000D02*
X306968D01*
X305000Y68032D02*
Y71969D01*
X293032Y70000D02*
X296969D01*
X295000Y68032D02*
Y71969D01*
X293032Y45000D02*
X296969D01*
X295000Y43031D02*
Y46968D01*
X303031Y45000D02*
X306968D01*
X305000Y43031D02*
Y46968D01*
X313032Y45000D02*
X316968D01*
X315000Y43031D02*
Y46968D01*
X283032Y45000D02*
X286968D01*
X285000Y43031D02*
Y46968D01*
X233032Y12500D02*
X236968D01*
X235000Y10531D02*
Y14469D01*
X243032Y12500D02*
X246969D01*
X245000Y10531D02*
Y14469D01*
X253031Y12500D02*
X256968D01*
X255000Y10531D02*
Y14469D01*
X263032Y12500D02*
X266968D01*
X265000Y10531D02*
Y14469D01*
X340531Y45000D02*
X344468D01*
X342500Y43031D02*
Y46968D01*
X340531Y85000D02*
X344468D01*
X342500Y83031D02*
Y86968D01*
X340531Y75000D02*
X344468D01*
X342500Y73032D02*
Y76968D01*
X340531Y65000D02*
X344468D01*
X342500Y63032D02*
Y66969D01*
X340531Y55000D02*
X344468D01*
X342500Y53031D02*
Y56968D01*
X183189Y45000D02*
X187126D01*
X185157Y43031D02*
Y46968D01*
X213189Y45000D02*
X217126D01*
X215157Y43031D02*
Y46968D01*
X203189Y45000D02*
X207126D01*
X205157Y43031D02*
Y46968D01*
X193189Y45000D02*
X197126D01*
X195157Y43031D02*
Y46968D01*
X153032Y20000D02*
X156968D01*
X155000Y18032D02*
Y21969D01*
X163031Y20000D02*
X166968D01*
X165000Y18031D02*
Y21968D01*
X193032Y20000D02*
X196968D01*
X195000Y18032D02*
Y21969D01*
X203031Y20000D02*
X206968D01*
X205000Y18032D02*
Y21969D01*
X213032Y20000D02*
X216968D01*
X215000Y18032D02*
Y21969D01*
X183031Y20000D02*
X186969D01*
X185000Y18032D02*
Y21969D01*
X183031Y70000D02*
X186969D01*
X185000Y68032D02*
Y71969D01*
X213032Y70000D02*
X216968D01*
X215000Y68032D02*
Y71969D01*
X203031Y70000D02*
X206968D01*
X205000Y68032D02*
Y71969D01*
X193032Y70000D02*
X196968D01*
X195000Y68032D02*
Y71969D01*
X125728Y150000D02*
X129272D01*
X127500Y148228D02*
Y151772D01*
X145728Y150000D02*
X149272D01*
X147500Y148228D02*
Y151772D01*
X81024Y120039D02*
X82205D01*
X81614Y119449D02*
Y120630D01*
X81024Y124370D02*
X82205D01*
X81614Y123779D02*
Y124961D01*
X81024Y128701D02*
X82205D01*
X81614Y128110D02*
Y129291D01*
X81024Y133031D02*
X82205D01*
X81614Y132441D02*
Y133622D01*
X81024Y115709D02*
X82205D01*
X81614Y115118D02*
Y116299D01*
X76693Y115709D02*
X77874D01*
X77284Y115118D02*
Y116299D01*
X76693Y120039D02*
X77874D01*
X77284Y119449D02*
Y120630D01*
X76693Y128701D02*
X77874D01*
X77284Y128110D02*
Y129291D01*
X76693Y133031D02*
X77874D01*
X77284Y132441D02*
Y133622D01*
X76693Y137362D02*
X77874D01*
X77284Y136772D02*
Y137953D01*
X76693Y141693D02*
X77874D01*
X77284Y141102D02*
Y142283D01*
X76693Y124370D02*
X77874D01*
X77284Y123779D02*
Y124961D01*
X85354Y115709D02*
X86535D01*
X85945Y115118D02*
Y116299D01*
X85354Y120039D02*
X86535D01*
X85945Y119449D02*
Y120630D01*
X85354Y124370D02*
X86535D01*
X85945Y123779D02*
Y124961D01*
X85354Y128701D02*
X86535D01*
X85945Y128110D02*
Y129291D01*
X85354Y133031D02*
X86535D01*
X85945Y132441D02*
Y133622D01*
X85354Y137362D02*
X86535D01*
X85945Y136772D02*
Y137953D01*
X81024Y137362D02*
X82205D01*
X81614Y136772D02*
Y137953D01*
X85354Y141693D02*
X86535D01*
X85945Y141102D02*
Y142283D01*
X81024Y141693D02*
X82205D01*
X81614Y141102D02*
Y142283D01*
X85354Y146024D02*
X86535D01*
X85945Y145433D02*
Y146614D01*
X81024Y146024D02*
X82205D01*
X81614Y145433D02*
Y146614D01*
X76693Y146024D02*
X77874D01*
X77284Y145433D02*
Y146614D01*
X76693Y206024D02*
X77874D01*
X77284Y205433D02*
Y206614D01*
X81024Y206024D02*
X82205D01*
X81614Y205433D02*
Y206614D01*
X85354Y206024D02*
X86535D01*
X85945Y205433D02*
Y206614D01*
X81024Y201693D02*
X82205D01*
X81614Y201102D02*
Y202284D01*
X85354Y201693D02*
X86535D01*
X85945Y201102D02*
Y202284D01*
X81024Y197362D02*
X82205D01*
X81614Y196772D02*
Y197953D01*
X85354Y197362D02*
X86535D01*
X85945Y196772D02*
Y197953D01*
X85354Y193032D02*
X86535D01*
X85945Y192441D02*
Y193622D01*
X85354Y188701D02*
X86535D01*
X85945Y188110D02*
Y189291D01*
X85354Y184370D02*
X86535D01*
X85945Y183780D02*
Y184961D01*
X85354Y180039D02*
X86535D01*
X85945Y179449D02*
Y180630D01*
X85354Y175709D02*
X86535D01*
X85945Y175118D02*
Y176299D01*
X76693Y184370D02*
X77874D01*
X77284Y183780D02*
Y184961D01*
X76693Y201693D02*
X77874D01*
X77284Y201102D02*
Y202284D01*
X76693Y197362D02*
X77874D01*
X77284Y196772D02*
Y197953D01*
X76693Y193032D02*
X77874D01*
X77284Y192441D02*
Y193622D01*
X76693Y188701D02*
X77874D01*
X77284Y188110D02*
Y189291D01*
X76693Y180039D02*
X77874D01*
X77284Y179449D02*
Y180630D01*
X76693Y175709D02*
X77874D01*
X77284Y175118D02*
Y176299D01*
X81024Y175709D02*
X82205D01*
X81614Y175118D02*
Y176299D01*
X81024Y193032D02*
X82205D01*
X81614Y192441D02*
Y193622D01*
X81024Y188701D02*
X82205D01*
X81614Y188110D02*
Y189291D01*
X81024Y184370D02*
X82205D01*
X81614Y183780D02*
Y184961D01*
X81024Y180039D02*
X82205D01*
X81614Y179449D02*
Y180630D01*
X81024Y240039D02*
X82205D01*
X81614Y239449D02*
Y240630D01*
X81024Y244370D02*
X82205D01*
X81614Y243779D02*
Y244961D01*
X81024Y248701D02*
X82205D01*
X81614Y248110D02*
Y249291D01*
X81024Y253031D02*
X82205D01*
X81614Y252441D02*
Y253622D01*
X81024Y235709D02*
X82205D01*
X81614Y235118D02*
Y236299D01*
X76693Y235709D02*
X77874D01*
X77284Y235118D02*
Y236299D01*
X76693Y240039D02*
X77874D01*
X77284Y239449D02*
Y240630D01*
X76693Y248701D02*
X77874D01*
X77284Y248110D02*
Y249291D01*
X76693Y253031D02*
X77874D01*
X77284Y252441D02*
Y253622D01*
X76693Y257362D02*
X77874D01*
X77284Y256772D02*
Y257953D01*
X76693Y261693D02*
X77874D01*
X77284Y261102D02*
Y262283D01*
X76693Y244370D02*
X77874D01*
X77284Y243779D02*
Y244961D01*
X85354Y235709D02*
X86535D01*
X85945Y235118D02*
Y236299D01*
X85354Y240039D02*
X86535D01*
X85945Y239449D02*
Y240630D01*
X85354Y244370D02*
X86535D01*
X85945Y243779D02*
Y244961D01*
X85354Y248701D02*
X86535D01*
X85945Y248110D02*
Y249291D01*
X85354Y253031D02*
X86535D01*
X85945Y252441D02*
Y253622D01*
X85354Y257362D02*
X86535D01*
X85945Y256772D02*
Y257953D01*
X81024Y257362D02*
X82205D01*
X81614Y256772D02*
Y257953D01*
X85354Y261693D02*
X86535D01*
X85945Y261102D02*
Y262283D01*
X81024Y261693D02*
X82205D01*
X81614Y261102D02*
Y262283D01*
X85354Y266024D02*
X86535D01*
X85945Y265433D02*
Y266614D01*
X81024Y266024D02*
X82205D01*
X81614Y265433D02*
Y266614D01*
X76693Y266024D02*
X77874D01*
X77284Y265433D02*
Y266614D01*
X76693Y336024D02*
X77874D01*
X77284Y335433D02*
Y336614D01*
X81024Y336024D02*
X82205D01*
X81614Y335433D02*
Y336614D01*
X85354Y336024D02*
X86535D01*
X85945Y335433D02*
Y336614D01*
X81024Y331693D02*
X82205D01*
X81614Y331102D02*
Y332283D01*
X85354Y331693D02*
X86535D01*
X85945Y331102D02*
Y332283D01*
X81024Y327362D02*
X82205D01*
X81614Y326772D02*
Y327953D01*
X85354Y327362D02*
X86535D01*
X85945Y326772D02*
Y327953D01*
X85354Y323031D02*
X86535D01*
X85945Y322441D02*
Y323622D01*
X85354Y318701D02*
X86535D01*
X85945Y318110D02*
Y319291D01*
X85354Y314370D02*
X86535D01*
X85945Y313779D02*
Y314961D01*
X85354Y310039D02*
X86535D01*
X85945Y309449D02*
Y310630D01*
X85354Y305709D02*
X86535D01*
X85945Y305118D02*
Y306299D01*
X76693Y314370D02*
X77874D01*
X77284Y313779D02*
Y314961D01*
X76693Y331693D02*
X77874D01*
X77284Y331102D02*
Y332283D01*
X76693Y327362D02*
X77874D01*
X77284Y326772D02*
Y327953D01*
X76693Y323031D02*
X77874D01*
X77284Y322441D02*
Y323622D01*
X76693Y318701D02*
X77874D01*
X77284Y318110D02*
Y319291D01*
X76693Y310039D02*
X77874D01*
X77284Y309449D02*
Y310630D01*
X76693Y305709D02*
X77874D01*
X77284Y305118D02*
Y306299D01*
X81024Y305709D02*
X82205D01*
X81614Y305118D02*
Y306299D01*
X81024Y323031D02*
X82205D01*
X81614Y322441D02*
Y323622D01*
X81024Y318701D02*
X82205D01*
X81614Y318110D02*
Y319291D01*
X81024Y314370D02*
X82205D01*
X81614Y313779D02*
Y314961D01*
X81024Y310039D02*
X82205D01*
X81614Y309449D02*
Y310630D01*
X81024Y370039D02*
X82205D01*
X81614Y369449D02*
Y370630D01*
X81024Y374370D02*
X82205D01*
X81614Y373780D02*
Y374961D01*
X81024Y378701D02*
X82205D01*
X81614Y378110D02*
Y379291D01*
X81024Y383032D02*
X82205D01*
X81614Y382441D02*
Y383622D01*
X81024Y365709D02*
X82205D01*
X81614Y365118D02*
Y366299D01*
X76693Y365709D02*
X77874D01*
X77284Y365118D02*
Y366299D01*
X76693Y370039D02*
X77874D01*
X77284Y369449D02*
Y370630D01*
X76693Y378701D02*
X77874D01*
X77284Y378110D02*
Y379291D01*
X76693Y383032D02*
X77874D01*
X77284Y382441D02*
Y383622D01*
X76693Y387362D02*
X77874D01*
X77284Y386772D02*
Y387953D01*
X76693Y391693D02*
X77874D01*
X77284Y391102D02*
Y392284D01*
X76693Y374370D02*
X77874D01*
X77284Y373780D02*
Y374961D01*
X85354Y365709D02*
X86535D01*
X85945Y365118D02*
Y366299D01*
X85354Y370039D02*
X86535D01*
X85945Y369449D02*
Y370630D01*
X85354Y374370D02*
X86535D01*
X85945Y373780D02*
Y374961D01*
X85354Y378701D02*
X86535D01*
X85945Y378110D02*
Y379291D01*
X85354Y383032D02*
X86535D01*
X85945Y382441D02*
Y383622D01*
X85354Y387362D02*
X86535D01*
X85945Y386772D02*
Y387953D01*
X81024Y387362D02*
X82205D01*
X81614Y386772D02*
Y387953D01*
X85354Y391693D02*
X86535D01*
X85945Y391102D02*
Y392284D01*
X81024Y391693D02*
X82205D01*
X81614Y391102D02*
Y392284D01*
X85354Y396024D02*
X86535D01*
X85945Y395433D02*
Y396614D01*
X81024Y396024D02*
X82205D01*
X81614Y395433D02*
Y396614D01*
X76693Y396024D02*
X77874D01*
X77284Y395433D02*
Y396614D01*
X76693Y456024D02*
X77874D01*
X77284Y455433D02*
Y456614D01*
X81024Y456024D02*
X82205D01*
X81614Y455433D02*
Y456614D01*
X85354Y456024D02*
X86535D01*
X85945Y455433D02*
Y456614D01*
X81024Y451693D02*
X82205D01*
X81614Y451102D02*
Y452283D01*
X85354Y451693D02*
X86535D01*
X85945Y451102D02*
Y452283D01*
X81024Y447362D02*
X82205D01*
X81614Y446772D02*
Y447953D01*
X85354Y447362D02*
X86535D01*
X85945Y446772D02*
Y447953D01*
X85354Y443032D02*
X86535D01*
X85945Y442441D02*
Y443622D01*
X85354Y438701D02*
X86535D01*
X85945Y438110D02*
Y439291D01*
X85354Y434370D02*
X86535D01*
X85945Y433779D02*
Y434961D01*
X85354Y430039D02*
X86535D01*
X85945Y429449D02*
Y430630D01*
X85354Y425709D02*
X86535D01*
X85945Y425118D02*
Y426299D01*
X76693Y434370D02*
X77874D01*
X77284Y433779D02*
Y434961D01*
X76693Y451693D02*
X77874D01*
X77284Y451102D02*
Y452283D01*
X76693Y447362D02*
X77874D01*
X77284Y446772D02*
Y447953D01*
X76693Y443032D02*
X77874D01*
X77284Y442441D02*
Y443622D01*
X76693Y438701D02*
X77874D01*
X77284Y438110D02*
Y439291D01*
X76693Y430039D02*
X77874D01*
X77284Y429449D02*
Y430630D01*
X76693Y425709D02*
X77874D01*
X77284Y425118D02*
Y426299D01*
X81024Y425709D02*
X82205D01*
X81614Y425118D02*
Y426299D01*
X81024Y443032D02*
X82205D01*
X81614Y442441D02*
Y443622D01*
X81024Y438701D02*
X82205D01*
X81614Y438110D02*
Y439291D01*
X81024Y434370D02*
X82205D01*
X81614Y433779D02*
Y434961D01*
X81024Y430039D02*
X82205D01*
X81614Y429449D02*
Y430630D01*
X134449Y433386D02*
X135630D01*
X135039Y432795D02*
Y433976D01*
X138779Y433386D02*
X139961D01*
X139370Y432795D02*
Y433976D01*
X143110Y433386D02*
X144291D01*
X143701Y432795D02*
Y433976D01*
X147441Y433386D02*
X148622D01*
X148031Y432795D02*
Y433976D01*
X130118Y433386D02*
X131299D01*
X130709Y432795D02*
Y433976D01*
X130118Y437716D02*
X131299D01*
X130709Y437126D02*
Y438307D01*
X134449Y437716D02*
X135630D01*
X135039Y437126D02*
Y438307D01*
X143110Y437716D02*
X144291D01*
X143701Y437126D02*
Y438307D01*
X147441Y437716D02*
X148622D01*
X148031Y437126D02*
Y438307D01*
X151772Y437716D02*
X152953D01*
X152362Y437126D02*
Y438307D01*
X156102Y437716D02*
X157283D01*
X156693Y437126D02*
Y438307D01*
X138779Y437716D02*
X139961D01*
X139370Y437126D02*
Y438307D01*
X130118Y429055D02*
X131299D01*
X130709Y428465D02*
Y429646D01*
X134449Y429055D02*
X135630D01*
X135039Y428465D02*
Y429646D01*
X138779Y429055D02*
X139961D01*
X139370Y428465D02*
Y429646D01*
X143110Y429055D02*
X144291D01*
X143701Y428465D02*
Y429646D01*
X147441Y429055D02*
X148622D01*
X148031Y428465D02*
Y429646D01*
X151772Y429055D02*
X152953D01*
X152362Y428465D02*
Y429646D01*
X151772Y433386D02*
X152953D01*
X152362Y432795D02*
Y433976D01*
X156102Y429055D02*
X157283D01*
X156693Y428465D02*
Y429646D01*
X156102Y433386D02*
X157283D01*
X156693Y432795D02*
Y433976D01*
X160433Y429055D02*
X161614D01*
X161024Y428465D02*
Y429646D01*
X160433Y433386D02*
X161614D01*
X161024Y432795D02*
Y433976D01*
X160433Y437716D02*
X161614D01*
X161024Y437126D02*
Y438307D01*
X220433Y437716D02*
X221614D01*
X221024Y437126D02*
Y438307D01*
X220433Y433386D02*
X221614D01*
X221024Y432795D02*
Y433976D01*
X220433Y429055D02*
X221614D01*
X221024Y428465D02*
Y429646D01*
X216102Y433386D02*
X217284D01*
X216693Y432795D02*
Y433976D01*
X216102Y429055D02*
X217284D01*
X216693Y428465D02*
Y429646D01*
X211772Y433386D02*
X212953D01*
X212362Y432795D02*
Y433976D01*
X211772Y429055D02*
X212953D01*
X212362Y428465D02*
Y429646D01*
X207441Y429055D02*
X208622D01*
X208032Y428465D02*
Y429646D01*
X203110Y429055D02*
X204291D01*
X203701Y428465D02*
Y429646D01*
X198779Y429055D02*
X199961D01*
X199370Y428465D02*
Y429646D01*
X194449Y429055D02*
X195630D01*
X195039Y428465D02*
Y429646D01*
X190118Y429055D02*
X191299D01*
X190709Y428465D02*
Y429646D01*
X198779Y437716D02*
X199961D01*
X199370Y437126D02*
Y438307D01*
X216102Y437716D02*
X217284D01*
X216693Y437126D02*
Y438307D01*
X211772Y437716D02*
X212953D01*
X212362Y437126D02*
Y438307D01*
X207441Y437716D02*
X208622D01*
X208032Y437126D02*
Y438307D01*
X203110Y437716D02*
X204291D01*
X203701Y437126D02*
Y438307D01*
X194449Y437716D02*
X195630D01*
X195039Y437126D02*
Y438307D01*
X190118Y437716D02*
X191299D01*
X190709Y437126D02*
Y438307D01*
X190118Y433386D02*
X191299D01*
X190709Y432795D02*
Y433976D01*
X207441Y433386D02*
X208622D01*
X208032Y432795D02*
Y433976D01*
X203110Y433386D02*
X204291D01*
X203701Y432795D02*
Y433976D01*
X198779Y433386D02*
X199961D01*
X199370Y432795D02*
Y433976D01*
X194449Y433386D02*
X195630D01*
X195039Y432795D02*
Y433976D01*
X254449Y433386D02*
X255630D01*
X255039Y432795D02*
Y433976D01*
X258780Y433386D02*
X259961D01*
X259370Y432795D02*
Y433976D01*
X263110Y433386D02*
X264291D01*
X263701Y432795D02*
Y433976D01*
X267441Y433386D02*
X268622D01*
X268032Y432795D02*
Y433976D01*
X250118Y433386D02*
X251299D01*
X250709Y432795D02*
Y433976D01*
X250118Y437716D02*
X251299D01*
X250709Y437126D02*
Y438307D01*
X254449Y437716D02*
X255630D01*
X255039Y437126D02*
Y438307D01*
X263110Y437716D02*
X264291D01*
X263701Y437126D02*
Y438307D01*
X267441Y437716D02*
X268622D01*
X268032Y437126D02*
Y438307D01*
X271772Y437716D02*
X272953D01*
X272362Y437126D02*
Y438307D01*
X276102Y437716D02*
X277284D01*
X276693Y437126D02*
Y438307D01*
X258780Y437716D02*
X259961D01*
X259370Y437126D02*
Y438307D01*
X250118Y429055D02*
X251299D01*
X250709Y428465D02*
Y429646D01*
X254449Y429055D02*
X255630D01*
X255039Y428465D02*
Y429646D01*
X258780Y429055D02*
X259961D01*
X259370Y428465D02*
Y429646D01*
X263110Y429055D02*
X264291D01*
X263701Y428465D02*
Y429646D01*
X267441Y429055D02*
X268622D01*
X268032Y428465D02*
Y429646D01*
X271772Y429055D02*
X272953D01*
X272362Y428465D02*
Y429646D01*
X271772Y433386D02*
X272953D01*
X272362Y432795D02*
Y433976D01*
X276102Y429055D02*
X277284D01*
X276693Y428465D02*
Y429646D01*
X276102Y433386D02*
X277284D01*
X276693Y432795D02*
Y433976D01*
X280433Y429055D02*
X281614D01*
X281024Y428465D02*
Y429646D01*
X280433Y433386D02*
X281614D01*
X281024Y432795D02*
Y433976D01*
X280433Y437716D02*
X281614D01*
X281024Y437126D02*
Y438307D01*
X340433Y437716D02*
X341614D01*
X341024Y437126D02*
Y438307D01*
X340433Y433386D02*
X341614D01*
X341024Y432795D02*
Y433976D01*
X340433Y429055D02*
X341614D01*
X341024Y428465D02*
Y429646D01*
X336102Y433386D02*
X337283D01*
X336693Y432795D02*
Y433976D01*
X336102Y429055D02*
X337283D01*
X336693Y428465D02*
Y429646D01*
X331772Y433386D02*
X332953D01*
X332362Y432795D02*
Y433976D01*
X331772Y429055D02*
X332953D01*
X332362Y428465D02*
Y429646D01*
X327441Y429055D02*
X328622D01*
X328031Y428465D02*
Y429646D01*
X323110Y429055D02*
X324291D01*
X323701Y428465D02*
Y429646D01*
X318779Y429055D02*
X319961D01*
X319370Y428465D02*
Y429646D01*
X314449Y429055D02*
X315630D01*
X315039Y428465D02*
Y429646D01*
X310118Y429055D02*
X311299D01*
X310709Y428465D02*
Y429646D01*
X318779Y437716D02*
X319961D01*
X319370Y437126D02*
Y438307D01*
X336102Y437716D02*
X337283D01*
X336693Y437126D02*
Y438307D01*
X331772Y437716D02*
X332953D01*
X332362Y437126D02*
Y438307D01*
X327441Y437716D02*
X328622D01*
X328031Y437126D02*
Y438307D01*
X323110Y437716D02*
X324291D01*
X323701Y437126D02*
Y438307D01*
X314449Y437716D02*
X315630D01*
X315039Y437126D02*
Y438307D01*
X310118Y437716D02*
X311299D01*
X310709Y437126D02*
Y438307D01*
X310118Y433386D02*
X311299D01*
X310709Y432795D02*
Y433976D01*
X327441Y433386D02*
X328622D01*
X328031Y432795D02*
Y433976D01*
X323110Y433386D02*
X324291D01*
X323701Y432795D02*
Y433976D01*
X318779Y433386D02*
X319961D01*
X319370Y432795D02*
Y433976D01*
X314449Y433386D02*
X315630D01*
X315039Y432795D02*
Y433976D01*
X296909Y417500D02*
X298091D01*
X297500Y416910D02*
Y418090D01*
X150301Y242221D02*
X151482D01*
X150892Y241631D02*
Y242812D01*
X160909Y245512D02*
X162091D01*
X161500Y244921D02*
Y246102D01*
X159909Y270000D02*
X161091D01*
X160500Y269409D02*
Y270590D01*
X308910Y126000D02*
X310090D01*
X309500Y125409D02*
Y126591D01*
X289910Y147000D02*
X291090D01*
X290500Y146409D02*
Y147591D01*
X287409Y144500D02*
X288591D01*
X288000Y143909D02*
Y145091D01*
X284910Y149500D02*
X286090D01*
X285500Y148909D02*
Y150091D01*
X339409Y503500D02*
X340591D01*
X340000Y502910D02*
Y504090D01*
X279410Y503500D02*
X280591D01*
X280000Y502910D02*
Y504090D01*
X219409Y503500D02*
X220590D01*
X220000Y502910D02*
Y504090D01*
X159409Y503500D02*
X160591D01*
X160000Y502910D02*
Y504090D01*
X9409Y109500D02*
X10591D01*
X10000Y108909D02*
Y110091D01*
X9409Y169500D02*
X10591D01*
X10000Y168909D02*
Y170091D01*
X9409Y229500D02*
X10591D01*
X10000Y228909D02*
Y230090D01*
X9409Y299500D02*
X10591D01*
X10000Y298909D02*
Y300091D01*
X9409Y359500D02*
X10591D01*
X10000Y358910D02*
Y360090D01*
X9409Y419500D02*
X10591D01*
X10000Y418910D02*
Y420090D01*
X142909Y398500D02*
X144091D01*
X143500Y397909D02*
Y399091D01*
X226063Y99519D02*
X227244D01*
X226653Y98928D02*
Y100109D01*
X190053Y160006D02*
X191234D01*
X190644Y159416D02*
Y160597D01*
X235691Y294126D02*
X236872D01*
X236281Y293535D02*
Y294716D01*
X224410Y77000D02*
X225590D01*
X225000Y76410D02*
Y77591D01*
X222907Y99502D02*
X224088D01*
X223498Y98912D02*
Y100093D01*
X226909Y143500D02*
X228091D01*
X227500Y142909D02*
Y144091D01*
X229238Y141039D02*
X230419D01*
X229828Y140448D02*
Y141630D01*
X228410Y77000D02*
X229591D01*
X229000Y76410D02*
Y77591D01*
X202207Y236820D02*
X203388D01*
X202797Y236229D02*
Y237410D01*
X204666Y239307D02*
X205847D01*
X205257Y238717D02*
Y239898D01*
X208796Y241669D02*
X209977D01*
X209386Y241079D02*
Y242260D01*
X219910Y302500D02*
X221091D01*
X220500Y301909D02*
Y303091D01*
X209910Y310500D02*
X211090D01*
X210500Y309910D02*
Y311090D01*
X84411Y35000D02*
X85592D01*
X85001Y34409D02*
Y35591D01*
X151993Y208961D02*
X153174D01*
X152584Y208370D02*
Y209552D01*
X155909Y209000D02*
X157091D01*
X156500Y208410D02*
Y209591D01*
X109437Y41602D02*
X110618D01*
X110027Y41012D02*
Y42193D01*
X309409Y36000D02*
X310591D01*
X310000Y35409D02*
Y36591D01*
X124409Y228000D02*
X125591D01*
X125000Y227410D02*
Y228590D01*
X149909Y277500D02*
X151091D01*
X150500Y276909D02*
Y278091D01*
X122909Y275000D02*
X124091D01*
X123500Y274410D02*
Y275590D01*
X144409Y192500D02*
X145591D01*
X145000Y191909D02*
Y193091D01*
X122409Y169500D02*
X123591D01*
X123000Y168909D02*
Y170091D01*
X173409Y355000D02*
X174591D01*
X174000Y354410D02*
Y355591D01*
X231410Y255000D02*
X232591D01*
X232000Y254410D02*
Y255591D01*
X275288Y275537D02*
X276469D01*
X275878Y274947D02*
Y276128D01*
X255410Y275500D02*
X256591D01*
X256000Y274909D02*
Y276091D01*
X306089Y260143D02*
X307270D01*
X306680Y259553D02*
Y260734D01*
X290910Y302500D02*
X292091D01*
X291500Y301909D02*
Y303091D01*
X276909Y299500D02*
X278091D01*
X277500Y298909D02*
Y300091D01*
X300410Y278000D02*
X301590D01*
X301000Y277410D02*
Y278590D01*
X272765Y279776D02*
X273947D01*
X273356Y279186D02*
Y280367D01*
X279345Y278162D02*
X280526D01*
X279935Y277571D02*
Y278752D01*
X283410Y246000D02*
X284591D01*
X284000Y245409D02*
Y246590D01*
X283410Y233500D02*
X284591D01*
X284000Y232909D02*
Y234090D01*
X287910Y361500D02*
X289090D01*
X288500Y360910D02*
Y362090D01*
X267409Y356500D02*
X268590D01*
X268000Y355909D02*
Y357090D01*
X176909Y417500D02*
X178091D01*
X177500Y416910D02*
Y418090D01*
X236910Y417500D02*
X238090D01*
X237500Y416910D02*
Y418090D01*
X159909Y286000D02*
X161091D01*
X160500Y285409D02*
Y286591D01*
X198409Y294500D02*
X199591D01*
X199000Y293910D02*
Y295091D01*
X226410Y308500D02*
X227590D01*
X227000Y307909D02*
Y309090D01*
X164409Y153500D02*
X165591D01*
X165000Y152909D02*
Y154091D01*
X184409Y151595D02*
X185591D01*
X185000Y151004D02*
Y152185D01*
X215910Y152000D02*
X217091D01*
X216500Y151409D02*
Y152591D01*
X230433Y127123D02*
X231614D01*
X231024Y126532D02*
Y127713D01*
X291969Y85059D02*
X293150D01*
X292559Y84469D02*
Y85650D01*
X236181Y96148D02*
X237362D01*
X236772Y95557D02*
Y96738D01*
X229410Y55500D02*
X230591D01*
X230000Y54909D02*
Y56090D01*
X271410Y51000D02*
X272590D01*
X272000Y50409D02*
Y51591D01*
X259409Y59000D02*
X260591D01*
X260000Y58410D02*
Y59591D01*
X207410Y114500D02*
X208591D01*
X208000Y113909D02*
Y115091D01*
X186909Y114500D02*
X188091D01*
X187500Y113909D02*
Y115091D01*
X252909Y97000D02*
X254090D01*
X253500Y96409D02*
Y97591D01*
X311910Y191000D02*
X313090D01*
X312500Y190409D02*
Y191591D01*
X326410Y184500D02*
X327590D01*
X327000Y183909D02*
Y185091D01*
X328502Y198816D02*
X329683D01*
X329093Y198226D02*
Y199407D01*
X331181Y201648D02*
X332362D01*
X331772Y201057D02*
Y202238D01*
X281909Y209000D02*
X283090D01*
X282500Y208410D02*
Y209591D01*
X281909Y192500D02*
X283090D01*
X282500Y191909D02*
Y193091D01*
X245910Y202500D02*
X247091D01*
X246500Y201909D02*
Y203091D01*
X246909Y188500D02*
X248091D01*
X247500Y187909D02*
Y189091D01*
X214910Y200000D02*
X216090D01*
X215500Y199409D02*
Y200591D01*
X214910Y193500D02*
X216090D01*
X215500Y192909D02*
Y194091D01*
X171919Y217038D02*
X173100D01*
X172510Y216447D02*
Y217628D01*
X187909Y217000D02*
X189091D01*
X188500Y216409D02*
Y217590D01*
X171409Y204000D02*
X172591D01*
X172000Y203409D02*
Y204591D01*
X174547Y128155D02*
X175728D01*
X175138Y127565D02*
Y128746D01*
X187372Y125399D02*
X188553D01*
X187963Y124809D02*
Y125990D01*
X219365Y121000D02*
X220546D01*
X219956Y120409D02*
Y121591D01*
X278410Y89000D02*
X279591D01*
X279000Y88410D02*
Y89591D01*
X272909Y112500D02*
X274091D01*
X273500Y111909D02*
Y113091D01*
X220910Y29744D02*
X222091D01*
X221500Y29154D02*
Y30335D01*
X152957Y317579D02*
X154138D01*
X153548Y316988D02*
Y318169D01*
X331427Y300500D02*
X332608D01*
X332017Y299909D02*
Y301091D01*
X204409Y212500D02*
X205591D01*
X205000Y211910D02*
Y213090D01*
X221410Y212500D02*
X222590D01*
X222000Y211910D02*
Y213090D01*
X231675Y310475D02*
X232856D01*
X232265Y309884D02*
Y311065D01*
X304410Y349500D02*
X305591D01*
X305000Y348909D02*
Y350091D01*
X210409Y336000D02*
X211591D01*
X211000Y335409D02*
Y336591D01*
X116072Y291619D02*
X117253D01*
X116662Y291028D02*
Y292209D01*
X168472Y219201D02*
X169653D01*
X169063Y218610D02*
Y219791D01*
X163909Y242500D02*
X165091D01*
X164500Y241910D02*
Y243091D01*
X133346Y297500D02*
X134527D01*
X133936Y296909D02*
Y298091D01*
X214405Y398500D02*
X215586D01*
X214996Y397909D02*
Y399091D01*
X180909Y332000D02*
X182091D01*
X181500Y331410D02*
Y332591D01*
X229253Y336343D02*
X230434D01*
X229844Y335753D02*
Y336934D01*
X302410Y382000D02*
X303590D01*
X303000Y381410D02*
Y382591D01*
X302410Y375500D02*
X303590D01*
X303000Y374909D02*
Y376091D01*
X228909Y354000D02*
X230090D01*
X229500Y353410D02*
Y354591D01*
X224909Y392500D02*
X226091D01*
X225500Y391910D02*
Y393091D01*
X136909Y270000D02*
X138091D01*
X137500Y269409D02*
Y270590D01*
X105909Y265500D02*
X107091D01*
X106500Y264910D02*
Y266090D01*
X109409Y265500D02*
X110591D01*
X110000Y264910D02*
Y266090D01*
X112909Y265500D02*
X114091D01*
X113500Y264910D02*
Y266090D01*
X133909Y275000D02*
X135091D01*
X134500Y274410D02*
Y275590D01*
X299410Y300500D02*
X300590D01*
X300000Y299909D02*
Y301091D01*
X281410Y282500D02*
X282591D01*
X282000Y281909D02*
Y283090D01*
X181409Y209000D02*
X182591D01*
X182000Y208410D02*
Y209591D01*
X134409Y159500D02*
X135591D01*
X135000Y158909D02*
Y160091D01*
X223909Y156000D02*
X225091D01*
X224500Y155409D02*
Y156591D01*
X219910Y156000D02*
X221091D01*
X220500Y155409D02*
Y156591D01*
X113909Y149500D02*
X115091D01*
X114500Y148909D02*
Y150091D01*
X111409Y144500D02*
X112591D01*
X112000Y143909D02*
Y145091D01*
X328661Y265255D02*
X329842D01*
X329252Y264665D02*
Y265846D01*
X319910Y236500D02*
X321091D01*
X320500Y235910D02*
Y237090D01*
X204419Y152946D02*
X205600D01*
X205010Y152356D02*
Y153537D01*
X204334Y142075D02*
X205515D01*
X204925Y141485D02*
Y142666D01*
X211910Y116000D02*
X213090D01*
X212500Y115409D02*
Y116591D01*
X118409Y60000D02*
X119591D01*
X119000Y59409D02*
Y60590D01*
X141795Y75031D02*
X142976D01*
X142386Y74440D02*
Y75621D01*
X141739Y71830D02*
X142920D01*
X142330Y71239D02*
Y72420D01*
X43909Y86000D02*
X45091D01*
X44500Y85409D02*
Y86590D01*
X169909Y82000D02*
X171091D01*
X170500Y81410D02*
Y82591D01*
X172909Y32500D02*
X174091D01*
X173500Y31909D02*
Y33091D01*
X167909Y124000D02*
X169091D01*
X168500Y123409D02*
Y124591D01*
X164016Y71500D02*
X165984D01*
X165000Y70516D02*
Y72484D01*
X231909Y25000D02*
X233090D01*
X232500Y24409D02*
Y25591D01*
X287910Y231500D02*
X289090D01*
X288500Y230909D02*
Y232090D01*
X274410Y352500D02*
X275590D01*
X275000Y351909D02*
Y353091D01*
X268409Y346862D02*
X269590D01*
X269000Y346272D02*
Y347453D01*
X284910Y225000D02*
X286090D01*
X285500Y224410D02*
Y225590D01*
X284828Y221382D02*
X286009D01*
X285419Y220791D02*
Y221972D01*
X213409Y237500D02*
X214591D01*
X214000Y236910D02*
Y238090D01*
X247945Y245714D02*
X249126D01*
X248536Y245124D02*
Y246305D01*
X245946Y243395D02*
X247127D01*
X246537Y242805D02*
Y243986D01*
X243910Y241000D02*
X245091D01*
X244500Y240409D02*
Y241590D01*
X258190Y250885D02*
X259371D01*
X258780Y250294D02*
Y251476D01*
X256885Y253616D02*
X258066D01*
X257475Y253026D02*
Y254207D01*
X281909Y126000D02*
X283090D01*
X282500Y125409D02*
Y126591D01*
X115909Y226500D02*
X117091D01*
X116500Y225909D02*
Y227091D01*
X110880Y197453D02*
X112061D01*
X111470Y196862D02*
Y198043D01*
X216026Y142661D02*
X217208D01*
X216617Y142070D02*
Y143251D01*
X173909Y7500D02*
X175091D01*
X174500Y6909D02*
Y8091D01*
X214409Y7500D02*
X215591D01*
X215000Y6909D02*
Y8091D01*
X274410Y58000D02*
X275590D01*
X275000Y57410D02*
Y58591D01*
X261910Y98500D02*
X263090D01*
X262500Y97909D02*
Y99090D01*
X247104Y82722D02*
X248285D01*
X247694Y82131D02*
Y83312D01*
X247104Y79551D02*
X248285D01*
X247694Y78960D02*
Y80141D01*
X234583Y84783D02*
X235765D01*
X235174Y84192D02*
Y85373D01*
X215409Y84500D02*
X216590D01*
X216000Y83909D02*
Y85091D01*
X192227Y82221D02*
X193408D01*
X192817Y81631D02*
Y82812D01*
X179437Y82221D02*
X180618D01*
X180027Y81631D02*
Y82812D01*
X213409Y172000D02*
X214591D01*
X214000Y171409D02*
Y172591D01*
X201909Y277000D02*
X203091D01*
X202500Y276410D02*
Y277590D01*
X198409Y277000D02*
X199591D01*
X199000Y276410D02*
Y277590D01*
X194909Y277000D02*
X196091D01*
X195500Y276410D02*
Y277590D01*
X191409Y277000D02*
X192591D01*
X192000Y276410D02*
Y277590D01*
X283875Y279064D02*
X285056D01*
X284466Y278474D02*
Y279655D01*
X188909Y240500D02*
X190091D01*
X189500Y239910D02*
Y241090D01*
X188909Y244000D02*
X190091D01*
X189500Y243409D02*
Y244590D01*
X187409Y286000D02*
X188591D01*
X188000Y285409D02*
Y286591D01*
X218409Y99000D02*
X219590D01*
X219000Y98409D02*
Y99590D01*
X273410Y258500D02*
X274590D01*
X274000Y257909D02*
Y259090D01*
X274410Y153500D02*
X275590D01*
X275000Y152909D02*
Y154091D01*
X277410Y153500D02*
X278590D01*
X278000Y152909D02*
Y154091D01*
X257988Y281257D02*
X259169D01*
X258578Y280667D02*
Y281848D01*
X219909Y260000D02*
X221091D01*
X220500Y259409D02*
Y260591D01*
X208910Y260000D02*
X210090D01*
X209500Y259409D02*
Y260591D01*
X216243Y260000D02*
X217424D01*
X216833Y259409D02*
Y260591D01*
X212576Y260000D02*
X213757D01*
X213167Y259409D02*
Y260591D01*
X163909Y219201D02*
X165091D01*
X164500Y218610D02*
Y219791D01*
X163909Y227862D02*
X165091D01*
X164500Y227272D02*
Y228453D01*
X296797Y265500D02*
X297978D01*
X297388Y264910D02*
Y266090D01*
X318803Y277766D02*
X319984D01*
X319394Y277175D02*
Y278356D01*
X313910Y279606D02*
X315090D01*
X314500Y279016D02*
Y280197D01*
X291910Y263500D02*
X293091D01*
X292500Y262910D02*
Y264090D01*
X290910Y260341D02*
X292091D01*
X291500Y259750D02*
Y260931D01*
X271909Y309000D02*
X273091D01*
X272500Y308410D02*
Y309591D01*
X243409Y306000D02*
X244590D01*
X244000Y305410D02*
Y306591D01*
X246677Y302603D02*
X247858D01*
X247268Y302012D02*
Y303193D01*
X107772Y446500D02*
X108953D01*
X108362Y445910D02*
Y447090D01*
X114909Y432000D02*
X116091D01*
X115500Y431410D02*
Y432590D01*
X108409Y449500D02*
X109591D01*
X109000Y448910D02*
Y450091D01*
X155019Y365299D02*
X156200D01*
X155609Y364709D02*
Y365890D01*
X155772Y353500D02*
X156953D01*
X156362Y352909D02*
Y354090D01*
X206367Y371830D02*
X207548D01*
X206957Y371239D02*
Y372420D01*
X207909Y347000D02*
X209090D01*
X208500Y346410D02*
Y347590D01*
X234910Y158500D02*
X236090D01*
X235500Y157909D02*
Y159091D01*
X232410Y156000D02*
X233591D01*
X233000Y155409D02*
Y156591D01*
X134472Y327562D02*
X135653D01*
X135062Y326972D02*
Y328153D01*
X219910Y311500D02*
X221091D01*
X220500Y310910D02*
Y312090D01*
X146409Y261000D02*
X147591D01*
X147000Y260409D02*
Y261591D01*
X107909Y205000D02*
X109091D01*
X108500Y204409D02*
Y205591D01*
X216135Y323774D02*
X217317D01*
X216726Y323183D02*
Y324365D01*
X108909Y138000D02*
X110091D01*
X109500Y137409D02*
Y138591D01*
X286420Y276489D02*
X287602D01*
X287011Y275898D02*
Y277080D01*
X114909Y389500D02*
X116091D01*
X115500Y388910D02*
Y390090D01*
X98589Y392352D02*
X99770D01*
X99179Y391762D02*
Y392943D01*
X195409Y304500D02*
X196591D01*
X196000Y303909D02*
Y305090D01*
X216409Y311500D02*
X217590D01*
X217000Y310910D02*
Y312090D01*
X98589Y387234D02*
X99770D01*
X99179Y386644D02*
Y387825D01*
X111909Y392500D02*
X113091D01*
X112500Y391910D02*
Y393091D01*
X219097Y325188D02*
X220278D01*
X219688Y324597D02*
Y325778D01*
X253909Y334500D02*
X255090D01*
X254500Y333910D02*
Y335090D01*
X117909Y386000D02*
X119091D01*
X118500Y385409D02*
Y386591D01*
X117909Y257500D02*
X119091D01*
X118500Y256909D02*
Y258090D01*
X130104Y329790D02*
X131286D01*
X130695Y329199D02*
Y330380D01*
X199080Y304170D02*
X200261D01*
X199670Y303580D02*
Y304761D01*
X123409Y332500D02*
X124591D01*
X124000Y331909D02*
Y333090D01*
X171409Y304000D02*
X172591D01*
X172000Y303410D02*
Y304591D01*
X98589Y382116D02*
X99770D01*
X99179Y381526D02*
Y382707D01*
X184409Y145000D02*
X185591D01*
X185000Y144409D02*
Y145591D01*
X194909Y145000D02*
X196091D01*
X195500Y144409D02*
Y145591D01*
X74410Y35000D02*
X75590D01*
X75000Y34409D02*
Y35591D01*
X153409Y229500D02*
X154591D01*
X154000Y228909D02*
Y230090D01*
X319409Y375000D02*
X320590D01*
X320000Y374410D02*
Y375590D01*
X336791Y416022D02*
X337972D01*
X337382Y415432D02*
Y416613D01*
X331673Y416022D02*
X332854D01*
X332263Y415432D02*
Y416613D01*
X326555Y416022D02*
X327736D01*
X327145Y415432D02*
Y416613D01*
X276808Y416105D02*
X277989D01*
X277398Y415515D02*
Y416696D01*
X266571Y416105D02*
X267753D01*
X267162Y415515D02*
Y416696D01*
X271706Y416089D02*
X272887D01*
X272297Y415498D02*
Y416679D01*
X206752Y416000D02*
X207933D01*
X207343Y415410D02*
Y416590D01*
X211870Y416000D02*
X213051D01*
X212461Y415410D02*
Y416590D01*
X216910Y416000D02*
X218091D01*
X217500Y415410D02*
Y416590D01*
X156909Y416000D02*
X158091D01*
X157500Y415410D02*
Y416590D01*
X151870Y416000D02*
X153051D01*
X152461Y415410D02*
Y416590D01*
X146752Y416000D02*
X147933D01*
X147343Y415410D02*
Y416590D01*
X98589Y442116D02*
X99770D01*
X99179Y441526D02*
Y442707D01*
X98589Y447234D02*
X99770D01*
X99179Y446644D02*
Y447825D01*
X98589Y452352D02*
X99770D01*
X99179Y451762D02*
Y452943D01*
X114414Y324833D02*
X115595D01*
X115004Y324242D02*
Y325423D01*
X98589Y322116D02*
X99770D01*
X99179Y321526D02*
Y322707D01*
X98589Y327234D02*
X99770D01*
X99179Y326644D02*
Y327825D01*
X98589Y332352D02*
X99770D01*
X99179Y331762D02*
Y332943D01*
X98589Y262352D02*
X99770D01*
X99179Y261762D02*
Y262943D01*
X98589Y257234D02*
X99770D01*
X99179Y256644D02*
Y257825D01*
X98589Y252116D02*
X99770D01*
X99179Y251526D02*
Y252707D01*
X98589Y192116D02*
X99770D01*
X99179Y191526D02*
Y192707D01*
X98589Y197234D02*
X99770D01*
X99179Y196644D02*
Y197825D01*
X98589Y202352D02*
X99770D01*
X99179Y201762D02*
Y202943D01*
X98589Y132116D02*
X99770D01*
X99179Y131526D02*
Y132707D01*
X98589Y137234D02*
X99770D01*
X99179Y136644D02*
Y137825D01*
X98589Y142352D02*
X99770D01*
X99179Y141762D02*
Y142943D01*
X265696Y386000D02*
X266878D01*
X266287Y385409D02*
Y386591D01*
X236114Y342204D02*
X237295D01*
X236704Y341614D02*
Y342795D01*
X251909Y377500D02*
X253091D01*
X252500Y376909D02*
Y378091D01*
X251909Y374500D02*
X253091D01*
X252500Y373909D02*
Y375091D01*
X243806Y354309D02*
X244987D01*
X244397Y353719D02*
Y354900D01*
X251680Y354309D02*
X252861D01*
X252271Y353719D02*
Y354900D01*
X247743Y354309D02*
X248924D01*
X248334Y353719D02*
Y354900D01*
X232410Y372000D02*
X233591D01*
X233000Y371410D02*
Y372590D01*
X235409Y372000D02*
X236591D01*
X236000Y371410D02*
Y372590D01*
X238409Y372000D02*
X239591D01*
X239000Y371410D02*
Y372590D01*
X153409Y409000D02*
X154591D01*
X154000Y408410D02*
Y409590D01*
X156409Y406500D02*
X157591D01*
X157000Y405909D02*
Y407091D01*
X159409Y403500D02*
X160591D01*
X160000Y402910D02*
Y404090D01*
X305857Y399149D02*
X307038D01*
X306447Y398558D02*
Y399739D01*
X251909Y380500D02*
X253091D01*
X252500Y379909D02*
Y381090D01*
X283047Y324954D02*
X284228D01*
X283638Y324363D02*
Y325544D01*
X276410Y388500D02*
X277590D01*
X277000Y387910D02*
Y389090D01*
X266487Y375624D02*
X267668D01*
X267078Y375034D02*
Y376215D01*
X242910Y387000D02*
X244091D01*
X243500Y386409D02*
Y387591D01*
X239409Y387000D02*
X240591D01*
X240000Y386409D02*
Y387591D01*
X105409Y449500D02*
X106591D01*
X106000Y448910D02*
Y450091D01*
X102909Y453500D02*
X104091D01*
X103500Y452910D02*
Y454090D01*
X123409Y255354D02*
X124591D01*
X124000Y254764D02*
Y255945D01*
X129909Y252500D02*
X131091D01*
X130500Y251909D02*
Y253091D01*
X146409Y286000D02*
X147591D01*
X147000Y285409D02*
Y286591D01*
X141909Y282000D02*
X143091D01*
X142500Y281410D02*
Y282591D01*
X146409Y282000D02*
X147591D01*
X147000Y281410D02*
Y282591D01*
X117016Y87000D02*
X118984D01*
X118000Y86016D02*
Y87984D01*
X115516Y83000D02*
X117484D01*
X116500Y82016D02*
Y83984D01*
X60516Y112500D02*
X62484D01*
X61500Y111516D02*
Y113484D01*
X60516Y172500D02*
X62484D01*
X61500Y171516D02*
Y173484D01*
X60516Y232500D02*
X62484D01*
X61500Y231516D02*
Y233484D01*
X60516Y302500D02*
X62484D01*
X61500Y301516D02*
Y303484D01*
X60516Y362500D02*
X62484D01*
X61500Y361516D02*
Y363484D01*
X60516Y422500D02*
X62484D01*
X61500Y421516D02*
Y423484D01*
X306516Y453500D02*
X308484D01*
X307500Y452516D02*
Y454484D01*
X246516Y453500D02*
X248484D01*
X247500Y452516D02*
Y454484D01*
X186516Y453500D02*
X188484D01*
X187500Y452516D02*
Y454484D01*
X191016Y453500D02*
X192984D01*
X192000Y452516D02*
Y454484D01*
X126516Y453500D02*
X128484D01*
X127500Y452516D02*
Y454484D01*
X122016Y453500D02*
X123984D01*
X123000Y452516D02*
Y454484D01*
X119016Y79000D02*
X120984D01*
X120000Y78016D02*
Y79984D01*
X115516Y79000D02*
X117484D01*
X116500Y78016D02*
Y79984D01*
X122516Y79000D02*
X124484D01*
X123500Y78016D02*
Y79984D01*
X119016Y75000D02*
X120984D01*
X120000Y74016D02*
Y75984D01*
X115516Y75000D02*
X117484D01*
X116500Y74016D02*
Y75984D01*
X122516Y75000D02*
X124484D01*
X123500Y74016D02*
Y75984D01*
X119016Y83000D02*
X120984D01*
X120000Y82016D02*
Y83984D01*
X50516Y457000D02*
X52484D01*
X51500Y456016D02*
Y457984D01*
X50516Y397000D02*
X52484D01*
X51500Y396016D02*
Y397984D01*
X50516Y337000D02*
X52484D01*
X51500Y336016D02*
Y337984D01*
X50516Y267000D02*
X52484D01*
X51500Y266016D02*
Y267984D01*
X50516Y207000D02*
X52484D01*
X51500Y206016D02*
Y207984D01*
X60516Y427000D02*
X62484D01*
X61500Y426016D02*
Y427984D01*
X60516Y418000D02*
X62484D01*
X61500Y417016D02*
Y418984D01*
X60516Y367000D02*
X62484D01*
X61500Y366016D02*
Y367984D01*
X60516Y358000D02*
X62484D01*
X61500Y357016D02*
Y358984D01*
X60516Y307000D02*
X62484D01*
X61500Y306016D02*
Y307984D01*
X60516Y298000D02*
X62484D01*
X61500Y297016D02*
Y298984D01*
X60516Y237000D02*
X62484D01*
X61500Y236016D02*
Y237984D01*
X60516Y228000D02*
X62484D01*
X61500Y227016D02*
Y228984D01*
X60516Y177000D02*
X62484D01*
X61500Y176016D02*
Y177984D01*
X60516Y168000D02*
X62484D01*
X61500Y167016D02*
Y168984D01*
X60516Y117000D02*
X62484D01*
X61500Y116016D02*
Y117984D01*
X60516Y108000D02*
X62484D01*
X61500Y107016D02*
Y108984D01*
X182016Y453500D02*
X183984D01*
X183000Y452516D02*
Y454484D01*
X242016Y453500D02*
X243984D01*
X243000Y452516D02*
Y454484D01*
X302016Y453500D02*
X303984D01*
X303000Y452516D02*
Y454484D01*
X50516Y147000D02*
X52484D01*
X51500Y146016D02*
Y147984D01*
X311016Y453500D02*
X312984D01*
X312000Y452516D02*
Y454484D01*
X338116Y463613D02*
X340084D01*
X339100Y462629D02*
Y464597D01*
X251016Y453500D02*
X252984D01*
X252000Y452516D02*
Y454484D01*
X278115Y463613D02*
X280084D01*
X279100Y462629D02*
Y464597D01*
X218115Y463613D02*
X220084D01*
X219100Y462629D02*
Y464597D01*
X158115Y463613D02*
X160084D01*
X159100Y462629D02*
Y464597D01*
X131016Y453500D02*
X132984D01*
X132000Y452516D02*
Y454484D01*
%TF.MD5,ea8b4c09bc439f7b86f028446e86a72f*%
M02*
