%TF.GenerationSoftware,Altium Limited,Altium Designer,21.2.1 (34)*%
G04 Layer_Color=255*
%FSLAX25Y25*%
%MOIN*%
%TF.SameCoordinates,3D92BD4A-1653-4209-B07E-4AD3ED082CDC*%
%TF.FilePolarity,Positive*%
%TF.FileFunction,Pads,Bot*%
%TF.Part,Single*%
G01*
G75*
%TA.AperFunction,SMDPad,CuDef*%
%ADD10R,0.11811X0.34252*%
%ADD12R,0.34252X0.11811*%
%ADD14R,0.03150X0.03937*%
%ADD20R,0.03937X0.03150*%
%ADD21R,0.04500X0.05400*%
%ADD25R,0.05400X0.04500*%
%TA.AperFunction,ComponentPad*%
%ADD37O,0.06299X0.13780*%
%ADD38C,0.07087*%
%ADD39O,0.11811X0.15748*%
%ADD40O,0.09843X0.07874*%
%ADD41O,0.13780X0.06299*%
%ADD42O,0.15748X0.11811*%
%ADD43C,0.07874*%
%ADD44R,0.07874X0.07874*%
%TA.AperFunction,SMDPad,CuDef*%
%ADD47R,0.03150X0.07874*%
%ADD48R,0.01181X0.03937*%
%ADD49R,0.00787X0.02362*%
%ADD50R,0.00787X0.02756*%
%ADD51R,0.02362X0.00787*%
%ADD52R,0.02756X0.00787*%
G04:AMPARAMS|DCode=53|XSize=59.06mil|YSize=64.96mil|CornerRadius=14.76mil|HoleSize=0mil|Usage=FLASHONLY|Rotation=90.000|XOffset=0mil|YOffset=0mil|HoleType=Round|Shape=RoundedRectangle|*
%AMROUNDEDRECTD53*
21,1,0.05906,0.03543,0,0,90.0*
21,1,0.02953,0.06496,0,0,90.0*
1,1,0.02953,0.01772,0.01476*
1,1,0.02953,0.01772,-0.01476*
1,1,0.02953,-0.01772,-0.01476*
1,1,0.02953,-0.01772,0.01476*
%
%ADD53ROUNDEDRECTD53*%
%ADD54R,0.09449X0.07874*%
%ADD55R,0.07874X0.09449*%
%ADD56R,0.03937X0.06693*%
%ADD57R,0.03740X0.03150*%
%ADD58R,0.02756X0.01575*%
%ADD59R,0.02756X0.07874*%
%ADD60R,0.01181X0.05906*%
%ADD61R,0.05906X0.01181*%
%ADD62R,0.03937X0.01181*%
%ADD63R,0.11811X0.15748*%
%ADD64R,0.02000X0.02500*%
%ADD65R,0.04724X0.05118*%
%ADD66R,0.05118X0.04724*%
D10*
X81614Y130866D02*
D03*
Y190866D02*
D03*
Y250866D02*
D03*
Y320866D02*
D03*
Y380866D02*
D03*
Y440866D02*
D03*
D12*
X145866Y433386D02*
D03*
X205866D02*
D03*
X265866D02*
D03*
X325866D02*
D03*
D14*
X102500Y275000D02*
D03*
X109094D02*
D03*
X102500Y295000D02*
D03*
X109094D02*
D03*
X129094Y312500D02*
D03*
X122500D02*
D03*
X129094Y302500D02*
D03*
X122500D02*
D03*
X141594Y222500D02*
D03*
X135000D02*
D03*
X270906Y382500D02*
D03*
X277500D02*
D03*
X311595Y387500D02*
D03*
X305000D02*
D03*
X307500Y217500D02*
D03*
X300906D02*
D03*
X317500D02*
D03*
X324094D02*
D03*
X242500Y406000D02*
D03*
X235906D02*
D03*
X309500Y199000D02*
D03*
X316094D02*
D03*
X323406Y325500D02*
D03*
X330000D02*
D03*
X141594Y212500D02*
D03*
X135000D02*
D03*
X117500D02*
D03*
X124094D02*
D03*
X169094Y375000D02*
D03*
X162500D02*
D03*
X169094Y350000D02*
D03*
X162500D02*
D03*
X284094Y251000D02*
D03*
X277500D02*
D03*
X315000Y30000D02*
D03*
X308405D02*
D03*
X294990Y30001D02*
D03*
X288395D02*
D03*
X169094Y212500D02*
D03*
X162500D02*
D03*
X135000Y197500D02*
D03*
X141594D02*
D03*
Y187500D02*
D03*
X135000D02*
D03*
X141594Y177500D02*
D03*
X135000D02*
D03*
X262094Y406000D02*
D03*
X255500D02*
D03*
X234094Y349000D02*
D03*
X227500D02*
D03*
X193406Y173000D02*
D03*
X200000D02*
D03*
X198406Y221000D02*
D03*
X205000D02*
D03*
X234594D02*
D03*
X228000D02*
D03*
X284594Y264500D02*
D03*
X278000D02*
D03*
X271594Y320000D02*
D03*
X265000D02*
D03*
X226906Y330000D02*
D03*
X233500D02*
D03*
X205906D02*
D03*
X212500D02*
D03*
X175000Y320000D02*
D03*
X181594D02*
D03*
X233406Y173000D02*
D03*
X240000D02*
D03*
X273406D02*
D03*
X280000D02*
D03*
X117500Y130000D02*
D03*
X110906D02*
D03*
D20*
X142500Y297500D02*
D03*
Y290906D02*
D03*
X152500Y297500D02*
D03*
Y290906D02*
D03*
X69999Y41605D02*
D03*
Y35010D02*
D03*
X80001Y41605D02*
D03*
Y35010D02*
D03*
X300001Y340010D02*
D03*
Y346605D02*
D03*
X312499Y263395D02*
D03*
Y269990D02*
D03*
X294999Y245895D02*
D03*
Y252490D02*
D03*
X329999Y245895D02*
D03*
Y252490D02*
D03*
X119999Y41605D02*
D03*
Y35010D02*
D03*
X129999Y41605D02*
D03*
Y35010D02*
D03*
X216000Y212594D02*
D03*
Y206000D02*
D03*
X200000Y371906D02*
D03*
Y378500D02*
D03*
Y346906D02*
D03*
Y353500D02*
D03*
X300000Y294094D02*
D03*
Y287500D02*
D03*
X179999Y94990D02*
D03*
Y88395D02*
D03*
X180000Y151595D02*
D03*
Y145000D02*
D03*
X267500Y151594D02*
D03*
Y145000D02*
D03*
X189999Y94990D02*
D03*
Y88395D02*
D03*
X190000Y151595D02*
D03*
Y145000D02*
D03*
X257500Y151594D02*
D03*
Y145000D02*
D03*
X199999Y94990D02*
D03*
Y88395D02*
D03*
X200000Y151595D02*
D03*
Y145000D02*
D03*
X274999Y44990D02*
D03*
Y38395D02*
D03*
X247500Y151594D02*
D03*
Y145000D02*
D03*
X210000Y95000D02*
D03*
Y88405D02*
D03*
Y151595D02*
D03*
Y145000D02*
D03*
X274999Y69990D02*
D03*
Y63395D02*
D03*
X237500Y151594D02*
D03*
Y145000D02*
D03*
X295000Y225906D02*
D03*
Y232500D02*
D03*
X215000Y385906D02*
D03*
Y392500D02*
D03*
X290000Y346594D02*
D03*
Y340000D02*
D03*
X177500Y195906D02*
D03*
Y202500D02*
D03*
X277500Y233406D02*
D03*
Y240000D02*
D03*
Y289094D02*
D03*
Y282500D02*
D03*
X170000Y263406D02*
D03*
Y270000D02*
D03*
Y235906D02*
D03*
Y242500D02*
D03*
Y285906D02*
D03*
Y292500D02*
D03*
X290000Y287500D02*
D03*
Y294094D02*
D03*
D21*
X295000Y110000D02*
D03*
X286500D02*
D03*
X295000Y120000D02*
D03*
X286500D02*
D03*
X196500Y32500D02*
D03*
X205000D02*
D03*
X196500Y7500D02*
D03*
X205000D02*
D03*
X156500D02*
D03*
X165000D02*
D03*
X196500Y57500D02*
D03*
X205000D02*
D03*
D25*
X305000Y180500D02*
D03*
Y189000D02*
D03*
X320000Y180500D02*
D03*
Y189000D02*
D03*
D37*
X245000Y45000D02*
D03*
X255000D02*
D03*
X265000D02*
D03*
X235000D02*
D03*
X60000Y20000D02*
D03*
X70000D02*
D03*
X80000D02*
D03*
X50000D02*
D03*
X100000Y20000D02*
D03*
X130000D02*
D03*
X120000D02*
D03*
X110000D02*
D03*
X235000Y70000D02*
D03*
X265000D02*
D03*
X255000D02*
D03*
X245000D02*
D03*
X285000D02*
D03*
X315000D02*
D03*
X305000D02*
D03*
X295000D02*
D03*
Y45000D02*
D03*
X305000D02*
D03*
X315000D02*
D03*
X285000D02*
D03*
X185157D02*
D03*
X215157D02*
D03*
X205157D02*
D03*
X195157D02*
D03*
X155000Y20000D02*
D03*
X165000Y20000D02*
D03*
X195000Y20000D02*
D03*
X205000D02*
D03*
X215000D02*
D03*
X185000D02*
D03*
Y70000D02*
D03*
X215000D02*
D03*
X205000D02*
D03*
X195000D02*
D03*
D38*
X255000Y22500D02*
D03*
X265000D02*
D03*
X342500Y245000D02*
D03*
Y265000D02*
D03*
Y275000D02*
D03*
Y285000D02*
D03*
Y295000D02*
D03*
Y305000D02*
D03*
Y255000D02*
D03*
Y235000D02*
D03*
Y140000D02*
D03*
Y150000D02*
D03*
Y160000D02*
D03*
Y105000D02*
D03*
Y115000D02*
D03*
Y125000D02*
D03*
Y320000D02*
D03*
Y360000D02*
D03*
Y350000D02*
D03*
Y340000D02*
D03*
Y330000D02*
D03*
X310000Y12500D02*
D03*
X300000D02*
D03*
X290000D02*
D03*
X280000D02*
D03*
X80000Y490000D02*
D03*
X90000D02*
D03*
X50000D02*
D03*
X60000D02*
D03*
X342500Y190000D02*
D03*
Y200000D02*
D03*
Y210000D02*
D03*
Y220000D02*
D03*
Y180000D02*
D03*
X235000Y12500D02*
D03*
X245000D02*
D03*
X255000D02*
D03*
X265000D02*
D03*
X342500Y45000D02*
D03*
Y85000D02*
D03*
Y75000D02*
D03*
Y65000D02*
D03*
Y55000D02*
D03*
D39*
X120000Y485000D02*
D03*
X140000D02*
D03*
X160000D02*
D03*
X300000D02*
D03*
X320000D02*
D03*
X340000D02*
D03*
X240000D02*
D03*
X260000D02*
D03*
X280000D02*
D03*
X180000D02*
D03*
X200000D02*
D03*
X220000D02*
D03*
D40*
X185787Y181000D02*
D03*
Y165252D02*
D03*
X207835D02*
D03*
Y181000D02*
D03*
X247835D02*
D03*
Y165252D02*
D03*
X225787D02*
D03*
Y181000D02*
D03*
X265787D02*
D03*
Y165252D02*
D03*
X287835D02*
D03*
Y181000D02*
D03*
D41*
X310000Y139527D02*
D03*
Y169527D02*
D03*
Y159527D02*
D03*
Y149527D02*
D03*
Y99527D02*
D03*
Y109527D02*
D03*
Y119527D02*
D03*
Y89527D02*
D03*
D42*
X30000Y70000D02*
D03*
Y50000D02*
D03*
Y460000D02*
D03*
Y440000D02*
D03*
Y420000D02*
D03*
Y400000D02*
D03*
Y380000D02*
D03*
Y360000D02*
D03*
Y340000D02*
D03*
Y320000D02*
D03*
Y300000D02*
D03*
Y230000D02*
D03*
Y250000D02*
D03*
Y270000D02*
D03*
Y210000D02*
D03*
Y190000D02*
D03*
Y170000D02*
D03*
Y150000D02*
D03*
Y130000D02*
D03*
Y110000D02*
D03*
D43*
X127500Y150000D02*
D03*
D44*
X147500D02*
D03*
D47*
X327717Y315000D02*
D03*
X310000D02*
D03*
Y281535D02*
D03*
X327717D02*
D03*
Y370000D02*
D03*
X310000D02*
D03*
Y336535D02*
D03*
X327717D02*
D03*
D48*
X123193Y221000D02*
D03*
X116500D02*
D03*
X123193Y204000D02*
D03*
X116500D02*
D03*
X102894Y285000D02*
D03*
X109587D02*
D03*
D49*
X130000Y280000D02*
D03*
X122126D02*
D03*
Y292205D02*
D03*
X130000D02*
D03*
D50*
X128425Y280197D02*
D03*
X126850D02*
D03*
X125276D02*
D03*
X123701D02*
D03*
Y292008D02*
D03*
X125276D02*
D03*
X126850D02*
D03*
X128425D02*
D03*
D51*
X119961Y282165D02*
D03*
Y290039D02*
D03*
X132165D02*
D03*
Y282165D02*
D03*
D52*
X120157Y283740D02*
D03*
Y285315D02*
D03*
Y286890D02*
D03*
Y288465D02*
D03*
X131969D02*
D03*
Y286890D02*
D03*
Y285315D02*
D03*
Y283740D02*
D03*
D53*
X126063Y286102D02*
D03*
D54*
X290000Y375000D02*
D03*
Y391000D02*
D03*
D55*
X207500Y195000D02*
D03*
X223500D02*
D03*
D56*
X242500D02*
D03*
X252343D02*
D03*
D57*
X189449Y378937D02*
D03*
Y371063D02*
D03*
X180000Y375000D02*
D03*
X189449Y353937D02*
D03*
Y346063D02*
D03*
X180000Y350000D02*
D03*
D58*
X298839Y207500D02*
D03*
X307500D02*
D03*
X326161D02*
D03*
X317500D02*
D03*
X296161Y100000D02*
D03*
X287500D02*
D03*
Y90000D02*
D03*
X296161D02*
D03*
D59*
X320000Y228770D02*
D03*
X315000D02*
D03*
X310000D02*
D03*
X305000D02*
D03*
X320000Y250030D02*
D03*
X315000D02*
D03*
X310000D02*
D03*
X305000D02*
D03*
X152500Y201230D02*
D03*
X157500D02*
D03*
X162500D02*
D03*
X167500D02*
D03*
X152500Y179970D02*
D03*
X157500D02*
D03*
X162500D02*
D03*
X167500D02*
D03*
X180000Y135059D02*
D03*
X185000D02*
D03*
X190000D02*
D03*
X195000D02*
D03*
X200000D02*
D03*
X205000D02*
D03*
X210000D02*
D03*
X215000D02*
D03*
X180000Y107500D02*
D03*
X185000D02*
D03*
X190000D02*
D03*
X195000D02*
D03*
X200000D02*
D03*
X205000D02*
D03*
X210000D02*
D03*
X215000D02*
D03*
X232500Y135000D02*
D03*
X237500D02*
D03*
X242500D02*
D03*
X247500D02*
D03*
X252500D02*
D03*
X257500D02*
D03*
X262500D02*
D03*
X267500D02*
D03*
X232500Y107441D02*
D03*
X237500D02*
D03*
X242500D02*
D03*
X247500D02*
D03*
X252500D02*
D03*
X257500D02*
D03*
X262500D02*
D03*
X267500D02*
D03*
D60*
X257756Y231142D02*
D03*
X255787D02*
D03*
X253819D02*
D03*
X251850D02*
D03*
X249882D02*
D03*
X247913D02*
D03*
X245945D02*
D03*
X243976D02*
D03*
X242008D02*
D03*
X240039D02*
D03*
X238071D02*
D03*
X236102D02*
D03*
X234134D02*
D03*
X232165D02*
D03*
X230197D02*
D03*
X228228D02*
D03*
X226260D02*
D03*
X224291D02*
D03*
X222323D02*
D03*
X220354D02*
D03*
X218386D02*
D03*
X216417D02*
D03*
X214449D02*
D03*
X212480D02*
D03*
X210512D02*
D03*
X208543D02*
D03*
X206575D02*
D03*
X204606D02*
D03*
X202638D02*
D03*
X200669D02*
D03*
X198701D02*
D03*
X196732D02*
D03*
X194764D02*
D03*
X192795D02*
D03*
X190827D02*
D03*
X188858D02*
D03*
Y317756D02*
D03*
X190827D02*
D03*
X192795D02*
D03*
X194764D02*
D03*
X196732D02*
D03*
X198701D02*
D03*
X200669D02*
D03*
X202638D02*
D03*
X204606D02*
D03*
X206575D02*
D03*
X208543D02*
D03*
X210512D02*
D03*
X212480D02*
D03*
X214449D02*
D03*
X216417D02*
D03*
X218386D02*
D03*
X220354D02*
D03*
X222323D02*
D03*
X224291D02*
D03*
X226260D02*
D03*
X228228D02*
D03*
X230197D02*
D03*
X232165D02*
D03*
X234134D02*
D03*
X236102D02*
D03*
X238071D02*
D03*
X240039D02*
D03*
X242008D02*
D03*
X243976D02*
D03*
X245945D02*
D03*
X247913D02*
D03*
X249882D02*
D03*
X251850D02*
D03*
X253819D02*
D03*
X255787D02*
D03*
X257756D02*
D03*
X254193Y393307D02*
D03*
X252224D02*
D03*
X250256D02*
D03*
X248287D02*
D03*
X246319D02*
D03*
X244350D02*
D03*
X242382D02*
D03*
X240413D02*
D03*
X238445D02*
D03*
X236476D02*
D03*
X234508D02*
D03*
X232539D02*
D03*
Y360039D02*
D03*
X234508D02*
D03*
X236476D02*
D03*
X238445D02*
D03*
X240413D02*
D03*
X242382D02*
D03*
X244350D02*
D03*
X246319D02*
D03*
X248287D02*
D03*
X250256D02*
D03*
X252224D02*
D03*
X254193D02*
D03*
D61*
X180000Y240000D02*
D03*
Y241969D02*
D03*
Y243937D02*
D03*
Y245906D02*
D03*
Y247874D02*
D03*
Y249843D02*
D03*
Y251811D02*
D03*
Y253780D02*
D03*
Y255748D02*
D03*
Y257717D02*
D03*
Y259685D02*
D03*
Y261654D02*
D03*
Y263622D02*
D03*
Y265591D02*
D03*
Y267559D02*
D03*
Y269528D02*
D03*
Y271496D02*
D03*
Y273465D02*
D03*
Y275433D02*
D03*
Y277402D02*
D03*
Y279370D02*
D03*
Y281339D02*
D03*
Y283307D02*
D03*
Y285276D02*
D03*
Y287244D02*
D03*
Y289213D02*
D03*
Y291181D02*
D03*
Y293150D02*
D03*
Y295118D02*
D03*
Y297087D02*
D03*
Y299055D02*
D03*
Y301024D02*
D03*
Y302992D02*
D03*
Y304961D02*
D03*
Y306929D02*
D03*
Y308898D02*
D03*
X266614D02*
D03*
Y306929D02*
D03*
Y304961D02*
D03*
Y302992D02*
D03*
Y301024D02*
D03*
Y299055D02*
D03*
Y297087D02*
D03*
Y295118D02*
D03*
Y293150D02*
D03*
Y291181D02*
D03*
Y289213D02*
D03*
Y287244D02*
D03*
Y285276D02*
D03*
Y283307D02*
D03*
Y281339D02*
D03*
Y279370D02*
D03*
Y277402D02*
D03*
Y275433D02*
D03*
Y273465D02*
D03*
Y271496D02*
D03*
Y269528D02*
D03*
Y267559D02*
D03*
Y265591D02*
D03*
Y263622D02*
D03*
Y261654D02*
D03*
Y259685D02*
D03*
Y257717D02*
D03*
Y255748D02*
D03*
Y253780D02*
D03*
Y251811D02*
D03*
Y249843D02*
D03*
Y247874D02*
D03*
Y245906D02*
D03*
Y243937D02*
D03*
Y241969D02*
D03*
Y240000D02*
D03*
X226732Y387500D02*
D03*
Y385532D02*
D03*
Y383563D02*
D03*
Y381594D02*
D03*
Y379626D02*
D03*
Y377657D02*
D03*
Y375689D02*
D03*
Y373720D02*
D03*
Y371752D02*
D03*
Y369783D02*
D03*
Y367815D02*
D03*
Y365846D02*
D03*
X260000D02*
D03*
Y367815D02*
D03*
Y369783D02*
D03*
Y371752D02*
D03*
Y373720D02*
D03*
Y375689D02*
D03*
Y377657D02*
D03*
Y379626D02*
D03*
Y381594D02*
D03*
Y383563D02*
D03*
Y385532D02*
D03*
Y387500D02*
D03*
D62*
X145000Y167500D02*
D03*
Y160807D02*
D03*
X157500D02*
D03*
Y167500D02*
D03*
X170000D02*
D03*
Y160807D02*
D03*
D63*
X132500Y127500D02*
D03*
Y58996D02*
D03*
D64*
X270700Y372500D02*
D03*
X275000D02*
D03*
X270700Y395000D02*
D03*
X275000D02*
D03*
X203456Y206142D02*
D03*
X207756D02*
D03*
X224000Y206000D02*
D03*
X228300D02*
D03*
X236200D02*
D03*
X240500D02*
D03*
X254800D02*
D03*
X250500D02*
D03*
D65*
X260000Y332500D02*
D03*
X271811D02*
D03*
D66*
X165000Y307500D02*
D03*
Y319311D02*
D03*
%TF.MD5,31a3b8284f6dd940d6746719e13d4395*%
M02*
