%TF.GenerationSoftware,Altium Limited,Altium Designer,21.2.1 (34)*%
G04 Layer_Color=26472*
%FSLAX25Y25*%
%MOIN*%
%TF.SameCoordinates,3D92BD4A-1653-4209-B07E-4AD3ED082CDC*%
%TF.FilePolarity,Positive*%
%TF.FileFunction,Legend,Bot*%
%TF.Part,Single*%
G01*
G75*
%TA.AperFunction,NonConductor*%
%ADD70C,0.00787*%
%ADD71C,0.00984*%
%ADD72C,0.01000*%
%ADD73C,0.00600*%
%ADD74C,0.00591*%
%ADD75C,0.00800*%
%ADD76C,0.00799*%
%ADD77C,0.00709*%
%ADD78C,0.01968*%
%ADD79C,0.01181*%
%ADD80C,0.01575*%
G36*
X218169Y113996D02*
X214217Y113996D01*
X218169Y117949D01*
X218169Y113996D01*
D02*
G37*
G36*
X229331Y128504D02*
X233283Y128504D01*
X229331Y124551D01*
X229331Y128504D01*
D02*
G37*
G36*
X169843Y185600D02*
X167100Y185600D01*
X169843Y188342D01*
X169843Y185600D01*
D02*
G37*
G36*
X302658Y244400D02*
X305400Y244400D01*
X302658Y241657D01*
X302658Y244400D01*
D02*
G37*
G36*
X255571Y388878D02*
X255571Y386169D01*
X252861Y388878D01*
X255571Y388878D01*
D02*
G37*
D70*
X350394Y393701D02*
G03*
X350394Y393701I-15748J0D01*
G01*
X350394Y19685D02*
G03*
X350394Y19685I-15748J0D01*
G01*
X35433Y492126D02*
G03*
X35433Y492126I-15748J0D01*
G01*
Y19685D02*
G03*
X35433Y19685I-15748J0D01*
G01*
X131969Y279409D02*
X132756D01*
Y280197D01*
Y292008D02*
Y292795D01*
X131969D02*
X132756D01*
X119370D02*
X120157D01*
X119370Y292008D02*
Y292795D01*
Y279409D02*
X120157D01*
X119370D02*
Y280197D01*
X294500Y380500D02*
Y385500D01*
X287000D02*
X293000D01*
Y380500D02*
Y385500D01*
X287000Y380500D02*
X293000D01*
X287000D02*
Y385500D01*
X285500Y380500D02*
Y385500D01*
X213000Y190500D02*
X218000D01*
Y192000D02*
Y198000D01*
X213000Y192000D02*
X218000D01*
X213000D02*
Y198000D01*
X218000D01*
X213000Y199500D02*
X218000D01*
X301300Y177200D02*
X308700D01*
X301300D02*
Y192300D01*
X308700D01*
Y177200D02*
Y192300D01*
X316300Y177200D02*
X323700D01*
X316300D02*
Y192300D01*
X323700D01*
Y177200D02*
Y192300D01*
X283200Y106300D02*
X298300D01*
Y113700D01*
X283200D02*
X298300D01*
X283200Y106300D02*
Y113700D01*
Y116300D02*
X298300D01*
Y123700D01*
X283200D02*
X298300D01*
X283200Y116300D02*
Y123700D01*
X193200Y28800D02*
Y36200D01*
X208300D01*
Y28800D02*
Y36200D01*
X193200Y28800D02*
X208300D01*
X193200Y3800D02*
Y11200D01*
X208300D01*
Y3800D02*
Y11200D01*
X193200Y3800D02*
X208300D01*
X153200D02*
Y11200D01*
X168300D01*
Y3800D02*
Y11200D01*
X153200Y3800D02*
X168300D01*
X193200Y53800D02*
Y61200D01*
X208300D01*
Y53800D02*
Y61200D01*
X193200Y53800D02*
X208300D01*
X264700Y334500D02*
Y331876D01*
X266012Y330564D01*
X267324Y331876D01*
Y334500D01*
Y332532D01*
X264700D01*
X163000Y312200D02*
X165624D01*
X166936Y313512D01*
X165624Y314824D01*
X163000D01*
X164968D01*
Y312200D01*
X110624Y222312D02*
X111280Y222968D01*
X112592D01*
X113248Y222312D01*
Y221656D01*
X112592Y221000D01*
X111280D01*
X110624Y220344D01*
Y219688D01*
X111280Y219032D01*
X112592D01*
X113248Y219688D01*
X109312Y222968D02*
Y219032D01*
X107344D01*
X106688Y219688D01*
Y220344D01*
X107344Y221000D01*
X109312D01*
X107344D01*
X106688Y221656D01*
Y222312D01*
X107344Y222968D01*
X109312D01*
X102752D02*
X105376D01*
Y221000D01*
X104064Y221656D01*
X103408D01*
X102752Y221000D01*
Y219688D01*
X103408Y219032D01*
X104720D01*
X105376Y219688D01*
X110624Y205312D02*
X111280Y205968D01*
X112592D01*
X113248Y205312D01*
Y204656D01*
X112592Y204000D01*
X111280D01*
X110624Y203344D01*
Y202688D01*
X111280Y202032D01*
X112592D01*
X113248Y202688D01*
X109312Y205968D02*
Y202032D01*
X107344D01*
X106688Y202688D01*
Y203344D01*
X107344Y204000D01*
X109312D01*
X107344D01*
X106688Y204656D01*
Y205312D01*
X107344Y205968D01*
X109312D01*
X103408Y202032D02*
Y205968D01*
X105376Y204000D01*
X102752D01*
X125780Y276968D02*
Y273688D01*
X125124Y273032D01*
X123812D01*
X123156Y273688D01*
Y276968D01*
X119876Y273032D02*
Y276968D01*
X121844Y275000D01*
X119220D01*
X95966Y286312D02*
X96622Y286968D01*
X97934D01*
X98590Y286312D01*
Y285656D01*
X97934Y285000D01*
X96622D01*
X95966Y284344D01*
Y283688D01*
X96622Y283032D01*
X97934D01*
X98590Y283688D01*
X94654Y286968D02*
Y283032D01*
X92687D01*
X92031Y283688D01*
Y284344D01*
X92687Y285000D01*
X94654D01*
X92687D01*
X92031Y285656D01*
Y286312D01*
X92687Y286968D01*
X94654D01*
X88095D02*
X89407Y286312D01*
X90719Y285000D01*
Y283688D01*
X90063Y283032D01*
X88751D01*
X88095Y283688D01*
Y284344D01*
X88751Y285000D01*
X90719D01*
X98092Y273032D02*
Y276968D01*
X96124D01*
X95468Y276312D01*
Y275000D01*
X96124Y274344D01*
X98092D01*
X96780D02*
X95468Y273032D01*
X92188D02*
Y276968D01*
X94156Y275000D01*
X91532D01*
X90220Y273032D02*
X88908D01*
X89564D01*
Y276968D01*
X90220Y276312D01*
X144468Y286748D02*
X140532D01*
Y284780D01*
X141188Y284124D01*
X142500D01*
X143156Y284780D01*
Y286748D01*
Y285436D02*
X144468Y284124D01*
X141188Y282812D02*
X140532Y282156D01*
Y280844D01*
X141188Y280188D01*
X141844D01*
X142500Y280844D01*
Y281500D01*
Y280844D01*
X143156Y280188D01*
X143812D01*
X144468Y280844D01*
Y282156D01*
X143812Y282812D01*
X141188Y278876D02*
X140532Y278220D01*
Y276908D01*
X141188Y276252D01*
X141844D01*
X142500Y276908D01*
X143156Y276252D01*
X143812D01*
X144468Y276908D01*
Y278220D01*
X143812Y278876D01*
X143156D01*
X142500Y278220D01*
X141844Y278876D01*
X141188D01*
X142500Y278220D02*
Y276908D01*
X154468Y286748D02*
X150532D01*
Y284780D01*
X151188Y284124D01*
X152500D01*
X153156Y284780D01*
Y286748D01*
Y285436D02*
X154468Y284124D01*
X151188Y282812D02*
X150532Y282156D01*
Y280844D01*
X151188Y280188D01*
X151844D01*
X152500Y280844D01*
Y281500D01*
Y280844D01*
X153156Y280188D01*
X153812D01*
X154468Y280844D01*
Y282156D01*
X153812Y282812D01*
X150532Y278876D02*
Y276252D01*
X151188D01*
X153812Y278876D01*
X154468D01*
X95624Y296312D02*
X96280Y296968D01*
X97592D01*
X98248Y296312D01*
Y293688D01*
X97592Y293032D01*
X96280D01*
X95624Y293688D01*
X91688Y293032D02*
X94312D01*
X91688Y295656D01*
Y296312D01*
X92344Y296968D01*
X93656D01*
X94312Y296312D01*
X90376Y296968D02*
X87752D01*
Y296312D01*
X90376Y293688D01*
Y293032D01*
X115624Y313812D02*
X116280Y314468D01*
X117592D01*
X118248Y313812D01*
Y311188D01*
X117592Y310532D01*
X116280D01*
X115624Y311188D01*
X111688Y310532D02*
X114312D01*
X111688Y313156D01*
Y313812D01*
X112344Y314468D01*
X113656D01*
X114312Y313812D01*
X107752Y314468D02*
X109064Y313812D01*
X110376Y312500D01*
Y311188D01*
X109720Y310532D01*
X108408D01*
X107752Y311188D01*
Y311844D01*
X108408Y312500D01*
X110376D01*
X115796Y303812D02*
X116452Y304468D01*
X117764D01*
X118420Y303812D01*
Y301188D01*
X117764Y300532D01*
X116452D01*
X115796Y301188D01*
X114484Y300532D02*
X113172D01*
X113828D01*
Y304468D01*
X114484Y303812D01*
X111204Y304468D02*
X108580D01*
Y303812D01*
X111204Y301188D01*
Y300532D01*
D71*
X131968Y277244D02*
G03*
X131968Y277244I-394J0D01*
G01*
X297594Y210500D02*
G03*
X297594Y210500I-394J0D01*
G01*
X328194Y204500D02*
G03*
X328194Y204500I-394J0D01*
G01*
X286255Y103000D02*
G03*
X286255Y103000I-394J0D01*
G01*
Y93000D02*
G03*
X286255Y93000I-394J0D01*
G01*
X301894Y250000D02*
G03*
X301894Y250000I-394J0D01*
G01*
X261650Y231142D02*
G03*
X261650Y231142I-394J0D01*
G01*
X171394Y180000D02*
G03*
X171394Y180000I-394J0D01*
G01*
X218894Y107530D02*
G03*
X218894Y107530I-394J0D01*
G01*
X229394Y134970D02*
G03*
X229394Y134970I-394J0D01*
G01*
X260394Y391000D02*
G03*
X260394Y391000I-394J0D01*
G01*
X320652Y287035D02*
X316717D01*
Y289003D01*
X317372Y289659D01*
X318028D01*
X318684Y289003D01*
Y287035D01*
Y289003D01*
X319340Y289659D01*
X319996D01*
X320652Y289003D01*
Y287035D01*
Y290971D02*
X317372D01*
X316717Y291627D01*
Y292939D01*
X317372Y293595D01*
X320652D01*
Y294907D02*
Y297531D01*
Y296219D01*
X316717D01*
X320652Y301466D02*
X319996Y300155D01*
X318684Y298843D01*
X317372D01*
X316717Y299499D01*
Y300811D01*
X317372Y301466D01*
X318028D01*
X318684Y300811D01*
Y298843D01*
X319340Y302778D02*
X316717Y305402D01*
X318028Y304090D01*
X319340Y305402D01*
X316717Y302778D01*
X320652Y309338D02*
X319996Y308026D01*
X318684Y306714D01*
X317372D01*
X316717Y307370D01*
Y308682D01*
X317372Y309338D01*
X318028D01*
X318684Y308682D01*
Y306714D01*
X320652Y342035D02*
X316717D01*
Y344003D01*
X317372Y344659D01*
X318028D01*
X318684Y344003D01*
Y342035D01*
Y344003D01*
X319340Y344659D01*
X319996D01*
X320652Y344003D01*
Y342035D01*
Y345971D02*
X317372D01*
X316717Y346627D01*
Y347939D01*
X317372Y348595D01*
X320652D01*
Y349907D02*
Y352531D01*
Y351219D01*
X316717D01*
X320652Y356467D02*
X319996Y355155D01*
X318684Y353843D01*
X317372D01*
X316717Y354499D01*
Y355810D01*
X317372Y356467D01*
X318028D01*
X318684Y355810D01*
Y353843D01*
X319340Y357778D02*
X316717Y360402D01*
X318028Y359090D01*
X319340Y360402D01*
X316717Y357778D01*
X320652Y364338D02*
X319996Y363026D01*
X318684Y361714D01*
X317372D01*
X316717Y362370D01*
Y363682D01*
X317372Y364338D01*
X318028D01*
X318684Y363682D01*
Y361714D01*
D72*
X125199Y122453D02*
G03*
X125199Y64043I7301J-29205D01*
G01*
X139801D02*
G03*
X139801Y122453I-7301J29205D01*
G01*
X331654Y283504D02*
Y313031D01*
X313937D02*
X323780D01*
X306063Y283504D02*
Y313031D01*
X313937Y283504D02*
X323780D01*
X322343Y234400D02*
Y244400D01*
X302657Y234400D02*
Y244400D01*
Y234400D02*
X322343D01*
X302657Y244400D02*
X322343D01*
X302657Y243000D02*
Y243057D01*
Y241000D02*
Y242057D01*
X185512Y236654D02*
X261102D01*
X185512Y312244D02*
X261102D01*
Y236654D02*
Y312244D01*
X185512Y236654D02*
Y312244D01*
X150157Y185600D02*
Y195600D01*
X169843Y185600D02*
Y195600D01*
X150157D02*
X169843D01*
X150157Y185600D02*
X169843D01*
Y186943D02*
Y187000D01*
Y187943D02*
Y189000D01*
X331654Y338504D02*
Y368031D01*
X313937D02*
X323780D01*
X306063Y338504D02*
Y368031D01*
X313937Y338504D02*
X323780D01*
X176831Y113996D02*
Y128563D01*
X218169Y113996D02*
Y128563D01*
X176831D02*
X218169D01*
X176831Y113996D02*
X218169D01*
X229331Y128504D02*
X270669D01*
X229331Y113937D02*
X270669D01*
X229331D02*
Y128504D01*
X270669Y113937D02*
Y128504D01*
X128500Y110248D02*
X136500D01*
X132500Y72248D02*
Y80248D01*
Y106248D02*
Y114248D01*
D73*
X118075Y217850D02*
X124374D01*
X115319Y224150D02*
X121618D01*
X118075Y200850D02*
X124374D01*
X115319Y207150D02*
X121618D01*
X101713Y288150D02*
X108012D01*
X104469Y281850D02*
X110768D01*
X181909Y380906D02*
X185846D01*
X181909Y378056D02*
Y380906D01*
Y369094D02*
X185846D01*
X181909D02*
Y371944D01*
X181909Y355905D02*
X185846D01*
X181909Y353056D02*
Y355905D01*
Y344094D02*
X185846D01*
X181909D02*
Y346944D01*
X148150Y162382D02*
Y168681D01*
X141850Y159626D02*
Y165925D01*
X154350Y159626D02*
Y165925D01*
X160650Y162382D02*
Y168681D01*
X173150Y162382D02*
Y168681D01*
X166850Y159626D02*
Y165925D01*
D74*
X100039Y277800D02*
X111594D01*
X100039Y272200D02*
Y277800D01*
Y272200D02*
X111594D01*
Y277800D01*
X145300Y288406D02*
Y299961D01*
X139700D02*
X145300D01*
X139700Y288406D02*
Y299961D01*
Y288406D02*
X145300D01*
X155300D02*
Y299961D01*
X149700D02*
X155300D01*
X149700Y288406D02*
Y299961D01*
Y288406D02*
X155300D01*
X100000Y292200D02*
Y297800D01*
X111555D01*
Y292200D02*
Y297800D01*
X100000Y292200D02*
X111555D01*
X131594Y309700D02*
Y315300D01*
X120039Y309700D02*
X131594D01*
X120039D02*
Y315300D01*
X131594D01*
Y299700D02*
Y305300D01*
X120039Y299700D02*
X131594D01*
X120039D02*
Y305300D01*
X131594D01*
X144094Y219700D02*
Y225300D01*
X132539Y219700D02*
X144094D01*
X132539D02*
Y225300D01*
X144094D01*
X72799Y32510D02*
Y44065D01*
X67199D02*
X72799D01*
X67199Y32510D02*
Y44065D01*
Y32510D02*
X72799D01*
X268406Y379700D02*
Y385300D01*
X279961D01*
Y379700D02*
Y385300D01*
X268406Y379700D02*
X279961D01*
X82801Y32510D02*
Y44065D01*
X77201D02*
X82801D01*
X77201Y32510D02*
Y44065D01*
Y32510D02*
X82801D01*
X314095Y384700D02*
Y390300D01*
X302539Y384700D02*
X314095D01*
X302539D02*
Y390300D01*
X314095D01*
X297201Y337510D02*
X302801D01*
X297201D02*
Y349065D01*
X302801D01*
Y337510D02*
Y349065D01*
X298406Y214700D02*
X309961D01*
Y220300D01*
X298406D02*
X309961D01*
X298406Y214700D02*
Y220300D01*
X315039D02*
X326594D01*
X315039Y214700D02*
Y220300D01*
Y214700D02*
X326594D01*
Y220300D01*
X309699Y260935D02*
Y272490D01*
Y260935D02*
X315299D01*
Y272490D01*
X309699D02*
X315299D01*
X233406Y403200D02*
X244961D01*
Y408800D01*
X233406D02*
X244961D01*
X233406Y403200D02*
Y408800D01*
X307039Y201800D02*
X318594D01*
X307039Y196200D02*
Y201800D01*
Y196200D02*
X318594D01*
Y201800D01*
X292199Y243435D02*
Y254990D01*
Y243435D02*
X297799D01*
Y254990D01*
X292199D02*
X297799D01*
X327199Y243435D02*
Y254990D01*
Y243435D02*
X332799D01*
Y254990D01*
X327199D02*
X332799D01*
X122799Y32510D02*
Y44065D01*
X117199D02*
X122799D01*
X117199Y32510D02*
Y44065D01*
Y32510D02*
X122799D01*
X132799D02*
Y44065D01*
X127199D02*
X132799D01*
X127199Y32510D02*
Y44065D01*
Y32510D02*
X132799D01*
X320906Y322700D02*
Y328300D01*
X332461D01*
Y322700D02*
Y328300D01*
X320906Y322700D02*
X332461D01*
X144094Y209700D02*
Y215300D01*
X132539Y209700D02*
X144094D01*
X132539D02*
Y215300D01*
X144094D01*
X213200Y215094D02*
X218800D01*
Y203539D02*
Y215094D01*
X213200Y203539D02*
X218800D01*
X213200D02*
Y215094D01*
X115000Y209700D02*
Y215300D01*
X126555D01*
Y209700D02*
Y215300D01*
X115000Y209700D02*
X126555D01*
X171594Y372200D02*
Y377800D01*
X160039Y372200D02*
X171594D01*
X160039D02*
Y377800D01*
X171594D01*
X197200Y369406D02*
X202800D01*
X197200D02*
Y380961D01*
X202800D01*
Y369406D02*
Y380961D01*
X171594Y347200D02*
Y352800D01*
X160039Y347200D02*
X171594D01*
X160039D02*
Y352800D01*
X171594D01*
X197200Y344406D02*
X202800D01*
X197200D02*
Y355961D01*
X202800D01*
Y344406D02*
Y355961D01*
X302800Y285000D02*
Y296555D01*
X297200D02*
X302800D01*
X297200Y285000D02*
Y296555D01*
Y285000D02*
X302800D01*
X286594Y248200D02*
Y253800D01*
X275039Y248200D02*
X286594D01*
X275039D02*
Y253800D01*
X286594D01*
X177199Y97490D02*
X182799D01*
Y85935D02*
Y97490D01*
X177199Y85935D02*
X182799D01*
X177199D02*
Y97490D01*
X177200Y154095D02*
X182800D01*
Y142539D02*
Y154095D01*
X177200Y142539D02*
X182800D01*
X177200D02*
Y154095D01*
X317500Y27200D02*
Y32800D01*
X305945Y27200D02*
X317500D01*
X305945D02*
Y32800D01*
X317500D01*
X264700Y154094D02*
X270300D01*
Y142539D02*
Y154094D01*
X264700Y142539D02*
X270300D01*
X264700D02*
Y154094D01*
X187199Y97490D02*
X192799D01*
Y85935D02*
Y97490D01*
X187199Y85935D02*
X192799D01*
X187199D02*
Y97490D01*
X187200Y154095D02*
X192800D01*
Y142539D02*
Y154095D01*
X187200Y142539D02*
X192800D01*
X187200D02*
Y154095D01*
X297490Y27201D02*
Y32801D01*
X285935Y27201D02*
X297490D01*
X285935D02*
Y32801D01*
X297490D01*
X254700Y154094D02*
X260300D01*
Y142539D02*
Y154094D01*
X254700Y142539D02*
X260300D01*
X254700D02*
Y154094D01*
X197199Y97490D02*
X202799D01*
Y85935D02*
Y97490D01*
X197199Y85935D02*
X202799D01*
X197199D02*
Y97490D01*
X197200Y154095D02*
X202800D01*
Y142539D02*
Y154095D01*
X197200Y142539D02*
X202800D01*
X197200D02*
Y154095D01*
X272199Y47490D02*
X277799D01*
Y35935D02*
Y47490D01*
X272199Y35935D02*
X277799D01*
X272199D02*
Y47490D01*
X244700Y154094D02*
X250300D01*
Y142539D02*
Y154094D01*
X244700Y142539D02*
X250300D01*
X244700D02*
Y154094D01*
X207200Y97500D02*
X212800D01*
Y85945D02*
Y97500D01*
X207200Y85945D02*
X212800D01*
X207200D02*
Y97500D01*
Y154095D02*
X212800D01*
Y142539D02*
Y154095D01*
X207200Y142539D02*
X212800D01*
X207200D02*
Y154095D01*
X272199Y72490D02*
X277799D01*
Y60935D02*
Y72490D01*
X272199Y60935D02*
X277799D01*
X272199D02*
Y72490D01*
X234700Y154094D02*
X240300D01*
Y142539D02*
Y154094D01*
X234700Y142539D02*
X240300D01*
X234700D02*
Y154094D01*
X160000Y209700D02*
X171555D01*
Y215300D01*
X160000D02*
X171555D01*
X160000Y209700D02*
Y215300D01*
X132539Y200300D02*
X144094D01*
X132539Y194700D02*
Y200300D01*
Y194700D02*
X144094D01*
Y200300D01*
Y184700D02*
Y190300D01*
X132539Y184700D02*
X144094D01*
X132539D02*
Y190300D01*
X144094D01*
Y174700D02*
Y180300D01*
X132539Y174700D02*
X144094D01*
X132539D02*
Y180300D01*
X144094D01*
X268800Y374600D02*
X276900D01*
X268800Y370400D02*
Y374600D01*
Y370400D02*
X276900D01*
Y374600D01*
X292200Y223406D02*
X297800D01*
X292200D02*
Y234961D01*
X297800D01*
Y223406D02*
Y234961D01*
X264594Y403200D02*
Y408800D01*
X253039Y403200D02*
X264594D01*
X253039D02*
Y408800D01*
X264594D01*
X236594Y346200D02*
Y351800D01*
X225039Y346200D02*
X236594D01*
X225039D02*
Y351800D01*
X236594D01*
X212200Y383406D02*
X217800D01*
X212200D02*
Y394961D01*
X217800D01*
Y383406D02*
Y394961D01*
X268800Y397100D02*
X276900D01*
X268800Y392900D02*
Y397100D01*
Y392900D02*
X276900D01*
Y397100D01*
X287200Y349094D02*
X292800D01*
Y337539D02*
Y349094D01*
X287200Y337539D02*
X292800D01*
X287200D02*
Y349094D01*
X190945Y175800D02*
X202500D01*
X190945Y170200D02*
Y175800D01*
Y170200D02*
X202500D01*
Y175800D01*
X195906Y218200D02*
Y223800D01*
X207461D01*
Y218200D02*
Y223800D01*
X195906Y218200D02*
X207461D01*
X237094D02*
Y223800D01*
X225539Y218200D02*
X237094D01*
X225539D02*
Y223800D01*
X237094D01*
X174700Y193406D02*
X180300D01*
X174700D02*
Y204961D01*
X180300D01*
Y193406D02*
Y204961D01*
X274700Y230906D02*
X280300D01*
X274700D02*
Y242461D01*
X280300D01*
Y230906D02*
Y242461D01*
X287094Y261700D02*
Y267300D01*
X275539Y261700D02*
X287094D01*
X275539D02*
Y267300D01*
X287094D01*
X274700Y291594D02*
X280300D01*
Y280039D02*
Y291594D01*
X274700Y280039D02*
X280300D01*
X274700D02*
Y291594D01*
X274094Y317200D02*
Y322800D01*
X262539Y317200D02*
X274094D01*
X262539D02*
Y322800D01*
X274094D01*
X224406Y327200D02*
Y332800D01*
X235961D01*
Y327200D02*
Y332800D01*
X224406Y327200D02*
X235961D01*
X167200Y260906D02*
X172800D01*
X167200D02*
Y272461D01*
X172800D01*
Y260906D02*
Y272461D01*
X167200Y233406D02*
X172800D01*
X167200D02*
Y244961D01*
X172800D01*
Y233406D02*
Y244961D01*
X203406Y327200D02*
Y332800D01*
X214961D01*
Y327200D02*
Y332800D01*
X203406Y327200D02*
X214961D01*
X172500Y317200D02*
Y322800D01*
X184055D01*
Y317200D02*
Y322800D01*
X172500Y317200D02*
X184055D01*
X167200Y283406D02*
X172800D01*
X167200D02*
Y294961D01*
X172800D01*
Y283406D02*
Y294961D01*
X230945Y175800D02*
X242500D01*
X230945Y170200D02*
Y175800D01*
Y170200D02*
X242500D01*
Y175800D01*
X270945D02*
X282500D01*
X270945Y170200D02*
Y175800D01*
Y170200D02*
X282500D01*
Y175800D01*
X201556Y208242D02*
X209656D01*
X201556Y204042D02*
Y208242D01*
Y204042D02*
X209656D01*
Y208242D01*
X222100Y203900D02*
Y208100D01*
X230200D01*
Y203900D02*
Y208100D01*
X222100Y203900D02*
X230200D01*
X234300Y208100D02*
X242400D01*
X234300Y203900D02*
Y208100D01*
Y203900D02*
X242400D01*
Y208100D01*
X120000Y127200D02*
Y132800D01*
X108445Y127200D02*
X120000D01*
X108445D02*
Y132800D01*
X120000D01*
X248600Y203900D02*
X256700D01*
Y208100D01*
X248600D02*
X256700D01*
X248600Y203900D02*
Y208100D01*
X287200Y285039D02*
Y296594D01*
Y285039D02*
X292800D01*
Y296594D01*
X287200D02*
X292800D01*
D75*
X245650Y198150D02*
X249193D01*
X245650Y191850D02*
X249193D01*
Y193425D02*
Y196575D01*
X245650D02*
X249193D01*
X245650Y193425D02*
X249193D01*
X245650D02*
Y196575D01*
D76*
X299626Y204744D02*
Y205526D01*
X306713Y204744D02*
Y205526D01*
X299626Y209474D02*
Y210256D01*
X306713Y209474D02*
Y210256D01*
X299626Y204744D02*
X306713D01*
X299626Y210256D02*
X306713D01*
X301594Y204744D02*
Y210256D01*
X301988Y204744D02*
Y210256D01*
X325374Y209474D02*
Y210256D01*
X318287Y209474D02*
Y210256D01*
X325374Y204744D02*
Y205526D01*
X318287Y204744D02*
Y205526D01*
Y210256D02*
X325374D01*
X318287Y204744D02*
X325374D01*
X323406D02*
Y210256D01*
X323012Y204744D02*
Y210256D01*
X290650Y97244D02*
Y102756D01*
X290256Y97244D02*
Y102756D01*
X288287D02*
X295374D01*
X288287Y97244D02*
X295374D01*
Y101974D02*
Y102756D01*
X288287Y101974D02*
Y102756D01*
X295374Y97244D02*
Y98026D01*
X288287Y97244D02*
Y98026D01*
Y87244D02*
Y88026D01*
X295374Y87244D02*
Y88026D01*
X288287Y91974D02*
Y92756D01*
X295374Y91974D02*
Y92756D01*
X288287Y87244D02*
X295374D01*
X288287Y92756D02*
X295374D01*
X290256Y87244D02*
Y92756D01*
X290650Y87244D02*
Y92756D01*
X231161Y364469D02*
X255571D01*
X231161Y388878D02*
X255571D01*
X231161Y364469D02*
Y388878D01*
X255571Y364469D02*
Y388878D01*
X275354Y328366D02*
Y329941D01*
Y336634D01*
X256457D02*
X275354D01*
X256457Y328366D02*
Y336634D01*
Y328366D02*
X258031D01*
X261968D02*
X275354D01*
X167559Y322854D02*
X169134D01*
X160866D02*
X167559D01*
X160866Y303957D02*
Y322854D01*
Y303957D02*
X169134D01*
Y305532D01*
Y309469D02*
Y322854D01*
D77*
X253157Y378424D02*
Y374882D01*
X250796D01*
X247254Y375472D02*
Y377834D01*
X247844Y378424D01*
X249025D01*
X249615Y377834D01*
Y375472D01*
X249025Y374882D01*
X247844D01*
X248435Y376063D02*
X247254Y374882D01*
X247844D02*
X247254Y375472D01*
X243712Y378424D02*
X246073D01*
Y376653D01*
X244892D01*
X246073D01*
Y374882D01*
X242531D02*
Y378424D01*
X240760D01*
X240170Y377834D01*
Y376653D01*
X240760Y376063D01*
X242531D01*
X237218Y374882D02*
Y378424D01*
X238989Y376653D01*
X236627D01*
X235447Y377834D02*
X234856Y378424D01*
X233676D01*
X233085Y377834D01*
Y377243D01*
X233676Y376653D01*
X233085Y376063D01*
Y375472D01*
X233676Y374882D01*
X234856D01*
X235447Y375472D01*
Y376063D01*
X234856Y376653D01*
X235447Y377243D01*
Y377834D01*
X234856Y376653D02*
X233676D01*
X318139Y240452D02*
X318729Y241042D01*
X319910D01*
X320500Y240452D01*
Y239861D01*
X319910Y239271D01*
X318729D01*
X318139Y238681D01*
Y238090D01*
X318729Y237500D01*
X319910D01*
X320500Y238090D01*
X315187Y241042D02*
X316368D01*
X316958Y240452D01*
Y238090D01*
X316368Y237500D01*
X315187D01*
X314596Y238090D01*
Y240452D01*
X315187Y241042D01*
X313416D02*
X312235D01*
X312825D01*
Y237500D01*
X313416D01*
X312235D01*
X308102Y240452D02*
X308693Y241042D01*
X309874D01*
X310464Y240452D01*
Y238090D01*
X309874Y237500D01*
X308693D01*
X308102Y238090D01*
X306922Y240452D02*
X306331Y241042D01*
X305151D01*
X304560Y240452D01*
Y239861D01*
X305151Y239271D01*
X304560Y238681D01*
Y238090D01*
X305151Y237500D01*
X306331D01*
X306922Y238090D01*
Y238681D01*
X306331Y239271D01*
X306922Y239861D01*
Y240452D01*
X306331Y239271D02*
X305151D01*
X154361Y189548D02*
X153771Y188958D01*
X152590D01*
X152000Y189548D01*
Y190139D01*
X152590Y190729D01*
X153771D01*
X154361Y191319D01*
Y191910D01*
X153771Y192500D01*
X152590D01*
X152000Y191910D01*
X157313Y188958D02*
X156132D01*
X155542Y189548D01*
Y191910D01*
X156132Y192500D01*
X157313D01*
X157904Y191910D01*
Y189548D01*
X157313Y188958D01*
X159084D02*
X160265D01*
X159675D01*
Y192500D01*
X159084D01*
X160265D01*
X164398Y189548D02*
X163807Y188958D01*
X162627D01*
X162036Y189548D01*
Y191910D01*
X162627Y192500D01*
X163807D01*
X164398Y191910D01*
X165578Y189548D02*
X166169Y188958D01*
X167349D01*
X167940Y189548D01*
Y190139D01*
X167349Y190729D01*
X167940Y191319D01*
Y191910D01*
X167349Y192500D01*
X166169D01*
X165578Y191910D01*
Y191319D01*
X166169Y190729D01*
X165578Y190139D01*
Y189548D01*
X166169Y190729D02*
X167349D01*
X141566Y230181D02*
X142157Y230771D01*
X143337D01*
X143928Y230181D01*
Y227819D01*
X143337Y227229D01*
X142157D01*
X141566Y227819D01*
X140385Y227229D02*
X139205D01*
X139795D01*
Y230771D01*
X140385Y230181D01*
X137434D02*
X136843Y230771D01*
X135663D01*
X135072Y230181D01*
Y229590D01*
X135663Y229000D01*
X136253D01*
X135663D01*
X135072Y228410D01*
Y227819D01*
X135663Y227229D01*
X136843D01*
X137434Y227819D01*
X294723Y401771D02*
X292361D01*
Y401181D01*
X294723Y398819D01*
Y398229D01*
X292361D01*
X288819Y398819D02*
Y401181D01*
X289410Y401771D01*
X290590D01*
X291181Y401181D01*
Y398819D01*
X290590Y398229D01*
X289410D01*
X290000Y399410D02*
X288819Y398229D01*
X289410D02*
X288819Y398819D01*
X287639Y401181D02*
X287048Y401771D01*
X285868D01*
X285277Y401181D01*
Y400590D01*
X285868Y400000D01*
X286458D01*
X285868D01*
X285277Y399410D01*
Y398819D01*
X285868Y398229D01*
X287048D01*
X287639Y398819D01*
X197229Y199723D02*
Y197361D01*
X197819D01*
X200181Y199723D01*
X200771D01*
Y197361D01*
X200181Y193819D02*
X197819D01*
X197229Y194410D01*
Y195590D01*
X197819Y196181D01*
X200181D01*
X200771Y195590D01*
Y194410D01*
X199590Y195000D02*
X200771Y193819D01*
Y194410D02*
X200181Y193819D01*
X200771Y190277D02*
Y192639D01*
X198410Y190277D01*
X197819D01*
X197229Y190867D01*
Y192048D01*
X197819Y192639D01*
X234229Y199133D02*
Y196771D01*
X234819D01*
X237181Y199133D01*
X237771D01*
Y196771D01*
X237181Y193229D02*
X234819D01*
X234229Y193819D01*
Y195000D01*
X234819Y195590D01*
X237181D01*
X237771Y195000D01*
Y193819D01*
X236590Y194410D02*
X237771Y193229D01*
Y193819D02*
X237181Y193229D01*
X237771Y192048D02*
Y190867D01*
Y191458D01*
X234229D01*
X234819Y192048D01*
X189723Y386271D02*
Y383910D01*
X188542Y382729D01*
X187361Y383910D01*
Y386271D01*
X186181D02*
X183819D01*
X185000D01*
Y382729D01*
X180277D02*
X182639D01*
X180277Y385090D01*
Y385681D01*
X180868Y386271D01*
X182048D01*
X182639Y385681D01*
X189528Y361272D02*
Y358910D01*
X188347Y357730D01*
X187167Y358910D01*
Y361272D01*
X185986D02*
X183624D01*
X184805D01*
Y357730D01*
X182444D02*
X181263D01*
X181853D01*
Y361272D01*
X182444Y360681D01*
X294723Y209271D02*
Y206910D01*
X293542Y205729D01*
X292361Y206910D01*
Y209271D01*
X291181D02*
Y205729D01*
X289410D01*
X288819Y206319D01*
Y208681D01*
X289410Y209271D01*
X291181D01*
X285868Y205729D02*
Y209271D01*
X287639Y207500D01*
X285277D01*
X330729Y210723D02*
X333090D01*
X334271Y209542D01*
X333090Y208361D01*
X330729D01*
Y207181D02*
X334271D01*
Y205410D01*
X333681Y204819D01*
X331319D01*
X330729Y205410D01*
Y207181D01*
X331319Y203639D02*
X330729Y203048D01*
Y201868D01*
X331319Y201277D01*
X331910D01*
X332500Y201868D01*
Y202458D01*
Y201868D01*
X333090Y201277D01*
X333681D01*
X334271Y201868D01*
Y203048D01*
X333681Y203639D01*
X283223Y101771D02*
Y99410D01*
X282042Y98229D01*
X280861Y99410D01*
Y101771D01*
X279681D02*
Y98229D01*
X277910D01*
X277319Y98819D01*
Y101181D01*
X277910Y101771D01*
X279681D01*
X273777Y98229D02*
X276139D01*
X273777Y100590D01*
Y101181D01*
X274367Y101771D01*
X275548D01*
X276139Y101181D01*
X283133Y91771D02*
Y89410D01*
X281952Y88229D01*
X280771Y89410D01*
Y91771D01*
X279590D02*
Y88229D01*
X277819D01*
X277229Y88819D01*
Y91181D01*
X277819Y91771D01*
X279590D01*
X276048Y88229D02*
X274868D01*
X275458D01*
Y91771D01*
X276048Y91181D01*
X324729Y233928D02*
X327681D01*
X328271Y233337D01*
Y232157D01*
X327681Y231566D01*
X324729D01*
X328271Y230385D02*
Y229205D01*
Y229795D01*
X324729D01*
X325319Y230385D01*
X324729Y225072D02*
Y227434D01*
X326500D01*
X325910Y226253D01*
Y225663D01*
X326500Y225072D01*
X327681D01*
X328271Y225663D01*
Y226843D01*
X327681Y227434D01*
X268771Y234904D02*
X265229D01*
X266410Y233723D01*
X265229Y232542D01*
X268771D01*
X265819Y229000D02*
X265229Y229590D01*
Y230771D01*
X265819Y231361D01*
X268181D01*
X268771Y230771D01*
Y229590D01*
X268181Y229000D01*
X265229Y227819D02*
X268181D01*
X268771Y227229D01*
Y226048D01*
X268181Y225458D01*
X265229D01*
X268771Y224277D02*
Y223096D01*
Y223687D01*
X265229D01*
X265819Y224277D01*
X172229Y187361D02*
X175181D01*
X175771Y186771D01*
Y185590D01*
X175181Y185000D01*
X172229D01*
X175771Y183819D02*
Y182639D01*
Y183229D01*
X172229D01*
X172819Y183819D01*
X300819Y365361D02*
X300229Y365952D01*
Y367132D01*
X300819Y367723D01*
X301410D01*
X302000Y367132D01*
Y365952D01*
X302590Y365361D01*
X303181D01*
X303771Y365952D01*
Y367132D01*
X303181Y367723D01*
X300229Y364181D02*
X303771D01*
X302590Y363000D01*
X303771Y361819D01*
X300229D01*
Y358277D02*
Y360639D01*
X302000D01*
X301410Y359458D01*
Y358868D01*
X302000Y358277D01*
X303181D01*
X303771Y358868D01*
Y360048D01*
X303181Y360639D01*
X300819Y310271D02*
X300229Y310861D01*
Y312042D01*
X300819Y312632D01*
X301410D01*
X302000Y312042D01*
Y310861D01*
X302590Y310271D01*
X303181D01*
X303771Y310861D01*
Y312042D01*
X303181Y312632D01*
X300229Y309090D02*
X303771D01*
X302590Y307910D01*
X303771Y306729D01*
X300229D01*
X303771Y305548D02*
Y304367D01*
Y304958D01*
X300229D01*
X300819Y305548D01*
X118819Y167617D02*
X118229Y168208D01*
Y169388D01*
X118819Y169979D01*
X119410D01*
X120000Y169388D01*
Y168208D01*
X120590Y167617D01*
X121181D01*
X121771Y168208D01*
Y169388D01*
X121181Y169979D01*
X118229Y166437D02*
X121771D01*
Y164665D01*
X121181Y164075D01*
X120590D01*
X120000Y164665D01*
Y166437D01*
Y164665D01*
X119410Y164075D01*
X118819D01*
X118229Y164665D01*
Y166437D01*
X118819Y162894D02*
X118229Y162304D01*
Y161123D01*
X118819Y160533D01*
X119410D01*
X120000Y161123D01*
Y161714D01*
Y161123D01*
X120590Y160533D01*
X121181D01*
X121771Y161123D01*
Y162304D01*
X121181Y162894D01*
X126319Y167617D02*
X125729Y168208D01*
Y169388D01*
X126319Y169979D01*
X126910D01*
X127500Y169388D01*
Y168208D01*
X128090Y167617D01*
X128681D01*
X129271Y168208D01*
Y169388D01*
X128681Y169979D01*
X125729Y166437D02*
X129271D01*
Y164665D01*
X128681Y164075D01*
X128090D01*
X127500Y164665D01*
Y166437D01*
Y164665D01*
X126910Y164075D01*
X126319D01*
X125729Y164665D01*
Y166437D01*
X129271Y160533D02*
Y162894D01*
X126910Y160533D01*
X126319D01*
X125729Y161123D01*
Y162304D01*
X126319Y162894D01*
X133819Y167027D02*
X133229Y167617D01*
Y168798D01*
X133819Y169388D01*
X134410D01*
X135000Y168798D01*
Y167617D01*
X135590Y167027D01*
X136181D01*
X136771Y167617D01*
Y168798D01*
X136181Y169388D01*
X133229Y165846D02*
X136771D01*
Y164075D01*
X136181Y163485D01*
X135590D01*
X135000Y164075D01*
Y165846D01*
Y164075D01*
X134410Y163485D01*
X133819D01*
X133229Y164075D01*
Y165846D01*
X136771Y162304D02*
Y161123D01*
Y161714D01*
X133229D01*
X133819Y162304D01*
X71771Y55723D02*
X68229D01*
Y53952D01*
X68819Y53361D01*
X70000D01*
X70590Y53952D01*
Y55723D01*
Y54542D02*
X71771Y53361D01*
X68229Y49819D02*
X68819Y51000D01*
X70000Y52181D01*
X71181D01*
X71771Y51590D01*
Y50410D01*
X71181Y49819D01*
X70590D01*
X70000Y50410D01*
Y52181D01*
X68229Y48639D02*
Y46277D01*
X68819D01*
X71181Y48639D01*
X71771D01*
X279723Y387229D02*
Y390771D01*
X277952D01*
X277361Y390181D01*
Y389000D01*
X277952Y388410D01*
X279723D01*
X278542D02*
X277361Y387229D01*
X273819Y390771D02*
X275000Y390181D01*
X276181Y389000D01*
Y387819D01*
X275590Y387229D01*
X274410D01*
X273819Y387819D01*
Y388410D01*
X274410Y389000D01*
X276181D01*
X270277Y390771D02*
X271458Y390181D01*
X272639Y389000D01*
Y387819D01*
X272048Y387229D01*
X270867D01*
X270277Y387819D01*
Y388410D01*
X270867Y389000D01*
X272639D01*
X81772Y55723D02*
X78230D01*
Y53952D01*
X78821Y53361D01*
X80001D01*
X80592Y53952D01*
Y55723D01*
Y54542D02*
X81772Y53361D01*
X78230Y49819D02*
X78821Y51000D01*
X80001Y52181D01*
X81182D01*
X81772Y51590D01*
Y50410D01*
X81182Y49819D01*
X80592D01*
X80001Y50410D01*
Y52181D01*
X78230Y46277D02*
Y48639D01*
X80001D01*
X79411Y47458D01*
Y46867D01*
X80001Y46277D01*
X81182D01*
X81772Y46867D01*
Y48048D01*
X81182Y48639D01*
X313723Y392229D02*
Y395771D01*
X311952D01*
X311361Y395181D01*
Y394000D01*
X311952Y393410D01*
X313723D01*
X312542D02*
X311361Y392229D01*
X307819Y395771D02*
X309000Y395181D01*
X310181Y394000D01*
Y392819D01*
X309590Y392229D01*
X308410D01*
X307819Y392819D01*
Y393410D01*
X308410Y394000D01*
X310181D01*
X304868Y392229D02*
Y395771D01*
X306639Y394000D01*
X304277D01*
X301771Y335723D02*
X298229D01*
Y333952D01*
X298819Y333361D01*
X300000D01*
X300590Y333952D01*
Y335723D01*
Y334542D02*
X301771Y333361D01*
X298229Y329819D02*
X298819Y331000D01*
X300000Y332181D01*
X301181D01*
X301771Y331590D01*
Y330410D01*
X301181Y329819D01*
X300590D01*
X300000Y330410D01*
Y332181D01*
X298819Y328639D02*
X298229Y328048D01*
Y326868D01*
X298819Y326277D01*
X299410D01*
X300000Y326868D01*
Y327458D01*
Y326868D01*
X300590Y326277D01*
X301181D01*
X301771Y326868D01*
Y328048D01*
X301181Y328639D01*
X296723Y215729D02*
Y219271D01*
X294952D01*
X294361Y218681D01*
Y217500D01*
X294952Y216910D01*
X296723D01*
X295542D02*
X294361Y215729D01*
X290819Y219271D02*
X292000Y218681D01*
X293181Y217500D01*
Y216319D01*
X292590Y215729D01*
X291410D01*
X290819Y216319D01*
Y216910D01*
X291410Y217500D01*
X293181D01*
X287277Y215729D02*
X289639D01*
X287277Y218090D01*
Y218681D01*
X287867Y219271D01*
X289048D01*
X289639Y218681D01*
X334271Y222633D02*
X330729D01*
Y220861D01*
X331319Y220271D01*
X332500D01*
X333090Y220861D01*
Y222633D01*
Y221452D02*
X334271Y220271D01*
X330729Y216729D02*
X331319Y217910D01*
X332500Y219090D01*
X333681D01*
X334271Y218500D01*
Y217319D01*
X333681Y216729D01*
X333090D01*
X332500Y217319D01*
Y219090D01*
X334271Y215548D02*
Y214368D01*
Y214958D01*
X330729D01*
X331319Y215548D01*
X320771Y272223D02*
X317229D01*
Y270452D01*
X317819Y269861D01*
X319000D01*
X319590Y270452D01*
Y272223D01*
Y271042D02*
X320771Y269861D01*
X317229Y266319D02*
X317819Y267500D01*
X319000Y268681D01*
X320181D01*
X320771Y268090D01*
Y266910D01*
X320181Y266319D01*
X319590D01*
X319000Y266910D01*
Y268681D01*
X317819Y265139D02*
X317229Y264548D01*
Y263368D01*
X317819Y262777D01*
X320181D01*
X320771Y263368D01*
Y264548D01*
X320181Y265139D01*
X317819D01*
X244723Y410729D02*
Y414271D01*
X242952D01*
X242361Y413681D01*
Y412500D01*
X242952Y411910D01*
X244723D01*
X243542D02*
X242361Y410729D01*
X238819Y414271D02*
X241181D01*
Y412500D01*
X240000Y413090D01*
X239410D01*
X238819Y412500D01*
Y411319D01*
X239410Y410729D01*
X240590D01*
X241181Y411319D01*
X237639D02*
X237048Y410729D01*
X235868D01*
X235277Y411319D01*
Y413681D01*
X235868Y414271D01*
X237048D01*
X237639Y413681D01*
Y413090D01*
X237048Y412500D01*
X235277D01*
X305223Y197229D02*
Y200771D01*
X303452D01*
X302861Y200181D01*
Y199000D01*
X303452Y198410D01*
X305223D01*
X304042D02*
X302861Y197229D01*
X299319Y200771D02*
X301681D01*
Y199000D01*
X300500Y199590D01*
X299910D01*
X299319Y199000D01*
Y197819D01*
X299910Y197229D01*
X301090D01*
X301681Y197819D01*
X298139Y200181D02*
X297548Y200771D01*
X296368D01*
X295777Y200181D01*
Y199590D01*
X296368Y199000D01*
X295777Y198410D01*
Y197819D01*
X296368Y197229D01*
X297548D01*
X298139Y197819D01*
Y198410D01*
X297548Y199000D01*
X298139Y199590D01*
Y200181D01*
X297548Y199000D02*
X296368D01*
X296771Y266223D02*
X293229D01*
Y264452D01*
X293819Y263861D01*
X295000D01*
X295590Y264452D01*
Y266223D01*
Y265042D02*
X296771Y263861D01*
X293229Y260319D02*
Y262681D01*
X295000D01*
X294410Y261500D01*
Y260910D01*
X295000Y260319D01*
X296181D01*
X296771Y260910D01*
Y262090D01*
X296181Y262681D01*
X293229Y259139D02*
Y256777D01*
X293819D01*
X296181Y259139D01*
X296771D01*
X299271Y192223D02*
X295729D01*
Y190452D01*
X296319Y189861D01*
X297500D01*
X298090Y190452D01*
Y192223D01*
Y191042D02*
X299271Y189861D01*
X295729Y186319D02*
Y188681D01*
X297500D01*
X296910Y187500D01*
Y186910D01*
X297500Y186319D01*
X298681D01*
X299271Y186910D01*
Y188090D01*
X298681Y188681D01*
X295729Y182777D02*
X296319Y183958D01*
X297500Y185139D01*
X298681D01*
X299271Y184548D01*
Y183368D01*
X298681Y182777D01*
X298090D01*
X297500Y183368D01*
Y185139D01*
X331771Y266223D02*
X328229D01*
Y264452D01*
X328819Y263861D01*
X330000D01*
X330590Y264452D01*
Y266223D01*
Y265042D02*
X331771Y263861D01*
X328229Y260319D02*
Y262681D01*
X330000D01*
X329410Y261500D01*
Y260910D01*
X330000Y260319D01*
X331181D01*
X331771Y260910D01*
Y262090D01*
X331181Y262681D01*
X328229Y256777D02*
Y259139D01*
X330000D01*
X329410Y257958D01*
Y257367D01*
X330000Y256777D01*
X331181D01*
X331771Y257367D01*
Y258548D01*
X331181Y259139D01*
X329271Y192223D02*
X325729D01*
Y190452D01*
X326319Y189861D01*
X327500D01*
X328090Y190452D01*
Y192223D01*
Y191042D02*
X329271Y189861D01*
X325729Y186319D02*
Y188681D01*
X327500D01*
X326910Y187500D01*
Y186910D01*
X327500Y186319D01*
X328681D01*
X329271Y186910D01*
Y188090D01*
X328681Y188681D01*
X329271Y183368D02*
X325729D01*
X327500Y185139D01*
Y182777D01*
X115271Y43223D02*
X111729D01*
Y41452D01*
X112319Y40861D01*
X113500D01*
X114090Y41452D01*
Y43223D01*
Y42042D02*
X115271Y40861D01*
Y37910D02*
X111729D01*
X113500Y39681D01*
Y37319D01*
X112319Y36139D02*
X111729Y35548D01*
Y34367D01*
X112319Y33777D01*
X112910D01*
X113500Y34367D01*
Y34958D01*
Y34367D01*
X114090Y33777D01*
X114681D01*
X115271Y34367D01*
Y35548D01*
X114681Y36139D01*
X138271Y43223D02*
X134729D01*
Y41452D01*
X135319Y40861D01*
X136500D01*
X137090Y41452D01*
Y43223D01*
Y42042D02*
X138271Y40861D01*
Y37910D02*
X134729D01*
X136500Y39681D01*
Y37319D01*
X138271Y33777D02*
Y36139D01*
X135910Y33777D01*
X135319D01*
X134729Y34367D01*
Y35548D01*
X135319Y36139D01*
X318723Y323729D02*
Y327271D01*
X316952D01*
X316361Y326681D01*
Y325500D01*
X316952Y324910D01*
X318723D01*
X317542D02*
X316361Y323729D01*
X312819D02*
X315181D01*
X312819Y326090D01*
Y326681D01*
X313410Y327271D01*
X314590D01*
X315181Y326681D01*
X311639Y324319D02*
X311048Y323729D01*
X309868D01*
X309277Y324319D01*
Y326681D01*
X309868Y327271D01*
X311048D01*
X311639Y326681D01*
Y326090D01*
X311048Y325500D01*
X309277D01*
X155223Y210729D02*
Y214271D01*
X153452D01*
X152861Y213681D01*
Y212500D01*
X153452Y211910D01*
X155223D01*
X154042D02*
X152861Y210729D01*
X151681Y213681D02*
X151090Y214271D01*
X149910D01*
X149319Y213681D01*
Y213090D01*
X149910Y212500D01*
X150500D01*
X149910D01*
X149319Y211910D01*
Y211319D01*
X149910Y210729D01*
X151090D01*
X151681Y211319D01*
X148139Y213681D02*
X147548Y214271D01*
X146368D01*
X145777Y213681D01*
Y213090D01*
X146368Y212500D01*
X146958D01*
X146368D01*
X145777Y211910D01*
Y211319D01*
X146368Y210729D01*
X147548D01*
X148139Y211319D01*
X217771Y225132D02*
X214229D01*
Y223361D01*
X214819Y222771D01*
X216000D01*
X216590Y223361D01*
Y225132D01*
Y223952D02*
X217771Y222771D01*
X214819Y221590D02*
X214229Y221000D01*
Y219819D01*
X214819Y219229D01*
X215410D01*
X216000Y219819D01*
Y220410D01*
Y219819D01*
X216590Y219229D01*
X217181D01*
X217771Y219819D01*
Y221000D01*
X217181Y221590D01*
X217771Y218048D02*
Y216867D01*
Y217458D01*
X214229D01*
X214819Y218048D01*
X113223Y210729D02*
Y214271D01*
X111452D01*
X110861Y213681D01*
Y212500D01*
X111452Y211910D01*
X113223D01*
X112042D02*
X110861Y210729D01*
X109681Y213681D02*
X109090Y214271D01*
X107910D01*
X107319Y213681D01*
Y213090D01*
X107910Y212500D01*
X108500D01*
X107910D01*
X107319Y211910D01*
Y211319D01*
X107910Y210729D01*
X109090D01*
X109681Y211319D01*
X106139Y213681D02*
X105548Y214271D01*
X104367D01*
X103777Y213681D01*
Y211319D01*
X104367Y210729D01*
X105548D01*
X106139Y211319D01*
Y213681D01*
X170723Y379729D02*
Y383271D01*
X168952D01*
X168361Y382681D01*
Y381500D01*
X168952Y380910D01*
X170723D01*
X169542D02*
X168361Y379729D01*
X164819D02*
X167181D01*
X164819Y382090D01*
Y382681D01*
X165410Y383271D01*
X166590D01*
X167181Y382681D01*
X163639D02*
X163048Y383271D01*
X161867D01*
X161277Y382681D01*
Y382090D01*
X161867Y381500D01*
X161277Y380910D01*
Y380319D01*
X161867Y379729D01*
X163048D01*
X163639Y380319D01*
Y380910D01*
X163048Y381500D01*
X163639Y382090D01*
Y382681D01*
X163048Y381500D02*
X161867D01*
X204723Y382729D02*
Y386271D01*
X202952D01*
X202361Y385681D01*
Y384500D01*
X202952Y383910D01*
X204723D01*
X203542D02*
X202361Y382729D01*
X198819D02*
X201181D01*
X198819Y385090D01*
Y385681D01*
X199410Y386271D01*
X200590D01*
X201181Y385681D01*
X197639Y386271D02*
X195277D01*
Y385681D01*
X197639Y383319D01*
Y382729D01*
X295223Y125729D02*
Y129271D01*
X293452D01*
X292861Y128681D01*
Y127500D01*
X293452Y126910D01*
X295223D01*
X294042D02*
X292861Y125729D01*
X289319D02*
X291681D01*
X289319Y128090D01*
Y128681D01*
X289910Y129271D01*
X291090D01*
X291681Y128681D01*
X285777Y129271D02*
X288139D01*
Y127500D01*
X286958Y128090D01*
X286368D01*
X285777Y127500D01*
Y126319D01*
X286368Y125729D01*
X287548D01*
X288139Y126319D01*
X170723Y354729D02*
Y358271D01*
X168952D01*
X168361Y357681D01*
Y356500D01*
X168952Y355910D01*
X170723D01*
X169542D02*
X168361Y354729D01*
X164819D02*
X167181D01*
X164819Y357090D01*
Y357681D01*
X165410Y358271D01*
X166590D01*
X167181Y357681D01*
X161867Y354729D02*
Y358271D01*
X163639Y356500D01*
X161277D01*
X295223Y131729D02*
Y135271D01*
X293452D01*
X292861Y134681D01*
Y133500D01*
X293452Y132910D01*
X295223D01*
X294042D02*
X292861Y131729D01*
X289319D02*
X291681D01*
X289319Y134090D01*
Y134681D01*
X289910Y135271D01*
X291090D01*
X291681Y134681D01*
X288139D02*
X287548Y135271D01*
X286368D01*
X285777Y134681D01*
Y134090D01*
X286368Y133500D01*
X286958D01*
X286368D01*
X285777Y132910D01*
Y132319D01*
X286368Y131729D01*
X287548D01*
X288139Y132319D01*
X204618Y357730D02*
Y361272D01*
X202847D01*
X202257Y360681D01*
Y359501D01*
X202847Y358910D01*
X204618D01*
X203438D02*
X202257Y357730D01*
X198715D02*
X201076D01*
X198715Y360091D01*
Y360681D01*
X199305Y361272D01*
X200486D01*
X201076Y360681D01*
X195173Y357730D02*
X197534D01*
X195173Y360091D01*
Y360681D01*
X195763Y361272D01*
X196944D01*
X197534Y360681D01*
X301771Y283223D02*
X298229D01*
Y281452D01*
X298819Y280861D01*
X300000D01*
X300590Y281452D01*
Y283223D01*
Y282042D02*
X301771Y280861D01*
Y277319D02*
Y279681D01*
X299410Y277319D01*
X298819D01*
X298229Y277910D01*
Y279090D01*
X298819Y279681D01*
X298229Y273777D02*
X298819Y274958D01*
X300000Y276139D01*
X301181D01*
X301771Y275548D01*
Y274367D01*
X301181Y273777D01*
X300590D01*
X300000Y274367D01*
Y276139D01*
X286133Y255729D02*
Y259271D01*
X284361D01*
X283771Y258681D01*
Y257500D01*
X284361Y256910D01*
X286133D01*
X284952D02*
X283771Y255729D01*
X280229D02*
X282590D01*
X280229Y258090D01*
Y258681D01*
X280819Y259271D01*
X282000D01*
X282590Y258681D01*
X279048Y255729D02*
X277868D01*
X278458D01*
Y259271D01*
X279048Y258681D01*
X175271Y96723D02*
X171729D01*
Y94952D01*
X172319Y94361D01*
X173500D01*
X174090Y94952D01*
Y96723D01*
Y95542D02*
X175271Y94361D01*
Y90819D02*
Y93181D01*
X172910Y90819D01*
X172319D01*
X171729Y91410D01*
Y92590D01*
X172319Y93181D01*
Y89639D02*
X171729Y89048D01*
Y87867D01*
X172319Y87277D01*
X174681D01*
X175271Y87867D01*
Y89048D01*
X174681Y89639D01*
X172319D01*
X182428Y155729D02*
Y159271D01*
X180657D01*
X180066Y158681D01*
Y157500D01*
X180657Y156910D01*
X182428D01*
X181247D02*
X180066Y155729D01*
X178885D02*
X177705D01*
X178295D01*
Y159271D01*
X178885Y158681D01*
X175934Y156319D02*
X175343Y155729D01*
X174163D01*
X173572Y156319D01*
Y158681D01*
X174163Y159271D01*
X175343D01*
X175934Y158681D01*
Y158090D01*
X175343Y157500D01*
X173572D01*
X316428Y21729D02*
Y25271D01*
X314657D01*
X314066Y24681D01*
Y23500D01*
X314657Y22910D01*
X316428D01*
X315247D02*
X314066Y21729D01*
X312885D02*
X311705D01*
X312295D01*
Y25271D01*
X312885Y24681D01*
X309934D02*
X309343Y25271D01*
X308163D01*
X307572Y24681D01*
Y24090D01*
X308163Y23500D01*
X307572Y22910D01*
Y22319D01*
X308163Y21729D01*
X309343D01*
X309934Y22319D01*
Y22910D01*
X309343Y23500D01*
X309934Y24090D01*
Y24681D01*
X309343Y23500D02*
X308163D01*
X272428Y155729D02*
Y159271D01*
X270657D01*
X270066Y158681D01*
Y157500D01*
X270657Y156910D01*
X272428D01*
X271247D02*
X270066Y155729D01*
X268885D02*
X267705D01*
X268295D01*
Y159271D01*
X268885Y158681D01*
X265934Y159271D02*
X263572D01*
Y158681D01*
X265934Y156319D01*
Y155729D01*
X192428Y80229D02*
Y83771D01*
X190657D01*
X190066Y83181D01*
Y82000D01*
X190657Y81410D01*
X192428D01*
X191247D02*
X190066Y80229D01*
X188885D02*
X187705D01*
X188295D01*
Y83771D01*
X188885Y83181D01*
X183572Y83771D02*
X184753Y83181D01*
X185934Y82000D01*
Y80819D01*
X185343Y80229D01*
X184163D01*
X183572Y80819D01*
Y81410D01*
X184163Y82000D01*
X185934D01*
X193928Y155729D02*
Y159271D01*
X192157D01*
X191566Y158681D01*
Y157500D01*
X192157Y156910D01*
X193928D01*
X192747D02*
X191566Y155729D01*
X190385D02*
X189205D01*
X189795D01*
Y159271D01*
X190385Y158681D01*
X185072Y159271D02*
X187434D01*
Y157500D01*
X186253Y158090D01*
X185663D01*
X185072Y157500D01*
Y156319D01*
X185663Y155729D01*
X186843D01*
X187434Y156319D01*
X296428Y21729D02*
Y25271D01*
X294657D01*
X294066Y24681D01*
Y23500D01*
X294657Y22910D01*
X296428D01*
X295247D02*
X294066Y21729D01*
X292885D02*
X291705D01*
X292295D01*
Y25271D01*
X292885Y24681D01*
X288163Y21729D02*
Y25271D01*
X289934Y23500D01*
X287572D01*
X261428Y155729D02*
Y159271D01*
X259657D01*
X259066Y158681D01*
Y157500D01*
X259657Y156910D01*
X261428D01*
X260247D02*
X259066Y155729D01*
X257886D02*
X256705D01*
X257295D01*
Y159271D01*
X257886Y158681D01*
X254934D02*
X254343Y159271D01*
X253163D01*
X252572Y158681D01*
Y158090D01*
X253163Y157500D01*
X253753D01*
X253163D01*
X252572Y156910D01*
Y156319D01*
X253163Y155729D01*
X254343D01*
X254934Y156319D01*
X205928Y80229D02*
Y83771D01*
X204157D01*
X203566Y83181D01*
Y82000D01*
X204157Y81410D01*
X205928D01*
X204747D02*
X203566Y80229D01*
X202385D02*
X201205D01*
X201795D01*
Y83771D01*
X202385Y83181D01*
X197072Y80229D02*
X199434D01*
X197072Y82590D01*
Y83181D01*
X197663Y83771D01*
X198843D01*
X199434Y83181D01*
X204337Y155729D02*
Y159271D01*
X202566D01*
X201976Y158681D01*
Y157500D01*
X202566Y156910D01*
X204337D01*
X203157D02*
X201976Y155729D01*
X200795D02*
X199615D01*
X200205D01*
Y159271D01*
X200795Y158681D01*
X197843Y155729D02*
X196663D01*
X197253D01*
Y159271D01*
X197843Y158681D01*
X276771Y34428D02*
X273229D01*
Y32657D01*
X273819Y32066D01*
X275000D01*
X275590Y32657D01*
Y34428D01*
Y33247D02*
X276771Y32066D01*
Y30885D02*
Y29705D01*
Y30295D01*
X273229D01*
X273819Y30885D01*
Y27934D02*
X273229Y27343D01*
Y26163D01*
X273819Y25572D01*
X276181D01*
X276771Y26163D01*
Y27343D01*
X276181Y27934D01*
X273819D01*
X249952Y155729D02*
Y159271D01*
X248181D01*
X247590Y158681D01*
Y157500D01*
X248181Y156910D01*
X249952D01*
X248771D02*
X247590Y155729D01*
X246410Y156319D02*
X245819Y155729D01*
X244639D01*
X244048Y156319D01*
Y158681D01*
X244639Y159271D01*
X245819D01*
X246410Y158681D01*
Y158090D01*
X245819Y157500D01*
X244048D01*
X218272Y95462D02*
X214729D01*
Y93691D01*
X215320Y93100D01*
X216501D01*
X217091Y93691D01*
Y95462D01*
Y94281D02*
X218272Y93100D01*
X215320Y91920D02*
X214729Y91329D01*
Y90149D01*
X215320Y89558D01*
X215910D01*
X216501Y90149D01*
X217091Y89558D01*
X217681D01*
X218272Y90149D01*
Y91329D01*
X217681Y91920D01*
X217091D01*
X216501Y91329D01*
X215910Y91920D01*
X215320D01*
X216501Y91329D02*
Y90149D01*
X212452Y155729D02*
Y159271D01*
X210681D01*
X210090Y158681D01*
Y157500D01*
X210681Y156910D01*
X212452D01*
X211271D02*
X210090Y155729D01*
X208910Y159271D02*
X206548D01*
Y158681D01*
X208910Y156319D01*
Y155729D01*
X276771Y79952D02*
X273229D01*
Y78181D01*
X273819Y77590D01*
X275000D01*
X275590Y78181D01*
Y79952D01*
Y78771D02*
X276771Y77590D01*
X273229Y74048D02*
X273819Y75229D01*
X275000Y76410D01*
X276181D01*
X276771Y75819D01*
Y74639D01*
X276181Y74048D01*
X275590D01*
X275000Y74639D01*
Y76410D01*
X239952Y155729D02*
Y159271D01*
X238181D01*
X237590Y158681D01*
Y157500D01*
X238181Y156910D01*
X239952D01*
X238771D02*
X237590Y155729D01*
X234048Y159271D02*
X236410D01*
Y157500D01*
X235229Y158090D01*
X234639D01*
X234048Y157500D01*
Y156319D01*
X234639Y155729D01*
X235819D01*
X236410Y156319D01*
X178952Y210729D02*
Y214271D01*
X177181D01*
X176590Y213681D01*
Y212500D01*
X177181Y211910D01*
X178952D01*
X177771D02*
X176590Y210729D01*
X173639D02*
Y214271D01*
X175410Y212500D01*
X173048D01*
X130952Y195729D02*
Y199271D01*
X129181D01*
X128590Y198681D01*
Y197500D01*
X129181Y196910D01*
X130952D01*
X129771D02*
X128590Y195729D01*
X127410Y198681D02*
X126819Y199271D01*
X125639D01*
X125048Y198681D01*
Y198090D01*
X125639Y197500D01*
X126229D01*
X125639D01*
X125048Y196910D01*
Y196319D01*
X125639Y195729D01*
X126819D01*
X127410Y196319D01*
X130952Y185729D02*
Y189271D01*
X129181D01*
X128590Y188681D01*
Y187500D01*
X129181Y186910D01*
X130952D01*
X129771D02*
X128590Y185729D01*
X125048D02*
X127410D01*
X125048Y188090D01*
Y188681D01*
X125639Y189271D01*
X126819D01*
X127410Y188681D01*
X130861Y175729D02*
Y179271D01*
X129090D01*
X128500Y178681D01*
Y177500D01*
X129090Y176910D01*
X130861D01*
X129681D02*
X128500Y175729D01*
X127319D02*
X126139D01*
X126729D01*
Y179271D01*
X127319Y178681D01*
X170729Y124452D02*
Y125633D01*
X171319Y126223D01*
X173681D01*
X174271Y125633D01*
Y124452D01*
X173681Y123861D01*
X171319D01*
X170729Y124452D01*
X171319Y120319D02*
X170729Y120910D01*
Y122090D01*
X171319Y122681D01*
X173681D01*
X174271Y122090D01*
Y120910D01*
X173681Y120319D01*
X174271Y116777D02*
Y119139D01*
X171910Y116777D01*
X171319D01*
X170729Y117367D01*
Y118548D01*
X171319Y119139D01*
X272729Y123861D02*
Y125042D01*
X273319Y125633D01*
X275681D01*
X276271Y125042D01*
Y123861D01*
X275681Y123271D01*
X273319D01*
X272729Y123861D01*
X273319Y119729D02*
X272729Y120319D01*
Y121500D01*
X273319Y122090D01*
X275681D01*
X276271Y121500D01*
Y120319D01*
X275681Y119729D01*
X276271Y118548D02*
Y117367D01*
Y117958D01*
X272729D01*
X273319Y118548D01*
X227994Y358729D02*
Y362271D01*
X226813Y361090D01*
X225633Y362271D01*
Y358729D01*
X222090Y361681D02*
X222681Y362271D01*
X223861D01*
X224452Y361681D01*
Y359319D01*
X223861Y358729D01*
X222681D01*
X222090Y359319D01*
X220910Y362271D02*
Y359319D01*
X220319Y358729D01*
X219139D01*
X218548Y359319D01*
Y362271D01*
X215006Y358729D02*
X217368D01*
X215006Y361090D01*
Y361681D01*
X215596Y362271D01*
X216777D01*
X217368Y361681D01*
X146319Y59271D02*
X145729Y59861D01*
Y61042D01*
X146319Y61633D01*
X148681D01*
X149271Y61042D01*
Y59861D01*
X148681Y59271D01*
X147500D01*
Y60452D01*
X145729Y58090D02*
X149271D01*
Y56319D01*
X148681Y55729D01*
X148090D01*
X147500Y56319D01*
Y58090D01*
Y56319D01*
X146910Y55729D01*
X146319D01*
X145729Y56319D01*
Y58090D01*
X149271Y54548D02*
Y53368D01*
Y53958D01*
X145729D01*
X146319Y54548D01*
X274861Y368181D02*
X275452Y368771D01*
X276632D01*
X277223Y368181D01*
Y365819D01*
X276632Y365229D01*
X275452D01*
X274861Y365819D01*
X273681D02*
X273090Y365229D01*
X271910D01*
X271319Y365819D01*
Y368181D01*
X271910Y368771D01*
X273090D01*
X273681Y368181D01*
Y367590D01*
X273090Y367000D01*
X271319D01*
X267777Y365229D02*
X270139D01*
X267777Y367590D01*
Y368181D01*
X268368Y368771D01*
X269548D01*
X270139Y368181D01*
X296771Y239681D02*
X297361Y240271D01*
X298542D01*
X299132Y239681D01*
Y237319D01*
X298542Y236729D01*
X297361D01*
X296771Y237319D01*
X295590D02*
X295000Y236729D01*
X293819D01*
X293229Y237319D01*
Y239681D01*
X293819Y240271D01*
X295000D01*
X295590Y239681D01*
Y239090D01*
X295000Y238500D01*
X293229D01*
X292048Y236729D02*
X290867D01*
X291458D01*
Y240271D01*
X292048Y239681D01*
X261861Y413681D02*
X262452Y414271D01*
X263632D01*
X264223Y413681D01*
Y411319D01*
X263632Y410729D01*
X262452D01*
X261861Y411319D01*
X260681D02*
X260090Y410729D01*
X258910D01*
X258319Y411319D01*
Y413681D01*
X258910Y414271D01*
X260090D01*
X260681Y413681D01*
Y413090D01*
X260090Y412500D01*
X258319D01*
X257139Y413681D02*
X256548Y414271D01*
X255367D01*
X254777Y413681D01*
Y411319D01*
X255367Y410729D01*
X256548D01*
X257139Y411319D01*
Y413681D01*
X220861Y350181D02*
X221452Y350771D01*
X222633D01*
X223223Y350181D01*
Y347819D01*
X222633Y347229D01*
X221452D01*
X220861Y347819D01*
X219681Y350181D02*
X219090Y350771D01*
X217910D01*
X217319Y350181D01*
Y349590D01*
X217910Y349000D01*
X217319Y348410D01*
Y347819D01*
X217910Y347229D01*
X219090D01*
X219681Y347819D01*
Y348410D01*
X219090Y349000D01*
X219681Y349590D01*
Y350181D01*
X219090Y349000D02*
X217910D01*
X216139Y347819D02*
X215548Y347229D01*
X214368D01*
X213777Y347819D01*
Y350181D01*
X214368Y350771D01*
X215548D01*
X216139Y350181D01*
Y349590D01*
X215548Y349000D01*
X213777D01*
X217361Y399681D02*
X217952Y400271D01*
X219132D01*
X219723Y399681D01*
Y397319D01*
X219132Y396729D01*
X217952D01*
X217361Y397319D01*
X216181Y399681D02*
X215590Y400271D01*
X214410D01*
X213819Y399681D01*
Y399090D01*
X214410Y398500D01*
X213819Y397910D01*
Y397319D01*
X214410Y396729D01*
X215590D01*
X216181Y397319D01*
Y397910D01*
X215590Y398500D01*
X216181Y399090D01*
Y399681D01*
X215590Y398500D02*
X214410D01*
X212639Y399681D02*
X212048Y400271D01*
X210868D01*
X210277Y399681D01*
Y399090D01*
X210868Y398500D01*
X210277Y397910D01*
Y397319D01*
X210868Y396729D01*
X212048D01*
X212639Y397319D01*
Y397910D01*
X212048Y398500D01*
X212639Y399090D01*
Y399681D01*
X212048Y398500D02*
X210868D01*
X274361Y401681D02*
X274952Y402271D01*
X276132D01*
X276723Y401681D01*
Y399319D01*
X276132Y398729D01*
X274952D01*
X274361Y399319D01*
X273181Y401681D02*
X272590Y402271D01*
X271410D01*
X270819Y401681D01*
Y401090D01*
X271410Y400500D01*
X270819Y399910D01*
Y399319D01*
X271410Y398729D01*
X272590D01*
X273181Y399319D01*
Y399910D01*
X272590Y400500D01*
X273181Y401090D01*
Y401681D01*
X272590Y400500D02*
X271410D01*
X269639Y402271D02*
X267277D01*
Y401681D01*
X269639Y399319D01*
Y398729D01*
X291181Y333361D02*
X291771Y333952D01*
Y335133D01*
X291181Y335723D01*
X288819D01*
X288229Y335133D01*
Y333952D01*
X288819Y333361D01*
X291181Y332181D02*
X291771Y331590D01*
Y330410D01*
X291181Y329819D01*
X290590D01*
X290000Y330410D01*
X289410Y329819D01*
X288819D01*
X288229Y330410D01*
Y331590D01*
X288819Y332181D01*
X289410D01*
X290000Y331590D01*
X290590Y332181D01*
X291181D01*
X290000Y331590D02*
Y330410D01*
X291771Y326277D02*
X291181Y327458D01*
X290000Y328639D01*
X288819D01*
X288229Y328048D01*
Y326868D01*
X288819Y326277D01*
X289410D01*
X290000Y326868D01*
Y328639D01*
X186066Y174181D02*
X186657Y174771D01*
X187837D01*
X188428Y174181D01*
Y171819D01*
X187837Y171229D01*
X186657D01*
X186066Y171819D01*
X184886Y171229D02*
X183705D01*
X184295D01*
Y174771D01*
X184886Y174181D01*
X179572Y174771D02*
X180753Y174181D01*
X181934Y173000D01*
Y171819D01*
X181343Y171229D01*
X180163D01*
X179572Y171819D01*
Y172410D01*
X180163Y173000D01*
X181934D01*
X191861Y222181D02*
X192452Y222771D01*
X193632D01*
X194223Y222181D01*
Y219819D01*
X193632Y219229D01*
X192452D01*
X191861Y219819D01*
X188910Y219229D02*
Y222771D01*
X190681Y221000D01*
X188319D01*
X184777Y222771D02*
X187139D01*
Y221000D01*
X185958Y221590D01*
X185368D01*
X184777Y221000D01*
Y219819D01*
X185368Y219229D01*
X186548D01*
X187139Y219819D01*
X245861Y222181D02*
X246452Y222771D01*
X247633D01*
X248223Y222181D01*
Y219819D01*
X247633Y219229D01*
X246452D01*
X245861Y219819D01*
X242910Y219229D02*
Y222771D01*
X244681Y221000D01*
X242319D01*
X239368Y219229D02*
Y222771D01*
X241139Y221000D01*
X238777D01*
X182819Y202361D02*
X182229Y202952D01*
Y204133D01*
X182819Y204723D01*
X185181D01*
X185771Y204133D01*
Y202952D01*
X185181Y202361D01*
X185771Y199410D02*
X182229D01*
X184000Y201181D01*
Y198819D01*
X182819Y197639D02*
X182229Y197048D01*
Y195868D01*
X182819Y195277D01*
X183410D01*
X184000Y195868D01*
Y196458D01*
Y195868D01*
X184590Y195277D01*
X185181D01*
X185771Y195868D01*
Y197048D01*
X185181Y197639D01*
X276319Y226861D02*
X275729Y227452D01*
Y228632D01*
X276319Y229223D01*
X278681D01*
X279271Y228632D01*
Y227452D01*
X278681Y226861D01*
X279271Y223910D02*
X275729D01*
X277500Y225681D01*
Y223319D01*
X279271Y219777D02*
Y222139D01*
X276910Y219777D01*
X276319D01*
X275729Y220368D01*
Y221548D01*
X276319Y222139D01*
X283771Y272181D02*
X284361Y272771D01*
X285542D01*
X286133Y272181D01*
Y269819D01*
X285542Y269229D01*
X284361D01*
X283771Y269819D01*
X280819Y269229D02*
Y272771D01*
X282590Y271000D01*
X280229D01*
X279048Y269229D02*
X277868D01*
X278458D01*
Y272771D01*
X279048Y272181D01*
X276319Y300361D02*
X275729Y300952D01*
Y302133D01*
X276319Y302723D01*
X278681D01*
X279271Y302133D01*
Y300952D01*
X278681Y300361D01*
X279271Y297410D02*
X275729D01*
X277500Y299181D01*
Y296819D01*
X276319Y295639D02*
X275729Y295048D01*
Y293867D01*
X276319Y293277D01*
X278681D01*
X279271Y293867D01*
Y295048D01*
X278681Y295639D01*
X276319D01*
X282861Y321181D02*
X283452Y321771D01*
X284632D01*
X285223Y321181D01*
Y318819D01*
X284632Y318229D01*
X283452D01*
X282861Y318819D01*
X281681Y321181D02*
X281090Y321771D01*
X279910D01*
X279319Y321181D01*
Y320590D01*
X279910Y320000D01*
X280500D01*
X279910D01*
X279319Y319410D01*
Y318819D01*
X279910Y318229D01*
X281090D01*
X281681Y318819D01*
X278139D02*
X277548Y318229D01*
X276367D01*
X275777Y318819D01*
Y321181D01*
X276367Y321771D01*
X277548D01*
X278139Y321181D01*
Y320590D01*
X277548Y320000D01*
X275777D01*
X233361Y337681D02*
X233952Y338271D01*
X235133D01*
X235723Y337681D01*
Y335319D01*
X235133Y334729D01*
X233952D01*
X233361Y335319D01*
X232181Y337681D02*
X231590Y338271D01*
X230410D01*
X229819Y337681D01*
Y337090D01*
X230410Y336500D01*
X231000D01*
X230410D01*
X229819Y335910D01*
Y335319D01*
X230410Y334729D01*
X231590D01*
X232181Y335319D01*
X228639Y337681D02*
X228048Y338271D01*
X226868D01*
X226277Y337681D01*
Y337090D01*
X226868Y336500D01*
X226277Y335910D01*
Y335319D01*
X226868Y334729D01*
X228048D01*
X228639Y335319D01*
Y335910D01*
X228048Y336500D01*
X228639Y337090D01*
Y337681D01*
X228048Y336500D02*
X226868D01*
X162319Y269861D02*
X161729Y270452D01*
Y271633D01*
X162319Y272223D01*
X164681D01*
X165271Y271633D01*
Y270452D01*
X164681Y269861D01*
X162319Y268681D02*
X161729Y268090D01*
Y266910D01*
X162319Y266319D01*
X162910D01*
X163500Y266910D01*
Y267500D01*
Y266910D01*
X164090Y266319D01*
X164681D01*
X165271Y266910D01*
Y268090D01*
X164681Y268681D01*
X161729Y265139D02*
Y262777D01*
X162319D01*
X164681Y265139D01*
X165271D01*
X162319Y242361D02*
X161729Y242952D01*
Y244132D01*
X162319Y244723D01*
X164681D01*
X165271Y244132D01*
Y242952D01*
X164681Y242361D01*
X162319Y241181D02*
X161729Y240590D01*
Y239410D01*
X162319Y238819D01*
X162910D01*
X163500Y239410D01*
Y240000D01*
Y239410D01*
X164090Y238819D01*
X164681D01*
X165271Y239410D01*
Y240590D01*
X164681Y241181D01*
X161729Y235277D02*
X162319Y236458D01*
X163500Y237639D01*
X164681D01*
X165271Y237048D01*
Y235868D01*
X164681Y235277D01*
X164090D01*
X163500Y235868D01*
Y237639D01*
X212361Y337681D02*
X212952Y338271D01*
X214132D01*
X214723Y337681D01*
Y335319D01*
X214132Y334729D01*
X212952D01*
X212361Y335319D01*
X211181Y337681D02*
X210590Y338271D01*
X209410D01*
X208819Y337681D01*
Y337090D01*
X209410Y336500D01*
X210000D01*
X209410D01*
X208819Y335910D01*
Y335319D01*
X209410Y334729D01*
X210590D01*
X211181Y335319D01*
X205277Y338271D02*
X207639D01*
Y336500D01*
X206458Y337090D01*
X205868D01*
X205277Y336500D01*
Y335319D01*
X205868Y334729D01*
X207048D01*
X207639Y335319D01*
X181361Y327681D02*
X181952Y328271D01*
X183133D01*
X183723Y327681D01*
Y325319D01*
X183133Y324729D01*
X181952D01*
X181361Y325319D01*
X180181Y327681D02*
X179590Y328271D01*
X178410D01*
X177819Y327681D01*
Y327090D01*
X178410Y326500D01*
X179000D01*
X178410D01*
X177819Y325910D01*
Y325319D01*
X178410Y324729D01*
X179590D01*
X180181Y325319D01*
X174867Y324729D02*
Y328271D01*
X176639Y326500D01*
X174277D01*
X162319Y292361D02*
X161729Y292952D01*
Y294132D01*
X162319Y294723D01*
X164681D01*
X165271Y294132D01*
Y292952D01*
X164681Y292361D01*
X162319Y291181D02*
X161729Y290590D01*
Y289410D01*
X162319Y288819D01*
X162910D01*
X163500Y289410D01*
Y290000D01*
Y289410D01*
X164090Y288819D01*
X164681D01*
X165271Y289410D01*
Y290590D01*
X164681Y291181D01*
X162319Y287639D02*
X161729Y287048D01*
Y285868D01*
X162319Y285277D01*
X162910D01*
X163500Y285868D01*
Y286458D01*
Y285868D01*
X164090Y285277D01*
X164681D01*
X165271Y285868D01*
Y287048D01*
X164681Y287639D01*
X226066Y174181D02*
X226657Y174771D01*
X227837D01*
X228428Y174181D01*
Y171819D01*
X227837Y171229D01*
X226657D01*
X226066Y171819D01*
X224886Y171229D02*
X223705D01*
X224295D01*
Y174771D01*
X224886Y174181D01*
X219572Y174771D02*
X221934D01*
Y173000D01*
X220753Y173590D01*
X220163D01*
X219572Y173000D01*
Y171819D01*
X220163Y171229D01*
X221343D01*
X221934Y171819D01*
X266066Y174181D02*
X266657Y174771D01*
X267837D01*
X268428Y174181D01*
Y171819D01*
X267837Y171229D01*
X266657D01*
X266066Y171819D01*
X264885Y171229D02*
X263705D01*
X264295D01*
Y174771D01*
X264885Y174181D01*
X259572Y171229D02*
X261934D01*
X259572Y173590D01*
Y174181D01*
X260163Y174771D01*
X261343D01*
X261934Y174181D01*
X207566Y212681D02*
X208157Y213271D01*
X209337D01*
X209928Y212681D01*
Y210319D01*
X209337Y209729D01*
X208157D01*
X207566Y210319D01*
X206385Y209729D02*
X205205D01*
X205795D01*
Y213271D01*
X206385Y212681D01*
X201663Y209729D02*
Y213271D01*
X203434Y211500D01*
X201072D01*
X227976Y212681D02*
X228566Y213271D01*
X229747D01*
X230337Y212681D01*
Y210319D01*
X229747Y209729D01*
X228566D01*
X227976Y210319D01*
X226795Y209729D02*
X225615D01*
X226205D01*
Y213271D01*
X226795Y212681D01*
X223843Y209729D02*
X222663D01*
X223253D01*
Y213271D01*
X223843Y212681D01*
X240566D02*
X241157Y213271D01*
X242337D01*
X242928Y212681D01*
Y210319D01*
X242337Y209729D01*
X241157D01*
X240566Y210319D01*
X239386Y209729D02*
X238205D01*
X238795D01*
Y213271D01*
X239386Y212681D01*
X236434D02*
X235843Y213271D01*
X234663D01*
X234072Y212681D01*
Y210319D01*
X234663Y209729D01*
X235843D01*
X236434Y210319D01*
Y212681D01*
X117090Y137681D02*
X117681Y138271D01*
X118861D01*
X119452Y137681D01*
Y135319D01*
X118861Y134729D01*
X117681D01*
X117090Y135319D01*
X115910D02*
X115319Y134729D01*
X114139D01*
X113548Y135319D01*
Y137681D01*
X114139Y138271D01*
X115319D01*
X115910Y137681D01*
Y137090D01*
X115319Y136500D01*
X113548D01*
X253090Y212681D02*
X253681Y213271D01*
X254861D01*
X255452Y212681D01*
Y210319D01*
X254861Y209729D01*
X253681D01*
X253090Y210319D01*
X251910Y212681D02*
X251319Y213271D01*
X250139D01*
X249548Y212681D01*
Y212090D01*
X250139Y211500D01*
X249548Y210910D01*
Y210319D01*
X250139Y209729D01*
X251319D01*
X251910Y210319D01*
Y210910D01*
X251319Y211500D01*
X251910Y212090D01*
Y212681D01*
X251319Y211500D02*
X250139D01*
X288819Y281090D02*
X288229Y281681D01*
Y282861D01*
X288819Y283452D01*
X291181D01*
X291771Y282861D01*
Y281681D01*
X291181Y281090D01*
X288229Y279910D02*
Y277548D01*
X288819D01*
X291181Y279910D01*
X291771D01*
X252090Y333681D02*
X252681Y334271D01*
X253861D01*
X254452Y333681D01*
Y331319D01*
X253861Y330729D01*
X252681D01*
X252090Y331319D01*
X248548Y334271D02*
X249729Y333681D01*
X250910Y332500D01*
Y331319D01*
X250319Y330729D01*
X249139D01*
X248548Y331319D01*
Y331910D01*
X249139Y332500D01*
X250910D01*
X156319Y320590D02*
X155729Y321181D01*
Y322361D01*
X156319Y322952D01*
X158681D01*
X159271Y322361D01*
Y321181D01*
X158681Y320590D01*
X155729Y317048D02*
Y319410D01*
X157500D01*
X156910Y318229D01*
Y317639D01*
X157500Y317048D01*
X158681D01*
X159271Y317639D01*
Y318819D01*
X158681Y319410D01*
X188590Y33681D02*
X189181Y34271D01*
X190361D01*
X190952Y33681D01*
Y31319D01*
X190361Y30729D01*
X189181D01*
X188590Y31319D01*
X185639Y30729D02*
Y34271D01*
X187410Y32500D01*
X185048D01*
X188590Y8681D02*
X189181Y9271D01*
X190361D01*
X190952Y8681D01*
Y6319D01*
X190361Y5729D01*
X189181D01*
X188590Y6319D01*
X187410Y8681D02*
X186819Y9271D01*
X185639D01*
X185048Y8681D01*
Y8090D01*
X185639Y7500D01*
X186229D01*
X185639D01*
X185048Y6910D01*
Y6319D01*
X185639Y5729D01*
X186819D01*
X187410Y6319D01*
X148590Y8681D02*
X149181Y9271D01*
X150361D01*
X150952Y8681D01*
Y6319D01*
X150361Y5729D01*
X149181D01*
X148590Y6319D01*
X145048Y5729D02*
X147410D01*
X145048Y8090D01*
Y8681D01*
X145639Y9271D01*
X146819D01*
X147410Y8681D01*
X189000Y58681D02*
X189590Y59271D01*
X190771D01*
X191361Y58681D01*
Y56319D01*
X190771Y55729D01*
X189590D01*
X189000Y56319D01*
X187819Y55729D02*
X186639D01*
X187229D01*
Y59271D01*
X187819Y58681D01*
D78*
X227595Y243142D02*
X217756D01*
Y249701D01*
X219396Y259541D02*
X225956D01*
X227595Y257901D01*
Y254621D01*
X225956Y252981D01*
X219396D01*
X217756Y254621D01*
Y257901D01*
X221036Y256261D02*
X217756Y259541D01*
Y257901D02*
X219396Y259541D01*
X227595Y269380D02*
Y262821D01*
X222676D01*
Y266100D01*
Y262821D01*
X217756D01*
Y272660D02*
X227595D01*
Y277579D01*
X225956Y279219D01*
X222676D01*
X221036Y277579D01*
Y272660D01*
X217756Y282499D02*
Y285779D01*
Y284139D01*
X227595D01*
X225956Y282499D01*
X217756Y295618D02*
X227595D01*
X222676Y290699D01*
Y297258D01*
X217756Y305458D02*
X227595D01*
X222676Y300538D01*
Y307098D01*
D79*
X184703Y119313D02*
X183720Y118329D01*
X181752D01*
X180768Y119313D01*
Y120297D01*
X181752Y121281D01*
X183720D01*
X184703Y122264D01*
Y123248D01*
X183720Y124232D01*
X181752D01*
X180768Y123248D01*
X190607Y119313D02*
X189623Y118329D01*
X187655D01*
X186671Y119313D01*
Y120297D01*
X187655Y121281D01*
X189623D01*
X190607Y122264D01*
Y123248D01*
X189623Y124232D01*
X187655D01*
X186671Y123248D01*
X195527Y118329D02*
X193559D01*
X192575Y119313D01*
Y123248D01*
X193559Y124232D01*
X195527D01*
X196511Y123248D01*
Y119313D01*
X195527Y118329D01*
X198478Y124232D02*
Y118329D01*
X201430D01*
X202414Y119313D01*
Y121281D01*
X201430Y122264D01*
X198478D01*
X204382Y124232D02*
X206350D01*
X205366D01*
Y118329D01*
X204382Y119313D01*
X213238Y118329D02*
X211270Y119313D01*
X209302Y121281D01*
Y123248D01*
X210286Y124232D01*
X212254D01*
X213238Y123248D01*
Y122264D01*
X212254Y121281D01*
X209302D01*
X262796Y123187D02*
X263780Y124171D01*
X265748D01*
X266732Y123187D01*
Y122203D01*
X265748Y121220D01*
X263780D01*
X262796Y120236D01*
Y119252D01*
X263780Y118268D01*
X265748D01*
X266732Y119252D01*
X256893Y123187D02*
X257877Y124171D01*
X259845D01*
X260829Y123187D01*
Y122203D01*
X259845Y121220D01*
X257877D01*
X256893Y120236D01*
Y119252D01*
X257877Y118268D01*
X259845D01*
X260829Y119252D01*
X251973Y124171D02*
X253941D01*
X254925Y123187D01*
Y119252D01*
X253941Y118268D01*
X251973D01*
X250989Y119252D01*
Y123187D01*
X251973Y124171D01*
X249022Y118268D02*
Y124171D01*
X246070D01*
X245086Y123187D01*
Y121220D01*
X246070Y120236D01*
X249022D01*
X243118Y118268D02*
X241150D01*
X242134D01*
Y124171D01*
X243118Y123187D01*
X234262Y124171D02*
X236230Y123187D01*
X238198Y121220D01*
Y119252D01*
X237214Y118268D01*
X235246D01*
X234262Y119252D01*
Y120236D01*
X235246Y121220D01*
X238198D01*
D80*
X119436Y82248D02*
Y87496D01*
X122060Y84872D02*
X116812D01*
X122060Y90119D02*
X123372Y91431D01*
Y94055D01*
X122060Y95367D01*
X120748D01*
X119436Y94055D01*
Y92743D01*
Y94055D01*
X118124Y95367D01*
X116812D01*
X115500Y94055D01*
Y91431D01*
X116812Y90119D01*
X123372Y97991D02*
X118124D01*
X115500Y100615D01*
X118124Y103239D01*
X123372D01*
X149060Y77496D02*
X150372Y76184D01*
Y73560D01*
X149060Y72248D01*
X143812D01*
X142500Y73560D01*
Y76184D01*
X143812Y77496D01*
X142500Y80120D02*
X150372D01*
Y84055D01*
X149060Y85367D01*
X146436D01*
X145124Y84055D01*
Y80120D01*
Y82743D02*
X142500Y85367D01*
Y87991D02*
Y90615D01*
Y89303D01*
X150372D01*
X149060Y87991D01*
X150372Y99798D02*
X149060Y97174D01*
X146436Y94551D01*
X143812D01*
X142500Y95863D01*
Y98486D01*
X143812Y99798D01*
X145124D01*
X146436Y98486D01*
Y94551D01*
X142500Y102422D02*
Y105046D01*
Y103734D01*
X150372D01*
X149060Y102422D01*
X150372Y114229D02*
X149060Y111605D01*
X146436Y108982D01*
X143812D01*
X142500Y110293D01*
Y112917D01*
X143812Y114229D01*
X145124D01*
X146436Y112917D01*
Y108982D01*
%TF.MD5,07c3fdd0982c059f066eede6ac9839bb*%
M02*
