%TF.GenerationSoftware,Altium Limited,Altium Designer,21.2.1 (34)*%
G04 Layer_Color=0*
%FSLAX25Y25*%
%MOIN*%
%TF.SameCoordinates,3D92BD4A-1653-4209-B07E-4AD3ED082CDC*%
%TF.FilePolarity,Positive*%
%TF.FileFunction,Plated,1,2,PTH,Drill*%
%TF.Part,Single*%
G01*
G75*
%TA.AperFunction,ComponentDrill*%
%ADD146C,0.03937*%
%ADD147C,0.05906*%
%ADD148C,0.04724*%
%ADD149C,0.03937*%
%ADD150C,0.05906*%
%ADD151C,0.03543*%
%TA.AperFunction,ViaDrill,NotFilled*%
%ADD152C,0.01181*%
%ADD153C,0.01968*%
D146*
X245000Y45000D02*
D03*
X255000D02*
D03*
X265000D02*
D03*
X235000D02*
D03*
X255000Y22500D02*
D03*
X265000D02*
D03*
X60000Y20000D02*
D03*
X70000D02*
D03*
X80000D02*
D03*
X50000D02*
D03*
X100000Y20000D02*
D03*
X130000D02*
D03*
X120000D02*
D03*
X110000D02*
D03*
X310000Y12500D02*
D03*
X300000D02*
D03*
X290000D02*
D03*
X280000D02*
D03*
X80000Y490000D02*
D03*
X90000D02*
D03*
X50000D02*
D03*
X60000D02*
D03*
X235000Y70000D02*
D03*
X265000D02*
D03*
X255000D02*
D03*
X245000D02*
D03*
X285000D02*
D03*
X315000D02*
D03*
X305000D02*
D03*
X295000D02*
D03*
Y45000D02*
D03*
X305000D02*
D03*
X315000D02*
D03*
X285000D02*
D03*
X235000Y12500D02*
D03*
X245000D02*
D03*
X255000D02*
D03*
X265000D02*
D03*
X185157Y45000D02*
D03*
X215157D02*
D03*
X205157D02*
D03*
X195157D02*
D03*
X155000Y20000D02*
D03*
X165000Y20000D02*
D03*
X195000Y20000D02*
D03*
X205000D02*
D03*
X215000D02*
D03*
X185000D02*
D03*
Y70000D02*
D03*
X215000D02*
D03*
X205000D02*
D03*
X195000D02*
D03*
D147*
X120000Y485000D02*
D03*
X140000D02*
D03*
X160000D02*
D03*
X300000D02*
D03*
X320000D02*
D03*
X340000D02*
D03*
X240000D02*
D03*
X260000D02*
D03*
X280000D02*
D03*
X180000D02*
D03*
X200000D02*
D03*
X220000D02*
D03*
D148*
X185000Y181000D02*
D03*
Y165252D02*
D03*
X208622D02*
D03*
Y181000D02*
D03*
X248622D02*
D03*
Y165252D02*
D03*
X225000D02*
D03*
Y181000D02*
D03*
X265000D02*
D03*
Y165252D02*
D03*
X288622D02*
D03*
Y181000D02*
D03*
D149*
X310000Y139527D02*
D03*
Y169527D02*
D03*
Y159527D02*
D03*
Y149527D02*
D03*
X342500Y245000D02*
D03*
Y265000D02*
D03*
Y275000D02*
D03*
Y285000D02*
D03*
Y295000D02*
D03*
Y305000D02*
D03*
Y255000D02*
D03*
Y235000D02*
D03*
Y140000D02*
D03*
Y150000D02*
D03*
Y160000D02*
D03*
Y105000D02*
D03*
Y115000D02*
D03*
Y125000D02*
D03*
Y320000D02*
D03*
Y360000D02*
D03*
Y350000D02*
D03*
Y340000D02*
D03*
Y330000D02*
D03*
X310000Y99527D02*
D03*
Y109527D02*
D03*
Y119527D02*
D03*
Y89527D02*
D03*
X342500Y190000D02*
D03*
Y200000D02*
D03*
Y210000D02*
D03*
Y220000D02*
D03*
Y180000D02*
D03*
Y45000D02*
D03*
Y85000D02*
D03*
Y75000D02*
D03*
Y65000D02*
D03*
Y55000D02*
D03*
D150*
X30000Y70000D02*
D03*
Y50000D02*
D03*
Y460000D02*
D03*
Y440000D02*
D03*
Y420000D02*
D03*
Y400000D02*
D03*
Y380000D02*
D03*
Y360000D02*
D03*
Y340000D02*
D03*
Y320000D02*
D03*
Y300000D02*
D03*
Y230000D02*
D03*
Y250000D02*
D03*
Y270000D02*
D03*
Y210000D02*
D03*
Y190000D02*
D03*
Y170000D02*
D03*
Y150000D02*
D03*
Y130000D02*
D03*
Y110000D02*
D03*
D151*
X127500Y150000D02*
D03*
X147500D02*
D03*
D152*
X81614Y120039D02*
D03*
Y124370D02*
D03*
Y128701D02*
D03*
Y133031D02*
D03*
Y115709D02*
D03*
X77284D02*
D03*
Y120039D02*
D03*
Y128701D02*
D03*
Y133031D02*
D03*
Y137362D02*
D03*
Y141693D02*
D03*
Y124370D02*
D03*
X85945Y115709D02*
D03*
Y120039D02*
D03*
Y124370D02*
D03*
Y128701D02*
D03*
Y133031D02*
D03*
Y137362D02*
D03*
X81614D02*
D03*
X85945Y141693D02*
D03*
X81614D02*
D03*
X85945Y146024D02*
D03*
X81614D02*
D03*
X77284D02*
D03*
Y206024D02*
D03*
X81614D02*
D03*
X85945D02*
D03*
X81614Y201693D02*
D03*
X85945D02*
D03*
X81614Y197362D02*
D03*
X85945D02*
D03*
Y193032D02*
D03*
Y188701D02*
D03*
Y184370D02*
D03*
Y180039D02*
D03*
Y175709D02*
D03*
X77284Y184370D02*
D03*
Y201693D02*
D03*
Y197362D02*
D03*
Y193032D02*
D03*
Y188701D02*
D03*
Y180039D02*
D03*
Y175709D02*
D03*
X81614D02*
D03*
Y193032D02*
D03*
Y188701D02*
D03*
Y184370D02*
D03*
Y180039D02*
D03*
Y240039D02*
D03*
Y244370D02*
D03*
Y248701D02*
D03*
Y253031D02*
D03*
Y235709D02*
D03*
X77284D02*
D03*
Y240039D02*
D03*
Y248701D02*
D03*
Y253031D02*
D03*
Y257362D02*
D03*
Y261693D02*
D03*
Y244370D02*
D03*
X85945Y235709D02*
D03*
Y240039D02*
D03*
Y244370D02*
D03*
Y248701D02*
D03*
Y253031D02*
D03*
Y257362D02*
D03*
X81614D02*
D03*
X85945Y261693D02*
D03*
X81614D02*
D03*
X85945Y266024D02*
D03*
X81614D02*
D03*
X77284D02*
D03*
Y336024D02*
D03*
X81614D02*
D03*
X85945D02*
D03*
X81614Y331693D02*
D03*
X85945D02*
D03*
X81614Y327362D02*
D03*
X85945D02*
D03*
Y323031D02*
D03*
Y318701D02*
D03*
Y314370D02*
D03*
Y310039D02*
D03*
Y305709D02*
D03*
X77284Y314370D02*
D03*
Y331693D02*
D03*
Y327362D02*
D03*
Y323031D02*
D03*
Y318701D02*
D03*
Y310039D02*
D03*
Y305709D02*
D03*
X81614D02*
D03*
Y323031D02*
D03*
Y318701D02*
D03*
Y314370D02*
D03*
Y310039D02*
D03*
Y370039D02*
D03*
Y374370D02*
D03*
Y378701D02*
D03*
Y383032D02*
D03*
Y365709D02*
D03*
X77284D02*
D03*
Y370039D02*
D03*
Y378701D02*
D03*
Y383032D02*
D03*
Y387362D02*
D03*
Y391693D02*
D03*
Y374370D02*
D03*
X85945Y365709D02*
D03*
Y370039D02*
D03*
Y374370D02*
D03*
Y378701D02*
D03*
Y383032D02*
D03*
Y387362D02*
D03*
X81614D02*
D03*
X85945Y391693D02*
D03*
X81614D02*
D03*
X85945Y396024D02*
D03*
X81614D02*
D03*
X77284D02*
D03*
Y456024D02*
D03*
X81614D02*
D03*
X85945D02*
D03*
X81614Y451693D02*
D03*
X85945D02*
D03*
X81614Y447362D02*
D03*
X85945D02*
D03*
Y443032D02*
D03*
Y438701D02*
D03*
Y434370D02*
D03*
Y430039D02*
D03*
Y425709D02*
D03*
X77284Y434370D02*
D03*
Y451693D02*
D03*
Y447362D02*
D03*
Y443032D02*
D03*
Y438701D02*
D03*
Y430039D02*
D03*
Y425709D02*
D03*
X81614D02*
D03*
Y443032D02*
D03*
Y438701D02*
D03*
Y434370D02*
D03*
Y430039D02*
D03*
X135039Y433386D02*
D03*
X139370D02*
D03*
X143701D02*
D03*
X148031D02*
D03*
X130709D02*
D03*
Y437716D02*
D03*
X135039D02*
D03*
X143701D02*
D03*
X148031D02*
D03*
X152362D02*
D03*
X156693D02*
D03*
X139370D02*
D03*
X130709Y429055D02*
D03*
X135039D02*
D03*
X139370D02*
D03*
X143701D02*
D03*
X148031D02*
D03*
X152362D02*
D03*
Y433386D02*
D03*
X156693Y429055D02*
D03*
Y433386D02*
D03*
X161024Y429055D02*
D03*
Y433386D02*
D03*
Y437716D02*
D03*
X221024D02*
D03*
Y433386D02*
D03*
Y429055D02*
D03*
X216693Y433386D02*
D03*
Y429055D02*
D03*
X212362Y433386D02*
D03*
Y429055D02*
D03*
X208032D02*
D03*
X203701D02*
D03*
X199370D02*
D03*
X195039D02*
D03*
X190709D02*
D03*
X199370Y437716D02*
D03*
X216693D02*
D03*
X212362D02*
D03*
X208032D02*
D03*
X203701D02*
D03*
X195039D02*
D03*
X190709D02*
D03*
Y433386D02*
D03*
X208032D02*
D03*
X203701D02*
D03*
X199370D02*
D03*
X195039D02*
D03*
X255039D02*
D03*
X259370D02*
D03*
X263701D02*
D03*
X268032D02*
D03*
X250709D02*
D03*
Y437716D02*
D03*
X255039D02*
D03*
X263701D02*
D03*
X268032D02*
D03*
X272362D02*
D03*
X276693D02*
D03*
X259370D02*
D03*
X250709Y429055D02*
D03*
X255039D02*
D03*
X259370D02*
D03*
X263701D02*
D03*
X268032D02*
D03*
X272362D02*
D03*
Y433386D02*
D03*
X276693Y429055D02*
D03*
Y433386D02*
D03*
X281024Y429055D02*
D03*
Y433386D02*
D03*
Y437716D02*
D03*
X341024D02*
D03*
Y433386D02*
D03*
Y429055D02*
D03*
X336693Y433386D02*
D03*
Y429055D02*
D03*
X332362Y433386D02*
D03*
Y429055D02*
D03*
X328031D02*
D03*
X323701D02*
D03*
X319370D02*
D03*
X315039D02*
D03*
X310709D02*
D03*
X319370Y437716D02*
D03*
X336693D02*
D03*
X332362D02*
D03*
X328031D02*
D03*
X323701D02*
D03*
X315039D02*
D03*
X310709D02*
D03*
Y433386D02*
D03*
X328031D02*
D03*
X323701D02*
D03*
X319370D02*
D03*
X315039D02*
D03*
X297500Y417500D02*
D03*
X150892Y242221D02*
D03*
X161500Y245512D02*
D03*
X160500Y270000D02*
D03*
X309500Y126000D02*
D03*
X290500Y147000D02*
D03*
X288000Y144500D02*
D03*
X285500Y149500D02*
D03*
X340000Y503500D02*
D03*
X280000D02*
D03*
X220000D02*
D03*
X160000D02*
D03*
X10000Y109500D02*
D03*
Y169500D02*
D03*
Y229500D02*
D03*
Y299500D02*
D03*
Y359500D02*
D03*
Y419500D02*
D03*
X143500Y398500D02*
D03*
X226653Y99519D02*
D03*
X190644Y160006D02*
D03*
X236281Y294126D02*
D03*
X225000Y77000D02*
D03*
X223498Y99502D02*
D03*
X227500Y143500D02*
D03*
X229828Y141039D02*
D03*
X229000Y77000D02*
D03*
X202797Y236820D02*
D03*
X205257Y239307D02*
D03*
X209386Y241669D02*
D03*
X220500Y302500D02*
D03*
X210500Y310500D02*
D03*
X85001Y35000D02*
D03*
X152584Y208961D02*
D03*
X156500Y209000D02*
D03*
X110027Y41602D02*
D03*
X310000Y36000D02*
D03*
X125000Y228000D02*
D03*
X150500Y277500D02*
D03*
X123500Y275000D02*
D03*
X145000Y192500D02*
D03*
X123000Y169500D02*
D03*
X174000Y355000D02*
D03*
X232000Y255000D02*
D03*
X275878Y275537D02*
D03*
X256000Y275500D02*
D03*
X306680Y260143D02*
D03*
X291500Y302500D02*
D03*
X277500Y299500D02*
D03*
X301000Y278000D02*
D03*
X273356Y279776D02*
D03*
X279935Y278162D02*
D03*
X284000Y246000D02*
D03*
Y233500D02*
D03*
X288500Y361500D02*
D03*
X268000Y356500D02*
D03*
X177500Y417500D02*
D03*
X237500D02*
D03*
X160500Y286000D02*
D03*
X199000Y294500D02*
D03*
X227000Y308500D02*
D03*
X165000Y153500D02*
D03*
X185000Y151595D02*
D03*
X216500Y152000D02*
D03*
X231024Y127123D02*
D03*
X292559Y85059D02*
D03*
X236772Y96148D02*
D03*
X230000Y55500D02*
D03*
X272000Y51000D02*
D03*
X260000Y59000D02*
D03*
X208000Y114500D02*
D03*
X187500D02*
D03*
X253500Y97000D02*
D03*
X312500Y191000D02*
D03*
X327000Y184500D02*
D03*
X329093Y198816D02*
D03*
X331772Y201648D02*
D03*
X282500Y209000D02*
D03*
Y192500D02*
D03*
X246500Y202500D02*
D03*
X247500Y188500D02*
D03*
X215500Y200000D02*
D03*
Y193500D02*
D03*
X172510Y217038D02*
D03*
X188500Y217000D02*
D03*
X172000Y204000D02*
D03*
X175138Y128155D02*
D03*
X187963Y125399D02*
D03*
X219956Y121000D02*
D03*
X279000Y89000D02*
D03*
X273500Y112500D02*
D03*
X221500Y29744D02*
D03*
X153548Y317579D02*
D03*
X332017Y300500D02*
D03*
X205000Y212500D02*
D03*
X222000D02*
D03*
X232265Y310475D02*
D03*
X305000Y349500D02*
D03*
X211000Y336000D02*
D03*
X116662Y291619D02*
D03*
X169063Y219201D02*
D03*
X164500Y242500D02*
D03*
X133936Y297500D02*
D03*
X214996Y398500D02*
D03*
X181500Y332000D02*
D03*
X229844Y336343D02*
D03*
X303000Y382000D02*
D03*
Y375500D02*
D03*
X229500Y354000D02*
D03*
X225500Y392500D02*
D03*
X137500Y270000D02*
D03*
X106500Y265500D02*
D03*
X110000D02*
D03*
X113500D02*
D03*
X134500Y275000D02*
D03*
X300000Y300500D02*
D03*
X282000Y282500D02*
D03*
X182000Y209000D02*
D03*
X135000Y159500D02*
D03*
X224500Y156000D02*
D03*
X220500D02*
D03*
X114500Y149500D02*
D03*
X112000Y144500D02*
D03*
X329252Y265255D02*
D03*
X320500Y236500D02*
D03*
X205010Y152946D02*
D03*
X204925Y142075D02*
D03*
X212500Y116000D02*
D03*
X119000Y60000D02*
D03*
X142386Y75031D02*
D03*
X142330Y71830D02*
D03*
X44500Y86000D02*
D03*
X170500Y82000D02*
D03*
X173500Y32500D02*
D03*
X168500Y124000D02*
D03*
X232500Y25000D02*
D03*
X288500Y231500D02*
D03*
X275000Y352500D02*
D03*
X269000Y346862D02*
D03*
X285500Y225000D02*
D03*
X285419Y221382D02*
D03*
X214000Y237500D02*
D03*
X248536Y245714D02*
D03*
X246537Y243395D02*
D03*
X244500Y241000D02*
D03*
X258780Y250885D02*
D03*
X257475Y253616D02*
D03*
X282500Y126000D02*
D03*
X116500Y226500D02*
D03*
X111470Y197453D02*
D03*
X216617Y142661D02*
D03*
X174500Y7500D02*
D03*
X215000D02*
D03*
X275000Y58000D02*
D03*
X262500Y98500D02*
D03*
X247694Y82722D02*
D03*
Y79551D02*
D03*
X235174Y84783D02*
D03*
X216000Y84500D02*
D03*
X192817Y82221D02*
D03*
X180027D02*
D03*
X214000Y172000D02*
D03*
X202500Y277000D02*
D03*
X199000D02*
D03*
X195500D02*
D03*
X192000D02*
D03*
X284466Y279064D02*
D03*
X189500Y240500D02*
D03*
Y244000D02*
D03*
X188000Y286000D02*
D03*
X219000Y99000D02*
D03*
X274000Y258500D02*
D03*
X275000Y153500D02*
D03*
X278000D02*
D03*
X258578Y281257D02*
D03*
X220500Y260000D02*
D03*
X209500D02*
D03*
X216833D02*
D03*
X213167D02*
D03*
X164500Y219201D02*
D03*
Y227862D02*
D03*
X297388Y265500D02*
D03*
X319394Y277766D02*
D03*
X314500Y279606D02*
D03*
X292500Y263500D02*
D03*
X291500Y260341D02*
D03*
X272500Y309000D02*
D03*
X244000Y306000D02*
D03*
X247268Y302603D02*
D03*
X108362Y446500D02*
D03*
X115500Y432000D02*
D03*
X109000Y449500D02*
D03*
X155609Y365299D02*
D03*
X156362Y353500D02*
D03*
X206957Y371830D02*
D03*
X208500Y347000D02*
D03*
X235500Y158500D02*
D03*
X233000Y156000D02*
D03*
X135062Y327562D02*
D03*
X220500Y311500D02*
D03*
X147000Y261000D02*
D03*
X108500Y205000D02*
D03*
X216726Y323774D02*
D03*
X109500Y138000D02*
D03*
X287011Y276489D02*
D03*
X115500Y389500D02*
D03*
X99179Y392352D02*
D03*
X196000Y304500D02*
D03*
X217000Y311500D02*
D03*
X99179Y387234D02*
D03*
X112500Y392500D02*
D03*
X219688Y325188D02*
D03*
X254500Y334500D02*
D03*
X118500Y386000D02*
D03*
Y257500D02*
D03*
X130695Y329790D02*
D03*
X199670Y304170D02*
D03*
X124000Y332500D02*
D03*
X172000Y304000D02*
D03*
X99179Y382116D02*
D03*
X185000Y145000D02*
D03*
X195500D02*
D03*
X75000Y35000D02*
D03*
X154000Y229500D02*
D03*
X320000Y375000D02*
D03*
X337382Y416022D02*
D03*
X332263D02*
D03*
X327145D02*
D03*
X277398Y416105D02*
D03*
X267162D02*
D03*
X272297Y416089D02*
D03*
X207343Y416000D02*
D03*
X212461D02*
D03*
X217500D02*
D03*
X157500D02*
D03*
X152461D02*
D03*
X147343D02*
D03*
X99179Y442116D02*
D03*
Y447234D02*
D03*
Y452352D02*
D03*
X115004Y324833D02*
D03*
X99179Y322116D02*
D03*
Y327234D02*
D03*
Y332352D02*
D03*
Y262352D02*
D03*
Y257234D02*
D03*
Y252116D02*
D03*
Y192116D02*
D03*
Y197234D02*
D03*
Y202352D02*
D03*
Y132116D02*
D03*
Y137234D02*
D03*
Y142352D02*
D03*
X266287Y386000D02*
D03*
X236704Y342204D02*
D03*
X252500Y377500D02*
D03*
Y374500D02*
D03*
X244397Y354309D02*
D03*
X252271D02*
D03*
X248334D02*
D03*
X233000Y372000D02*
D03*
X236000D02*
D03*
X239000D02*
D03*
X154000Y409000D02*
D03*
X157000Y406500D02*
D03*
X160000Y403500D02*
D03*
X306447Y399149D02*
D03*
X252500Y380500D02*
D03*
X283638Y324954D02*
D03*
X277000Y388500D02*
D03*
X267078Y375624D02*
D03*
X243500Y387000D02*
D03*
X240000D02*
D03*
X106000Y449500D02*
D03*
X103500Y453500D02*
D03*
X124000Y255354D02*
D03*
X130500Y252500D02*
D03*
X147000Y286000D02*
D03*
X142500Y282000D02*
D03*
X147000D02*
D03*
D153*
X165000Y71500D02*
D03*
X118000Y87000D02*
D03*
X116500Y83000D02*
D03*
X61500Y112500D02*
D03*
Y172500D02*
D03*
Y232500D02*
D03*
Y302500D02*
D03*
Y362500D02*
D03*
Y422500D02*
D03*
X307500Y453500D02*
D03*
X247500D02*
D03*
X187500D02*
D03*
X192000D02*
D03*
X127500D02*
D03*
X123000D02*
D03*
X120000Y79000D02*
D03*
X116500D02*
D03*
X123500D02*
D03*
X120000Y75000D02*
D03*
X116500Y75000D02*
D03*
X123500D02*
D03*
X120000Y83000D02*
D03*
X51500Y457000D02*
D03*
Y397000D02*
D03*
Y337000D02*
D03*
Y267000D02*
D03*
Y207000D02*
D03*
X61500Y427000D02*
D03*
Y418000D02*
D03*
Y367000D02*
D03*
Y358000D02*
D03*
Y307000D02*
D03*
Y298000D02*
D03*
Y237000D02*
D03*
Y228000D02*
D03*
Y177000D02*
D03*
Y168000D02*
D03*
Y117000D02*
D03*
Y108000D02*
D03*
X183000Y453500D02*
D03*
X243000D02*
D03*
X303000D02*
D03*
X51500Y147000D02*
D03*
X312000Y453500D02*
D03*
X339100Y463613D02*
D03*
X252000Y453500D02*
D03*
X279100Y463613D02*
D03*
X219100D02*
D03*
X159100D02*
D03*
X132000Y453500D02*
D03*
%TF.MD5,7e2715cc399a4588a60e9fe8888700dd*%
M02*
