%TF.GenerationSoftware,Altium Limited,Altium Designer,21.2.1 (34)*%
G04 Layer_Color=2752767*
%FSLAX25Y25*%
%MOIN*%
%TF.SameCoordinates,3D92BD4A-1653-4209-B07E-4AD3ED082CDC*%
%TF.FilePolarity,Positive*%
%TF.FileFunction,Drawing*%
%TF.Part,Single*%
G01*
G75*
%TA.AperFunction,NonConductor*%
%ADD155C,0.00500*%
%ADD156C,0.00667*%
D155*
X243000Y43000D02*
Y47000D01*
X247000D01*
Y43000D01*
X243000D01*
X253000D02*
Y47000D01*
X257000D01*
Y43000D01*
X253000D01*
X263000D02*
Y47000D01*
X267000D01*
Y43000D01*
X263000D01*
X233000D02*
Y47000D01*
X237000D01*
Y43000D01*
X233000D01*
X253000Y20500D02*
Y24500D01*
X257000D01*
Y20500D01*
X253000D01*
X263000D02*
Y24500D01*
X267000D01*
Y20500D01*
X263000D01*
X120000Y483000D02*
X118000Y487000D01*
X122000D01*
X120000Y483000D01*
X140000D02*
X138000Y487000D01*
X142000D01*
X140000Y483000D01*
X160000D02*
X158000Y487000D01*
X162000D01*
X160000Y483000D01*
X185000Y179000D02*
X186000Y180000D01*
X187000D01*
X186000Y181000D01*
X187000Y182000D01*
X186000D01*
X185000Y183000D01*
X184000Y182000D01*
X183000D01*
X184000Y181000D01*
X183000Y180000D01*
X184000D01*
X185000Y179000D01*
Y163252D02*
X186000Y164252D01*
X187000D01*
X186000Y165252D01*
X187000Y166252D01*
X186000D01*
X185000Y167252D01*
X184000Y166252D01*
X183000D01*
X184000Y165252D01*
X183000Y164252D01*
X184000D01*
X185000Y163252D01*
X208622D02*
X209622Y164252D01*
X210622D01*
X209622Y165252D01*
X210622Y166252D01*
X209622D01*
X208622Y167252D01*
X207622Y166252D01*
X206622D01*
X207622Y165252D01*
X206622Y164252D01*
X207622D01*
X208622Y163252D01*
Y179000D02*
X209622Y180000D01*
X210622D01*
X209622Y181000D01*
X210622Y182000D01*
X209622D01*
X208622Y183000D01*
X207622Y182000D01*
X206622D01*
X207622Y181000D01*
X206622Y180000D01*
X207622D01*
X208622Y179000D01*
X248622D02*
X249622Y180000D01*
X250622D01*
X249622Y181000D01*
X250622Y182000D01*
X249622D01*
X248622Y183000D01*
X247622Y182000D01*
X246622D01*
X247622Y181000D01*
X246622Y180000D01*
X247622D01*
X248622Y179000D01*
Y163252D02*
X249622Y164252D01*
X250622D01*
X249622Y165252D01*
X250622Y166252D01*
X249622D01*
X248622Y167252D01*
X247622Y166252D01*
X246622D01*
X247622Y165252D01*
X246622Y164252D01*
X247622D01*
X248622Y163252D01*
X225000D02*
X226000Y164252D01*
X227000D01*
X226000Y165252D01*
X227000Y166252D01*
X226000D01*
X225000Y167252D01*
X224000Y166252D01*
X223000D01*
X224000Y165252D01*
X223000Y164252D01*
X224000D01*
X225000Y163252D01*
Y179000D02*
X226000Y180000D01*
X227000D01*
X226000Y181000D01*
X227000Y182000D01*
X226000D01*
X225000Y183000D01*
X224000Y182000D01*
X223000D01*
X224000Y181000D01*
X223000Y180000D01*
X224000D01*
X225000Y179000D01*
X265000D02*
X266000Y180000D01*
X267000D01*
X266000Y181000D01*
X267000Y182000D01*
X266000D01*
X265000Y183000D01*
X264000Y182000D01*
X263000D01*
X264000Y181000D01*
X263000Y180000D01*
X264000D01*
X265000Y179000D01*
Y163252D02*
X266000Y164252D01*
X267000D01*
X266000Y165252D01*
X267000Y166252D01*
X266000D01*
X265000Y167252D01*
X264000Y166252D01*
X263000D01*
X264000Y165252D01*
X263000Y164252D01*
X264000D01*
X265000Y163252D01*
X288622D02*
X289622Y164252D01*
X290622D01*
X289622Y165252D01*
X290622Y166252D01*
X289622D01*
X288622Y167252D01*
X287622Y166252D01*
X286622D01*
X287622Y165252D01*
X286622Y164252D01*
X287622D01*
X288622Y163252D01*
Y179000D02*
X289622Y180000D01*
X290622D01*
X289622Y181000D01*
X290622Y182000D01*
X289622D01*
X288622Y183000D01*
X287622Y182000D01*
X286622D01*
X287622Y181000D01*
X286622Y180000D01*
X287622D01*
X288622Y179000D01*
X308000Y137527D02*
Y141527D01*
X312000D01*
Y137527D01*
X308000D01*
Y167527D02*
Y171527D01*
X312000D01*
Y167527D01*
X308000D01*
Y157527D02*
Y161527D01*
X312000D01*
Y157527D01*
X308000D01*
Y147527D02*
Y151527D01*
X312000D01*
Y147527D01*
X308000D01*
X30000Y68000D02*
X28000Y72000D01*
X32000D01*
X30000Y68000D01*
Y48000D02*
X28000Y52000D01*
X32000D01*
X30000Y48000D01*
X340500Y243000D02*
Y247000D01*
X344500D01*
Y243000D01*
X340500D01*
Y263000D02*
Y267000D01*
X344500D01*
Y263000D01*
X340500D01*
Y273000D02*
Y277000D01*
X344500D01*
Y273000D01*
X340500D01*
Y283000D02*
Y287000D01*
X344500D01*
Y283000D01*
X340500D01*
Y293000D02*
Y297000D01*
X344500D01*
Y293000D01*
X340500D01*
Y303000D02*
Y307000D01*
X344500D01*
Y303000D01*
X340500D01*
Y253000D02*
Y257000D01*
X344500D01*
Y253000D01*
X340500D01*
Y233000D02*
Y237000D01*
X344500D01*
Y233000D01*
X340500D01*
X58000Y18000D02*
Y22000D01*
X62000D01*
Y18000D01*
X58000D01*
X68000D02*
Y22000D01*
X72000D01*
Y18000D01*
X68000D01*
X78000D02*
Y22000D01*
X82000D01*
Y18000D01*
X78000D01*
X48000D02*
Y22000D01*
X52000D01*
Y18000D01*
X48000D01*
X340500Y138000D02*
Y142000D01*
X344500D01*
Y138000D01*
X340500D01*
Y148000D02*
Y152000D01*
X344500D01*
Y148000D01*
X340500D01*
Y158000D02*
Y162000D01*
X344500D01*
Y158000D01*
X340500D01*
Y103000D02*
Y107000D01*
X344500D01*
Y103000D01*
X340500D01*
Y113000D02*
Y117000D01*
X344500D01*
Y113000D01*
X340500D01*
Y123000D02*
Y127000D01*
X344500D01*
Y123000D01*
X340500D01*
X300000Y483000D02*
X298000Y487000D01*
X302000D01*
X300000Y483000D01*
X320000D02*
X318000Y487000D01*
X322000D01*
X320000Y483000D01*
X340000D02*
X338000Y487000D01*
X342000D01*
X340000Y483000D01*
X240000D02*
X238000Y487000D01*
X242000D01*
X240000Y483000D01*
X260000D02*
X258000Y487000D01*
X262000D01*
X260000Y483000D01*
X280000D02*
X278000Y487000D01*
X282000D01*
X280000Y483000D01*
X180000D02*
X178000Y487000D01*
X182000D01*
X180000Y483000D01*
X200000D02*
X198000Y487000D01*
X202000D01*
X200000Y483000D01*
X220000D02*
X218000Y487000D01*
X222000D01*
X220000Y483000D01*
X340500Y318000D02*
Y322000D01*
X344500D01*
Y318000D01*
X340500D01*
Y358000D02*
Y362000D01*
X344500D01*
Y358000D01*
X340500D01*
Y348000D02*
Y352000D01*
X344500D01*
Y348000D01*
X340500D01*
Y338000D02*
Y342000D01*
X344500D01*
Y338000D01*
X340500D01*
Y328000D02*
Y332000D01*
X344500D01*
Y328000D01*
X340500D01*
X30000Y458000D02*
X28000Y462000D01*
X32000D01*
X30000Y458000D01*
Y438000D02*
X28000Y442000D01*
X32000D01*
X30000Y438000D01*
Y418000D02*
X28000Y422000D01*
X32000D01*
X30000Y418000D01*
Y398000D02*
X28000Y402000D01*
X32000D01*
X30000Y398000D01*
Y378000D02*
X28000Y382000D01*
X32000D01*
X30000Y378000D01*
Y358000D02*
X28000Y362000D01*
X32000D01*
X30000Y358000D01*
Y338000D02*
X28000Y342000D01*
X32000D01*
X30000Y338000D01*
Y318000D02*
X28000Y322000D01*
X32000D01*
X30000Y318000D01*
Y298000D02*
X28000Y302000D01*
X32000D01*
X30000Y298000D01*
Y228000D02*
X28000Y232000D01*
X32000D01*
X30000Y228000D01*
Y248000D02*
X28000Y252000D01*
X32000D01*
X30000Y248000D01*
Y268000D02*
X28000Y272000D01*
X32000D01*
X30000Y268000D01*
Y208000D02*
X28000Y212000D01*
X32000D01*
X30000Y208000D01*
Y188000D02*
X28000Y192000D01*
X32000D01*
X30000Y188000D01*
Y168000D02*
X28000Y172000D01*
X32000D01*
X30000Y168000D01*
Y148000D02*
X28000Y152000D01*
X32000D01*
X30000Y148000D01*
Y128000D02*
X28000Y132000D01*
X32000D01*
X30000Y128000D01*
Y108000D02*
X28000Y112000D01*
X32000D01*
X30000Y108000D01*
X98000Y18000D02*
Y22000D01*
X102000D01*
Y18000D01*
X98000D01*
X128000D02*
Y22000D01*
X132000D01*
Y18000D01*
X128000D01*
X118000D02*
Y22000D01*
X122000D01*
Y18000D01*
X118000D01*
X108000D02*
Y22000D01*
X112000D01*
Y18000D01*
X108000D01*
X308000Y10500D02*
Y14500D01*
X312000D01*
Y10500D01*
X308000D01*
X298000D02*
Y14500D01*
X302000D01*
Y10500D01*
X298000D01*
X288000D02*
Y14500D01*
X292000D01*
Y10500D01*
X288000D01*
X278000D02*
Y14500D01*
X282000D01*
Y10500D01*
X278000D01*
X78000Y488000D02*
Y492000D01*
X82000D01*
Y488000D01*
X78000D01*
X88000D02*
Y492000D01*
X92000D01*
Y488000D01*
X88000D01*
X308000Y97527D02*
Y101527D01*
X312000D01*
Y97527D01*
X308000D01*
Y107527D02*
Y111527D01*
X312000D01*
Y107527D01*
X308000D01*
Y117527D02*
Y121527D01*
X312000D01*
Y117527D01*
X308000D01*
Y87527D02*
Y91527D01*
X312000D01*
Y87527D01*
X308000D01*
X48000Y488000D02*
Y492000D01*
X52000D01*
Y488000D01*
X48000D01*
X58000D02*
Y492000D01*
X62000D01*
Y488000D01*
X58000D01*
X340500Y188000D02*
Y192000D01*
X344500D01*
Y188000D01*
X340500D01*
Y198000D02*
Y202000D01*
X344500D01*
Y198000D01*
X340500D01*
Y208000D02*
Y212000D01*
X344500D01*
Y208000D01*
X340500D01*
Y218000D02*
Y222000D01*
X344500D01*
Y218000D01*
X340500D01*
Y178000D02*
Y182000D01*
X344500D01*
Y178000D01*
X340500D01*
X233000Y68000D02*
Y72000D01*
X237000D01*
Y68000D01*
X233000D01*
X263000D02*
Y72000D01*
X267000D01*
Y68000D01*
X263000D01*
X253000D02*
Y72000D01*
X257000D01*
Y68000D01*
X253000D01*
X243000D02*
Y72000D01*
X247000D01*
Y68000D01*
X243000D01*
X283000D02*
Y72000D01*
X287000D01*
Y68000D01*
X283000D01*
X313000D02*
Y72000D01*
X317000D01*
Y68000D01*
X313000D01*
X303000D02*
Y72000D01*
X307000D01*
Y68000D01*
X303000D01*
X293000D02*
Y72000D01*
X297000D01*
Y68000D01*
X293000D01*
Y43000D02*
Y47000D01*
X297000D01*
Y43000D01*
X293000D01*
X303000D02*
Y47000D01*
X307000D01*
Y43000D01*
X303000D01*
X313000D02*
Y47000D01*
X317000D01*
Y43000D01*
X313000D01*
X283000D02*
Y47000D01*
X287000D01*
Y43000D01*
X283000D01*
X233000Y10500D02*
Y14500D01*
X237000D01*
Y10500D01*
X233000D01*
X243000D02*
Y14500D01*
X247000D01*
Y10500D01*
X243000D01*
X253000D02*
Y14500D01*
X257000D01*
Y10500D01*
X253000D01*
X263000D02*
Y14500D01*
X267000D01*
Y10500D01*
X263000D01*
X340500Y43000D02*
Y47000D01*
X344500D01*
Y43000D01*
X340500D01*
Y83000D02*
Y87000D01*
X344500D01*
Y83000D01*
X340500D01*
Y73000D02*
Y77000D01*
X344500D01*
Y73000D01*
X340500D01*
Y63000D02*
Y67000D01*
X344500D01*
Y63000D01*
X340500D01*
Y53000D02*
Y57000D01*
X344500D01*
Y53000D01*
X340500D01*
X183157Y43000D02*
Y47000D01*
X187157D01*
Y43000D01*
X183157D01*
X213157D02*
Y47000D01*
X217157D01*
Y43000D01*
X213157D01*
X203157D02*
Y47000D01*
X207157D01*
Y43000D01*
X203157D01*
X193157D02*
Y47000D01*
X197157D01*
Y43000D01*
X193157D01*
X153000Y18000D02*
Y22000D01*
X157000D01*
Y18000D01*
X153000D01*
X163000Y18000D02*
Y22000D01*
X167000D01*
Y18000D01*
X163000D01*
X193000Y18000D02*
Y22000D01*
X197000D01*
Y18000D01*
X193000D01*
X203000D02*
Y22000D01*
X207000D01*
Y18000D01*
X203000D01*
X213000D02*
Y22000D01*
X217000D01*
Y18000D01*
X213000D01*
X183000D02*
Y22000D01*
X187000D01*
Y18000D01*
X183000D01*
Y68000D02*
Y72000D01*
X187000D01*
Y68000D01*
X183000D01*
X213000D02*
Y72000D01*
X217000D01*
Y68000D01*
X213000D01*
X203000D02*
Y72000D01*
X207000D01*
Y68000D01*
X203000D01*
X193000D02*
Y72000D01*
X197000D01*
Y68000D01*
X193000D01*
X125500Y148000D02*
X126500Y150000D01*
X125500Y152000D01*
X127500Y151000D01*
X129500Y152000D01*
X128500Y150000D01*
X129500Y148000D01*
X127500Y149000D01*
X125500Y148000D01*
X145500D02*
X146500Y150000D01*
X145500Y152000D01*
X147500Y151000D01*
X149500Y152000D01*
X148500Y150000D01*
X149500Y148000D01*
X147500Y149000D01*
X145500Y148000D01*
X80614Y119039D02*
Y118039D01*
X82614D01*
Y119039D01*
X83614D01*
Y121039D01*
X82614D01*
Y122039D01*
X80614D01*
Y121039D01*
X79614D01*
Y119039D01*
X80614D01*
Y123370D02*
Y122370D01*
X82614D01*
Y123370D01*
X83614D01*
Y125370D01*
X82614D01*
Y126370D01*
X80614D01*
Y125370D01*
X79614D01*
Y123370D01*
X80614D01*
Y127701D02*
Y126701D01*
X82614D01*
Y127701D01*
X83614D01*
Y129701D01*
X82614D01*
Y130701D01*
X80614D01*
Y129701D01*
X79614D01*
Y127701D01*
X80614D01*
Y132032D02*
Y131032D01*
X82614D01*
Y132032D01*
X83614D01*
Y134031D01*
X82614D01*
Y135031D01*
X80614D01*
Y134031D01*
X79614D01*
Y132032D01*
X80614D01*
Y114709D02*
Y113709D01*
X82614D01*
Y114709D01*
X83614D01*
Y116709D01*
X82614D01*
Y117709D01*
X80614D01*
Y116709D01*
X79614D01*
Y114709D01*
X80614D01*
X76284D02*
Y113709D01*
X78284D01*
Y114709D01*
X79283D01*
Y116709D01*
X78284D01*
Y117709D01*
X76284D01*
Y116709D01*
X75283D01*
Y114709D01*
X76284D01*
Y119039D02*
Y118039D01*
X78284D01*
Y119039D01*
X79283D01*
Y121039D01*
X78284D01*
Y122039D01*
X76284D01*
Y121039D01*
X75283D01*
Y119039D01*
X76284D01*
Y127701D02*
Y126701D01*
X78284D01*
Y127701D01*
X79283D01*
Y129701D01*
X78284D01*
Y130701D01*
X76284D01*
Y129701D01*
X75283D01*
Y127701D01*
X76284D01*
Y132032D02*
Y131032D01*
X78284D01*
Y132032D01*
X79283D01*
Y134031D01*
X78284D01*
Y135031D01*
X76284D01*
Y134031D01*
X75283D01*
Y132032D01*
X76284D01*
Y136362D02*
Y135362D01*
X78284D01*
Y136362D01*
X79283D01*
Y138362D01*
X78284D01*
Y139362D01*
X76284D01*
Y138362D01*
X75283D01*
Y136362D01*
X76284D01*
Y140693D02*
Y139693D01*
X78284D01*
Y140693D01*
X79283D01*
Y142693D01*
X78284D01*
Y143693D01*
X76284D01*
Y142693D01*
X75283D01*
Y140693D01*
X76284D01*
Y123370D02*
Y122370D01*
X78284D01*
Y123370D01*
X79283D01*
Y125370D01*
X78284D01*
Y126370D01*
X76284D01*
Y125370D01*
X75283D01*
Y123370D01*
X76284D01*
X84945Y114709D02*
Y113709D01*
X86945D01*
Y114709D01*
X87945D01*
Y116709D01*
X86945D01*
Y117709D01*
X84945D01*
Y116709D01*
X83945D01*
Y114709D01*
X84945D01*
Y119039D02*
Y118039D01*
X86945D01*
Y119039D01*
X87945D01*
Y121039D01*
X86945D01*
Y122039D01*
X84945D01*
Y121039D01*
X83945D01*
Y119039D01*
X84945D01*
Y123370D02*
Y122370D01*
X86945D01*
Y123370D01*
X87945D01*
Y125370D01*
X86945D01*
Y126370D01*
X84945D01*
Y125370D01*
X83945D01*
Y123370D01*
X84945D01*
Y127701D02*
Y126701D01*
X86945D01*
Y127701D01*
X87945D01*
Y129701D01*
X86945D01*
Y130701D01*
X84945D01*
Y129701D01*
X83945D01*
Y127701D01*
X84945D01*
Y132032D02*
Y131032D01*
X86945D01*
Y132032D01*
X87945D01*
Y134031D01*
X86945D01*
Y135031D01*
X84945D01*
Y134031D01*
X83945D01*
Y132032D01*
X84945D01*
Y136362D02*
Y135362D01*
X86945D01*
Y136362D01*
X87945D01*
Y138362D01*
X86945D01*
Y139362D01*
X84945D01*
Y138362D01*
X83945D01*
Y136362D01*
X84945D01*
X80614D02*
Y135362D01*
X82614D01*
Y136362D01*
X83614D01*
Y138362D01*
X82614D01*
Y139362D01*
X80614D01*
Y138362D01*
X79614D01*
Y136362D01*
X80614D01*
X84945Y140693D02*
Y139693D01*
X86945D01*
Y140693D01*
X87945D01*
Y142693D01*
X86945D01*
Y143693D01*
X84945D01*
Y142693D01*
X83945D01*
Y140693D01*
X84945D01*
X80614D02*
Y139693D01*
X82614D01*
Y140693D01*
X83614D01*
Y142693D01*
X82614D01*
Y143693D01*
X80614D01*
Y142693D01*
X79614D01*
Y140693D01*
X80614D01*
X84945Y145024D02*
Y144024D01*
X86945D01*
Y145024D01*
X87945D01*
Y147024D01*
X86945D01*
Y148024D01*
X84945D01*
Y147024D01*
X83945D01*
Y145024D01*
X84945D01*
X80614D02*
Y144024D01*
X82614D01*
Y145024D01*
X83614D01*
Y147024D01*
X82614D01*
Y148024D01*
X80614D01*
Y147024D01*
X79614D01*
Y145024D01*
X80614D01*
X76284D02*
Y144024D01*
X78284D01*
Y145024D01*
X79283D01*
Y147024D01*
X78284D01*
Y148024D01*
X76284D01*
Y147024D01*
X75283D01*
Y145024D01*
X76284D01*
Y205024D02*
Y204024D01*
X78284D01*
Y205024D01*
X79283D01*
Y207024D01*
X78284D01*
Y208024D01*
X76284D01*
Y207024D01*
X75283D01*
Y205024D01*
X76284D01*
X80614D02*
Y204024D01*
X82614D01*
Y205024D01*
X83614D01*
Y207024D01*
X82614D01*
Y208024D01*
X80614D01*
Y207024D01*
X79614D01*
Y205024D01*
X80614D01*
X84945D02*
Y204024D01*
X86945D01*
Y205024D01*
X87945D01*
Y207024D01*
X86945D01*
Y208024D01*
X84945D01*
Y207024D01*
X83945D01*
Y205024D01*
X84945D01*
X80614Y200693D02*
Y199693D01*
X82614D01*
Y200693D01*
X83614D01*
Y202693D01*
X82614D01*
Y203693D01*
X80614D01*
Y202693D01*
X79614D01*
Y200693D01*
X80614D01*
X84945D02*
Y199693D01*
X86945D01*
Y200693D01*
X87945D01*
Y202693D01*
X86945D01*
Y203693D01*
X84945D01*
Y202693D01*
X83945D01*
Y200693D01*
X84945D01*
X80614Y196362D02*
Y195362D01*
X82614D01*
Y196362D01*
X83614D01*
Y198362D01*
X82614D01*
Y199362D01*
X80614D01*
Y198362D01*
X79614D01*
Y196362D01*
X80614D01*
X84945D02*
Y195362D01*
X86945D01*
Y196362D01*
X87945D01*
Y198362D01*
X86945D01*
Y199362D01*
X84945D01*
Y198362D01*
X83945D01*
Y196362D01*
X84945D01*
Y192032D02*
Y191032D01*
X86945D01*
Y192032D01*
X87945D01*
Y194032D01*
X86945D01*
Y195031D01*
X84945D01*
Y194032D01*
X83945D01*
Y192032D01*
X84945D01*
Y187701D02*
Y186701D01*
X86945D01*
Y187701D01*
X87945D01*
Y189701D01*
X86945D01*
Y190701D01*
X84945D01*
Y189701D01*
X83945D01*
Y187701D01*
X84945D01*
Y183370D02*
Y182370D01*
X86945D01*
Y183370D01*
X87945D01*
Y185370D01*
X86945D01*
Y186370D01*
X84945D01*
Y185370D01*
X83945D01*
Y183370D01*
X84945D01*
Y179039D02*
Y178039D01*
X86945D01*
Y179039D01*
X87945D01*
Y181039D01*
X86945D01*
Y182039D01*
X84945D01*
Y181039D01*
X83945D01*
Y179039D01*
X84945D01*
Y174709D02*
Y173709D01*
X86945D01*
Y174709D01*
X87945D01*
Y176709D01*
X86945D01*
Y177709D01*
X84945D01*
Y176709D01*
X83945D01*
Y174709D01*
X84945D01*
X76284Y183370D02*
Y182370D01*
X78284D01*
Y183370D01*
X79283D01*
Y185370D01*
X78284D01*
Y186370D01*
X76284D01*
Y185370D01*
X75283D01*
Y183370D01*
X76284D01*
Y200693D02*
Y199693D01*
X78284D01*
Y200693D01*
X79283D01*
Y202693D01*
X78284D01*
Y203693D01*
X76284D01*
Y202693D01*
X75283D01*
Y200693D01*
X76284D01*
Y196362D02*
Y195362D01*
X78284D01*
Y196362D01*
X79283D01*
Y198362D01*
X78284D01*
Y199362D01*
X76284D01*
Y198362D01*
X75283D01*
Y196362D01*
X76284D01*
Y192032D02*
Y191032D01*
X78284D01*
Y192032D01*
X79283D01*
Y194032D01*
X78284D01*
Y195031D01*
X76284D01*
Y194032D01*
X75283D01*
Y192032D01*
X76284D01*
Y187701D02*
Y186701D01*
X78284D01*
Y187701D01*
X79283D01*
Y189701D01*
X78284D01*
Y190701D01*
X76284D01*
Y189701D01*
X75283D01*
Y187701D01*
X76284D01*
Y179039D02*
Y178039D01*
X78284D01*
Y179039D01*
X79283D01*
Y181039D01*
X78284D01*
Y182039D01*
X76284D01*
Y181039D01*
X75283D01*
Y179039D01*
X76284D01*
Y174709D02*
Y173709D01*
X78284D01*
Y174709D01*
X79283D01*
Y176709D01*
X78284D01*
Y177709D01*
X76284D01*
Y176709D01*
X75283D01*
Y174709D01*
X76284D01*
X80614D02*
Y173709D01*
X82614D01*
Y174709D01*
X83614D01*
Y176709D01*
X82614D01*
Y177709D01*
X80614D01*
Y176709D01*
X79614D01*
Y174709D01*
X80614D01*
Y192032D02*
Y191032D01*
X82614D01*
Y192032D01*
X83614D01*
Y194032D01*
X82614D01*
Y195031D01*
X80614D01*
Y194032D01*
X79614D01*
Y192032D01*
X80614D01*
Y187701D02*
Y186701D01*
X82614D01*
Y187701D01*
X83614D01*
Y189701D01*
X82614D01*
Y190701D01*
X80614D01*
Y189701D01*
X79614D01*
Y187701D01*
X80614D01*
Y183370D02*
Y182370D01*
X82614D01*
Y183370D01*
X83614D01*
Y185370D01*
X82614D01*
Y186370D01*
X80614D01*
Y185370D01*
X79614D01*
Y183370D01*
X80614D01*
Y179039D02*
Y178039D01*
X82614D01*
Y179039D01*
X83614D01*
Y181039D01*
X82614D01*
Y182039D01*
X80614D01*
Y181039D01*
X79614D01*
Y179039D01*
X80614D01*
Y239039D02*
Y238039D01*
X82614D01*
Y239039D01*
X83614D01*
Y241039D01*
X82614D01*
Y242039D01*
X80614D01*
Y241039D01*
X79614D01*
Y239039D01*
X80614D01*
Y243370D02*
Y242370D01*
X82614D01*
Y243370D01*
X83614D01*
Y245370D01*
X82614D01*
Y246370D01*
X80614D01*
Y245370D01*
X79614D01*
Y243370D01*
X80614D01*
Y247701D02*
Y246701D01*
X82614D01*
Y247701D01*
X83614D01*
Y249701D01*
X82614D01*
Y250701D01*
X80614D01*
Y249701D01*
X79614D01*
Y247701D01*
X80614D01*
Y252031D02*
Y251031D01*
X82614D01*
Y252031D01*
X83614D01*
Y254031D01*
X82614D01*
Y255031D01*
X80614D01*
Y254031D01*
X79614D01*
Y252031D01*
X80614D01*
Y234709D02*
Y233709D01*
X82614D01*
Y234709D01*
X83614D01*
Y236709D01*
X82614D01*
Y237709D01*
X80614D01*
Y236709D01*
X79614D01*
Y234709D01*
X80614D01*
X76284D02*
Y233709D01*
X78284D01*
Y234709D01*
X79283D01*
Y236709D01*
X78284D01*
Y237709D01*
X76284D01*
Y236709D01*
X75283D01*
Y234709D01*
X76284D01*
Y239039D02*
Y238039D01*
X78284D01*
Y239039D01*
X79283D01*
Y241039D01*
X78284D01*
Y242039D01*
X76284D01*
Y241039D01*
X75283D01*
Y239039D01*
X76284D01*
Y247701D02*
Y246701D01*
X78284D01*
Y247701D01*
X79283D01*
Y249701D01*
X78284D01*
Y250701D01*
X76284D01*
Y249701D01*
X75283D01*
Y247701D01*
X76284D01*
Y252031D02*
Y251031D01*
X78284D01*
Y252031D01*
X79283D01*
Y254031D01*
X78284D01*
Y255031D01*
X76284D01*
Y254031D01*
X75283D01*
Y252031D01*
X76284D01*
Y256362D02*
Y255362D01*
X78284D01*
Y256362D01*
X79283D01*
Y258362D01*
X78284D01*
Y259362D01*
X76284D01*
Y258362D01*
X75283D01*
Y256362D01*
X76284D01*
Y260693D02*
Y259693D01*
X78284D01*
Y260693D01*
X79283D01*
Y262693D01*
X78284D01*
Y263693D01*
X76284D01*
Y262693D01*
X75283D01*
Y260693D01*
X76284D01*
Y243370D02*
Y242370D01*
X78284D01*
Y243370D01*
X79283D01*
Y245370D01*
X78284D01*
Y246370D01*
X76284D01*
Y245370D01*
X75283D01*
Y243370D01*
X76284D01*
X84945Y234709D02*
Y233709D01*
X86945D01*
Y234709D01*
X87945D01*
Y236709D01*
X86945D01*
Y237709D01*
X84945D01*
Y236709D01*
X83945D01*
Y234709D01*
X84945D01*
Y239039D02*
Y238039D01*
X86945D01*
Y239039D01*
X87945D01*
Y241039D01*
X86945D01*
Y242039D01*
X84945D01*
Y241039D01*
X83945D01*
Y239039D01*
X84945D01*
Y243370D02*
Y242370D01*
X86945D01*
Y243370D01*
X87945D01*
Y245370D01*
X86945D01*
Y246370D01*
X84945D01*
Y245370D01*
X83945D01*
Y243370D01*
X84945D01*
Y247701D02*
Y246701D01*
X86945D01*
Y247701D01*
X87945D01*
Y249701D01*
X86945D01*
Y250701D01*
X84945D01*
Y249701D01*
X83945D01*
Y247701D01*
X84945D01*
Y252031D02*
Y251031D01*
X86945D01*
Y252031D01*
X87945D01*
Y254031D01*
X86945D01*
Y255031D01*
X84945D01*
Y254031D01*
X83945D01*
Y252031D01*
X84945D01*
Y256362D02*
Y255362D01*
X86945D01*
Y256362D01*
X87945D01*
Y258362D01*
X86945D01*
Y259362D01*
X84945D01*
Y258362D01*
X83945D01*
Y256362D01*
X84945D01*
X80614D02*
Y255362D01*
X82614D01*
Y256362D01*
X83614D01*
Y258362D01*
X82614D01*
Y259362D01*
X80614D01*
Y258362D01*
X79614D01*
Y256362D01*
X80614D01*
X84945Y260693D02*
Y259693D01*
X86945D01*
Y260693D01*
X87945D01*
Y262693D01*
X86945D01*
Y263693D01*
X84945D01*
Y262693D01*
X83945D01*
Y260693D01*
X84945D01*
X80614D02*
Y259693D01*
X82614D01*
Y260693D01*
X83614D01*
Y262693D01*
X82614D01*
Y263693D01*
X80614D01*
Y262693D01*
X79614D01*
Y260693D01*
X80614D01*
X84945Y265024D02*
Y264024D01*
X86945D01*
Y265024D01*
X87945D01*
Y267024D01*
X86945D01*
Y268024D01*
X84945D01*
Y267024D01*
X83945D01*
Y265024D01*
X84945D01*
X80614D02*
Y264024D01*
X82614D01*
Y265024D01*
X83614D01*
Y267024D01*
X82614D01*
Y268024D01*
X80614D01*
Y267024D01*
X79614D01*
Y265024D01*
X80614D01*
X76284D02*
Y264024D01*
X78284D01*
Y265024D01*
X79283D01*
Y267024D01*
X78284D01*
Y268024D01*
X76284D01*
Y267024D01*
X75283D01*
Y265024D01*
X76284D01*
Y335024D02*
Y334024D01*
X78284D01*
Y335024D01*
X79283D01*
Y337024D01*
X78284D01*
Y338024D01*
X76284D01*
Y337024D01*
X75283D01*
Y335024D01*
X76284D01*
X80614D02*
Y334024D01*
X82614D01*
Y335024D01*
X83614D01*
Y337024D01*
X82614D01*
Y338024D01*
X80614D01*
Y337024D01*
X79614D01*
Y335024D01*
X80614D01*
X84945D02*
Y334024D01*
X86945D01*
Y335024D01*
X87945D01*
Y337024D01*
X86945D01*
Y338024D01*
X84945D01*
Y337024D01*
X83945D01*
Y335024D01*
X84945D01*
X80614Y330693D02*
Y329693D01*
X82614D01*
Y330693D01*
X83614D01*
Y332693D01*
X82614D01*
Y333693D01*
X80614D01*
Y332693D01*
X79614D01*
Y330693D01*
X80614D01*
X84945D02*
Y329693D01*
X86945D01*
Y330693D01*
X87945D01*
Y332693D01*
X86945D01*
Y333693D01*
X84945D01*
Y332693D01*
X83945D01*
Y330693D01*
X84945D01*
X80614Y326362D02*
Y325362D01*
X82614D01*
Y326362D01*
X83614D01*
Y328362D01*
X82614D01*
Y329362D01*
X80614D01*
Y328362D01*
X79614D01*
Y326362D01*
X80614D01*
X84945D02*
Y325362D01*
X86945D01*
Y326362D01*
X87945D01*
Y328362D01*
X86945D01*
Y329362D01*
X84945D01*
Y328362D01*
X83945D01*
Y326362D01*
X84945D01*
Y322031D02*
Y321031D01*
X86945D01*
Y322031D01*
X87945D01*
Y324031D01*
X86945D01*
Y325031D01*
X84945D01*
Y324031D01*
X83945D01*
Y322031D01*
X84945D01*
Y317701D02*
Y316701D01*
X86945D01*
Y317701D01*
X87945D01*
Y319701D01*
X86945D01*
Y320701D01*
X84945D01*
Y319701D01*
X83945D01*
Y317701D01*
X84945D01*
Y313370D02*
Y312370D01*
X86945D01*
Y313370D01*
X87945D01*
Y315370D01*
X86945D01*
Y316370D01*
X84945D01*
Y315370D01*
X83945D01*
Y313370D01*
X84945D01*
Y309039D02*
Y308039D01*
X86945D01*
Y309039D01*
X87945D01*
Y311039D01*
X86945D01*
Y312039D01*
X84945D01*
Y311039D01*
X83945D01*
Y309039D01*
X84945D01*
Y304709D02*
Y303709D01*
X86945D01*
Y304709D01*
X87945D01*
Y306709D01*
X86945D01*
Y307709D01*
X84945D01*
Y306709D01*
X83945D01*
Y304709D01*
X84945D01*
X76284Y313370D02*
Y312370D01*
X78284D01*
Y313370D01*
X79283D01*
Y315370D01*
X78284D01*
Y316370D01*
X76284D01*
Y315370D01*
X75283D01*
Y313370D01*
X76284D01*
Y330693D02*
Y329693D01*
X78284D01*
Y330693D01*
X79283D01*
Y332693D01*
X78284D01*
Y333693D01*
X76284D01*
Y332693D01*
X75283D01*
Y330693D01*
X76284D01*
Y326362D02*
Y325362D01*
X78284D01*
Y326362D01*
X79283D01*
Y328362D01*
X78284D01*
Y329362D01*
X76284D01*
Y328362D01*
X75283D01*
Y326362D01*
X76284D01*
Y322031D02*
Y321031D01*
X78284D01*
Y322031D01*
X79283D01*
Y324031D01*
X78284D01*
Y325031D01*
X76284D01*
Y324031D01*
X75283D01*
Y322031D01*
X76284D01*
Y317701D02*
Y316701D01*
X78284D01*
Y317701D01*
X79283D01*
Y319701D01*
X78284D01*
Y320701D01*
X76284D01*
Y319701D01*
X75283D01*
Y317701D01*
X76284D01*
Y309039D02*
Y308039D01*
X78284D01*
Y309039D01*
X79283D01*
Y311039D01*
X78284D01*
Y312039D01*
X76284D01*
Y311039D01*
X75283D01*
Y309039D01*
X76284D01*
Y304709D02*
Y303709D01*
X78284D01*
Y304709D01*
X79283D01*
Y306709D01*
X78284D01*
Y307709D01*
X76284D01*
Y306709D01*
X75283D01*
Y304709D01*
X76284D01*
X80614D02*
Y303709D01*
X82614D01*
Y304709D01*
X83614D01*
Y306709D01*
X82614D01*
Y307709D01*
X80614D01*
Y306709D01*
X79614D01*
Y304709D01*
X80614D01*
Y322031D02*
Y321031D01*
X82614D01*
Y322031D01*
X83614D01*
Y324031D01*
X82614D01*
Y325031D01*
X80614D01*
Y324031D01*
X79614D01*
Y322031D01*
X80614D01*
Y317701D02*
Y316701D01*
X82614D01*
Y317701D01*
X83614D01*
Y319701D01*
X82614D01*
Y320701D01*
X80614D01*
Y319701D01*
X79614D01*
Y317701D01*
X80614D01*
Y313370D02*
Y312370D01*
X82614D01*
Y313370D01*
X83614D01*
Y315370D01*
X82614D01*
Y316370D01*
X80614D01*
Y315370D01*
X79614D01*
Y313370D01*
X80614D01*
Y309039D02*
Y308039D01*
X82614D01*
Y309039D01*
X83614D01*
Y311039D01*
X82614D01*
Y312039D01*
X80614D01*
Y311039D01*
X79614D01*
Y309039D01*
X80614D01*
Y369039D02*
Y368039D01*
X82614D01*
Y369039D01*
X83614D01*
Y371039D01*
X82614D01*
Y372039D01*
X80614D01*
Y371039D01*
X79614D01*
Y369039D01*
X80614D01*
Y373370D02*
Y372370D01*
X82614D01*
Y373370D01*
X83614D01*
Y375370D01*
X82614D01*
Y376370D01*
X80614D01*
Y375370D01*
X79614D01*
Y373370D01*
X80614D01*
Y377701D02*
Y376701D01*
X82614D01*
Y377701D01*
X83614D01*
Y379701D01*
X82614D01*
Y380701D01*
X80614D01*
Y379701D01*
X79614D01*
Y377701D01*
X80614D01*
Y382031D02*
Y381031D01*
X82614D01*
Y382031D01*
X83614D01*
Y384032D01*
X82614D01*
Y385032D01*
X80614D01*
Y384032D01*
X79614D01*
Y382031D01*
X80614D01*
Y364709D02*
Y363709D01*
X82614D01*
Y364709D01*
X83614D01*
Y366709D01*
X82614D01*
Y367709D01*
X80614D01*
Y366709D01*
X79614D01*
Y364709D01*
X80614D01*
X76284D02*
Y363709D01*
X78284D01*
Y364709D01*
X79283D01*
Y366709D01*
X78284D01*
Y367709D01*
X76284D01*
Y366709D01*
X75283D01*
Y364709D01*
X76284D01*
Y369039D02*
Y368039D01*
X78284D01*
Y369039D01*
X79283D01*
Y371039D01*
X78284D01*
Y372039D01*
X76284D01*
Y371039D01*
X75283D01*
Y369039D01*
X76284D01*
Y377701D02*
Y376701D01*
X78284D01*
Y377701D01*
X79283D01*
Y379701D01*
X78284D01*
Y380701D01*
X76284D01*
Y379701D01*
X75283D01*
Y377701D01*
X76284D01*
Y382031D02*
Y381031D01*
X78284D01*
Y382031D01*
X79283D01*
Y384032D01*
X78284D01*
Y385032D01*
X76284D01*
Y384032D01*
X75283D01*
Y382031D01*
X76284D01*
Y386362D02*
Y385362D01*
X78284D01*
Y386362D01*
X79283D01*
Y388362D01*
X78284D01*
Y389362D01*
X76284D01*
Y388362D01*
X75283D01*
Y386362D01*
X76284D01*
Y390693D02*
Y389693D01*
X78284D01*
Y390693D01*
X79283D01*
Y392693D01*
X78284D01*
Y393693D01*
X76284D01*
Y392693D01*
X75283D01*
Y390693D01*
X76284D01*
Y373370D02*
Y372370D01*
X78284D01*
Y373370D01*
X79283D01*
Y375370D01*
X78284D01*
Y376370D01*
X76284D01*
Y375370D01*
X75283D01*
Y373370D01*
X76284D01*
X84945Y364709D02*
Y363709D01*
X86945D01*
Y364709D01*
X87945D01*
Y366709D01*
X86945D01*
Y367709D01*
X84945D01*
Y366709D01*
X83945D01*
Y364709D01*
X84945D01*
Y369039D02*
Y368039D01*
X86945D01*
Y369039D01*
X87945D01*
Y371039D01*
X86945D01*
Y372039D01*
X84945D01*
Y371039D01*
X83945D01*
Y369039D01*
X84945D01*
Y373370D02*
Y372370D01*
X86945D01*
Y373370D01*
X87945D01*
Y375370D01*
X86945D01*
Y376370D01*
X84945D01*
Y375370D01*
X83945D01*
Y373370D01*
X84945D01*
Y377701D02*
Y376701D01*
X86945D01*
Y377701D01*
X87945D01*
Y379701D01*
X86945D01*
Y380701D01*
X84945D01*
Y379701D01*
X83945D01*
Y377701D01*
X84945D01*
Y382031D02*
Y381031D01*
X86945D01*
Y382031D01*
X87945D01*
Y384032D01*
X86945D01*
Y385032D01*
X84945D01*
Y384032D01*
X83945D01*
Y382031D01*
X84945D01*
Y386362D02*
Y385362D01*
X86945D01*
Y386362D01*
X87945D01*
Y388362D01*
X86945D01*
Y389362D01*
X84945D01*
Y388362D01*
X83945D01*
Y386362D01*
X84945D01*
X80614D02*
Y385362D01*
X82614D01*
Y386362D01*
X83614D01*
Y388362D01*
X82614D01*
Y389362D01*
X80614D01*
Y388362D01*
X79614D01*
Y386362D01*
X80614D01*
X84945Y390693D02*
Y389693D01*
X86945D01*
Y390693D01*
X87945D01*
Y392693D01*
X86945D01*
Y393693D01*
X84945D01*
Y392693D01*
X83945D01*
Y390693D01*
X84945D01*
X80614D02*
Y389693D01*
X82614D01*
Y390693D01*
X83614D01*
Y392693D01*
X82614D01*
Y393693D01*
X80614D01*
Y392693D01*
X79614D01*
Y390693D01*
X80614D01*
X84945Y395024D02*
Y394024D01*
X86945D01*
Y395024D01*
X87945D01*
Y397024D01*
X86945D01*
Y398024D01*
X84945D01*
Y397024D01*
X83945D01*
Y395024D01*
X84945D01*
X80614D02*
Y394024D01*
X82614D01*
Y395024D01*
X83614D01*
Y397024D01*
X82614D01*
Y398024D01*
X80614D01*
Y397024D01*
X79614D01*
Y395024D01*
X80614D01*
X76284D02*
Y394024D01*
X78284D01*
Y395024D01*
X79283D01*
Y397024D01*
X78284D01*
Y398024D01*
X76284D01*
Y397024D01*
X75283D01*
Y395024D01*
X76284D01*
Y455024D02*
Y454024D01*
X78284D01*
Y455024D01*
X79283D01*
Y457024D01*
X78284D01*
Y458024D01*
X76284D01*
Y457024D01*
X75283D01*
Y455024D01*
X76284D01*
X80614D02*
Y454024D01*
X82614D01*
Y455024D01*
X83614D01*
Y457024D01*
X82614D01*
Y458024D01*
X80614D01*
Y457024D01*
X79614D01*
Y455024D01*
X80614D01*
X84945D02*
Y454024D01*
X86945D01*
Y455024D01*
X87945D01*
Y457024D01*
X86945D01*
Y458024D01*
X84945D01*
Y457024D01*
X83945D01*
Y455024D01*
X84945D01*
X80614Y450693D02*
Y449693D01*
X82614D01*
Y450693D01*
X83614D01*
Y452693D01*
X82614D01*
Y453693D01*
X80614D01*
Y452693D01*
X79614D01*
Y450693D01*
X80614D01*
X84945D02*
Y449693D01*
X86945D01*
Y450693D01*
X87945D01*
Y452693D01*
X86945D01*
Y453693D01*
X84945D01*
Y452693D01*
X83945D01*
Y450693D01*
X84945D01*
X80614Y446362D02*
Y445362D01*
X82614D01*
Y446362D01*
X83614D01*
Y448362D01*
X82614D01*
Y449362D01*
X80614D01*
Y448362D01*
X79614D01*
Y446362D01*
X80614D01*
X84945D02*
Y445362D01*
X86945D01*
Y446362D01*
X87945D01*
Y448362D01*
X86945D01*
Y449362D01*
X84945D01*
Y448362D01*
X83945D01*
Y446362D01*
X84945D01*
Y442031D02*
Y441032D01*
X86945D01*
Y442031D01*
X87945D01*
Y444031D01*
X86945D01*
Y445031D01*
X84945D01*
Y444031D01*
X83945D01*
Y442031D01*
X84945D01*
Y437701D02*
Y436701D01*
X86945D01*
Y437701D01*
X87945D01*
Y439701D01*
X86945D01*
Y440701D01*
X84945D01*
Y439701D01*
X83945D01*
Y437701D01*
X84945D01*
Y433370D02*
Y432370D01*
X86945D01*
Y433370D01*
X87945D01*
Y435370D01*
X86945D01*
Y436370D01*
X84945D01*
Y435370D01*
X83945D01*
Y433370D01*
X84945D01*
Y429039D02*
Y428039D01*
X86945D01*
Y429039D01*
X87945D01*
Y431039D01*
X86945D01*
Y432039D01*
X84945D01*
Y431039D01*
X83945D01*
Y429039D01*
X84945D01*
Y424709D02*
Y423709D01*
X86945D01*
Y424709D01*
X87945D01*
Y426709D01*
X86945D01*
Y427709D01*
X84945D01*
Y426709D01*
X83945D01*
Y424709D01*
X84945D01*
X76284Y433370D02*
Y432370D01*
X78284D01*
Y433370D01*
X79283D01*
Y435370D01*
X78284D01*
Y436370D01*
X76284D01*
Y435370D01*
X75283D01*
Y433370D01*
X76284D01*
Y450693D02*
Y449693D01*
X78284D01*
Y450693D01*
X79283D01*
Y452693D01*
X78284D01*
Y453693D01*
X76284D01*
Y452693D01*
X75283D01*
Y450693D01*
X76284D01*
Y446362D02*
Y445362D01*
X78284D01*
Y446362D01*
X79283D01*
Y448362D01*
X78284D01*
Y449362D01*
X76284D01*
Y448362D01*
X75283D01*
Y446362D01*
X76284D01*
Y442031D02*
Y441032D01*
X78284D01*
Y442031D01*
X79283D01*
Y444031D01*
X78284D01*
Y445031D01*
X76284D01*
Y444031D01*
X75283D01*
Y442031D01*
X76284D01*
Y437701D02*
Y436701D01*
X78284D01*
Y437701D01*
X79283D01*
Y439701D01*
X78284D01*
Y440701D01*
X76284D01*
Y439701D01*
X75283D01*
Y437701D01*
X76284D01*
Y429039D02*
Y428039D01*
X78284D01*
Y429039D01*
X79283D01*
Y431039D01*
X78284D01*
Y432039D01*
X76284D01*
Y431039D01*
X75283D01*
Y429039D01*
X76284D01*
Y424709D02*
Y423709D01*
X78284D01*
Y424709D01*
X79283D01*
Y426709D01*
X78284D01*
Y427709D01*
X76284D01*
Y426709D01*
X75283D01*
Y424709D01*
X76284D01*
X80614D02*
Y423709D01*
X82614D01*
Y424709D01*
X83614D01*
Y426709D01*
X82614D01*
Y427709D01*
X80614D01*
Y426709D01*
X79614D01*
Y424709D01*
X80614D01*
Y442031D02*
Y441032D01*
X82614D01*
Y442031D01*
X83614D01*
Y444031D01*
X82614D01*
Y445031D01*
X80614D01*
Y444031D01*
X79614D01*
Y442031D01*
X80614D01*
Y437701D02*
Y436701D01*
X82614D01*
Y437701D01*
X83614D01*
Y439701D01*
X82614D01*
Y440701D01*
X80614D01*
Y439701D01*
X79614D01*
Y437701D01*
X80614D01*
Y433370D02*
Y432370D01*
X82614D01*
Y433370D01*
X83614D01*
Y435370D01*
X82614D01*
Y436370D01*
X80614D01*
Y435370D01*
X79614D01*
Y433370D01*
X80614D01*
Y429039D02*
Y428039D01*
X82614D01*
Y429039D01*
X83614D01*
Y431039D01*
X82614D01*
Y432039D01*
X80614D01*
Y431039D01*
X79614D01*
Y429039D01*
X80614D01*
X134039Y432386D02*
Y431386D01*
X136039D01*
Y432386D01*
X137039D01*
Y434386D01*
X136039D01*
Y435386D01*
X134039D01*
Y434386D01*
X133039D01*
Y432386D01*
X134039D01*
X138370D02*
Y431386D01*
X140370D01*
Y432386D01*
X141370D01*
Y434386D01*
X140370D01*
Y435386D01*
X138370D01*
Y434386D01*
X137370D01*
Y432386D01*
X138370D01*
X142701D02*
Y431386D01*
X144701D01*
Y432386D01*
X145701D01*
Y434386D01*
X144701D01*
Y435386D01*
X142701D01*
Y434386D01*
X141701D01*
Y432386D01*
X142701D01*
X147031D02*
Y431386D01*
X149031D01*
Y432386D01*
X150031D01*
Y434386D01*
X149031D01*
Y435386D01*
X147031D01*
Y434386D01*
X146031D01*
Y432386D01*
X147031D01*
X129709D02*
Y431386D01*
X131709D01*
Y432386D01*
X132709D01*
Y434386D01*
X131709D01*
Y435386D01*
X129709D01*
Y434386D01*
X128709D01*
Y432386D01*
X129709D01*
Y436717D02*
Y435716D01*
X131709D01*
Y436717D01*
X132709D01*
Y438717D01*
X131709D01*
Y439716D01*
X129709D01*
Y438717D01*
X128709D01*
Y436717D01*
X129709D01*
X134039D02*
Y435716D01*
X136039D01*
Y436717D01*
X137039D01*
Y438717D01*
X136039D01*
Y439716D01*
X134039D01*
Y438717D01*
X133039D01*
Y436717D01*
X134039D01*
X142701D02*
Y435716D01*
X144701D01*
Y436717D01*
X145701D01*
Y438717D01*
X144701D01*
Y439716D01*
X142701D01*
Y438717D01*
X141701D01*
Y436717D01*
X142701D01*
X147031D02*
Y435716D01*
X149031D01*
Y436717D01*
X150031D01*
Y438717D01*
X149031D01*
Y439716D01*
X147031D01*
Y438717D01*
X146031D01*
Y436717D01*
X147031D01*
X151362D02*
Y435716D01*
X153362D01*
Y436717D01*
X154362D01*
Y438717D01*
X153362D01*
Y439716D01*
X151362D01*
Y438717D01*
X150362D01*
Y436717D01*
X151362D01*
X155693D02*
Y435716D01*
X157693D01*
Y436717D01*
X158693D01*
Y438717D01*
X157693D01*
Y439716D01*
X155693D01*
Y438717D01*
X154693D01*
Y436717D01*
X155693D01*
X138370D02*
Y435716D01*
X140370D01*
Y436717D01*
X141370D01*
Y438717D01*
X140370D01*
Y439716D01*
X138370D01*
Y438717D01*
X137370D01*
Y436717D01*
X138370D01*
X129709Y428055D02*
Y427055D01*
X131709D01*
Y428055D01*
X132709D01*
Y430055D01*
X131709D01*
Y431055D01*
X129709D01*
Y430055D01*
X128709D01*
Y428055D01*
X129709D01*
X134039D02*
Y427055D01*
X136039D01*
Y428055D01*
X137039D01*
Y430055D01*
X136039D01*
Y431055D01*
X134039D01*
Y430055D01*
X133039D01*
Y428055D01*
X134039D01*
X138370D02*
Y427055D01*
X140370D01*
Y428055D01*
X141370D01*
Y430055D01*
X140370D01*
Y431055D01*
X138370D01*
Y430055D01*
X137370D01*
Y428055D01*
X138370D01*
X142701D02*
Y427055D01*
X144701D01*
Y428055D01*
X145701D01*
Y430055D01*
X144701D01*
Y431055D01*
X142701D01*
Y430055D01*
X141701D01*
Y428055D01*
X142701D01*
X147031D02*
Y427055D01*
X149031D01*
Y428055D01*
X150031D01*
Y430055D01*
X149031D01*
Y431055D01*
X147031D01*
Y430055D01*
X146031D01*
Y428055D01*
X147031D01*
X151362D02*
Y427055D01*
X153362D01*
Y428055D01*
X154362D01*
Y430055D01*
X153362D01*
Y431055D01*
X151362D01*
Y430055D01*
X150362D01*
Y428055D01*
X151362D01*
Y432386D02*
Y431386D01*
X153362D01*
Y432386D01*
X154362D01*
Y434386D01*
X153362D01*
Y435386D01*
X151362D01*
Y434386D01*
X150362D01*
Y432386D01*
X151362D01*
X155693Y428055D02*
Y427055D01*
X157693D01*
Y428055D01*
X158693D01*
Y430055D01*
X157693D01*
Y431055D01*
X155693D01*
Y430055D01*
X154693D01*
Y428055D01*
X155693D01*
Y432386D02*
Y431386D01*
X157693D01*
Y432386D01*
X158693D01*
Y434386D01*
X157693D01*
Y435386D01*
X155693D01*
Y434386D01*
X154693D01*
Y432386D01*
X155693D01*
X160024Y428055D02*
Y427055D01*
X162024D01*
Y428055D01*
X163024D01*
Y430055D01*
X162024D01*
Y431055D01*
X160024D01*
Y430055D01*
X159024D01*
Y428055D01*
X160024D01*
Y432386D02*
Y431386D01*
X162024D01*
Y432386D01*
X163024D01*
Y434386D01*
X162024D01*
Y435386D01*
X160024D01*
Y434386D01*
X159024D01*
Y432386D01*
X160024D01*
Y436717D02*
Y435716D01*
X162024D01*
Y436717D01*
X163024D01*
Y438717D01*
X162024D01*
Y439716D01*
X160024D01*
Y438717D01*
X159024D01*
Y436717D01*
X160024D01*
X220024D02*
Y435716D01*
X222024D01*
Y436717D01*
X223024D01*
Y438717D01*
X222024D01*
Y439716D01*
X220024D01*
Y438717D01*
X219024D01*
Y436717D01*
X220024D01*
Y432386D02*
Y431386D01*
X222024D01*
Y432386D01*
X223024D01*
Y434386D01*
X222024D01*
Y435386D01*
X220024D01*
Y434386D01*
X219024D01*
Y432386D01*
X220024D01*
Y428055D02*
Y427055D01*
X222024D01*
Y428055D01*
X223024D01*
Y430055D01*
X222024D01*
Y431055D01*
X220024D01*
Y430055D01*
X219024D01*
Y428055D01*
X220024D01*
X215693Y432386D02*
Y431386D01*
X217693D01*
Y432386D01*
X218693D01*
Y434386D01*
X217693D01*
Y435386D01*
X215693D01*
Y434386D01*
X214693D01*
Y432386D01*
X215693D01*
Y428055D02*
Y427055D01*
X217693D01*
Y428055D01*
X218693D01*
Y430055D01*
X217693D01*
Y431055D01*
X215693D01*
Y430055D01*
X214693D01*
Y428055D01*
X215693D01*
X211362Y432386D02*
Y431386D01*
X213362D01*
Y432386D01*
X214362D01*
Y434386D01*
X213362D01*
Y435386D01*
X211362D01*
Y434386D01*
X210362D01*
Y432386D01*
X211362D01*
Y428055D02*
Y427055D01*
X213362D01*
Y428055D01*
X214362D01*
Y430055D01*
X213362D01*
Y431055D01*
X211362D01*
Y430055D01*
X210362D01*
Y428055D01*
X211362D01*
X207031D02*
Y427055D01*
X209032D01*
Y428055D01*
X210032D01*
Y430055D01*
X209032D01*
Y431055D01*
X207031D01*
Y430055D01*
X206031D01*
Y428055D01*
X207031D01*
X202701D02*
Y427055D01*
X204701D01*
Y428055D01*
X205701D01*
Y430055D01*
X204701D01*
Y431055D01*
X202701D01*
Y430055D01*
X201701D01*
Y428055D01*
X202701D01*
X198370D02*
Y427055D01*
X200370D01*
Y428055D01*
X201370D01*
Y430055D01*
X200370D01*
Y431055D01*
X198370D01*
Y430055D01*
X197370D01*
Y428055D01*
X198370D01*
X194039D02*
Y427055D01*
X196039D01*
Y428055D01*
X197039D01*
Y430055D01*
X196039D01*
Y431055D01*
X194039D01*
Y430055D01*
X193039D01*
Y428055D01*
X194039D01*
X189709D02*
Y427055D01*
X191709D01*
Y428055D01*
X192709D01*
Y430055D01*
X191709D01*
Y431055D01*
X189709D01*
Y430055D01*
X188709D01*
Y428055D01*
X189709D01*
X198370Y436717D02*
Y435716D01*
X200370D01*
Y436717D01*
X201370D01*
Y438717D01*
X200370D01*
Y439716D01*
X198370D01*
Y438717D01*
X197370D01*
Y436717D01*
X198370D01*
X215693D02*
Y435716D01*
X217693D01*
Y436717D01*
X218693D01*
Y438717D01*
X217693D01*
Y439716D01*
X215693D01*
Y438717D01*
X214693D01*
Y436717D01*
X215693D01*
X211362D02*
Y435716D01*
X213362D01*
Y436717D01*
X214362D01*
Y438717D01*
X213362D01*
Y439716D01*
X211362D01*
Y438717D01*
X210362D01*
Y436717D01*
X211362D01*
X207031D02*
Y435716D01*
X209032D01*
Y436717D01*
X210032D01*
Y438717D01*
X209032D01*
Y439716D01*
X207031D01*
Y438717D01*
X206031D01*
Y436717D01*
X207031D01*
X202701D02*
Y435716D01*
X204701D01*
Y436717D01*
X205701D01*
Y438717D01*
X204701D01*
Y439716D01*
X202701D01*
Y438717D01*
X201701D01*
Y436717D01*
X202701D01*
X194039D02*
Y435716D01*
X196039D01*
Y436717D01*
X197039D01*
Y438717D01*
X196039D01*
Y439716D01*
X194039D01*
Y438717D01*
X193039D01*
Y436717D01*
X194039D01*
X189709D02*
Y435716D01*
X191709D01*
Y436717D01*
X192709D01*
Y438717D01*
X191709D01*
Y439716D01*
X189709D01*
Y438717D01*
X188709D01*
Y436717D01*
X189709D01*
Y432386D02*
Y431386D01*
X191709D01*
Y432386D01*
X192709D01*
Y434386D01*
X191709D01*
Y435386D01*
X189709D01*
Y434386D01*
X188709D01*
Y432386D01*
X189709D01*
X207031D02*
Y431386D01*
X209032D01*
Y432386D01*
X210032D01*
Y434386D01*
X209032D01*
Y435386D01*
X207031D01*
Y434386D01*
X206031D01*
Y432386D01*
X207031D01*
X202701D02*
Y431386D01*
X204701D01*
Y432386D01*
X205701D01*
Y434386D01*
X204701D01*
Y435386D01*
X202701D01*
Y434386D01*
X201701D01*
Y432386D01*
X202701D01*
X198370D02*
Y431386D01*
X200370D01*
Y432386D01*
X201370D01*
Y434386D01*
X200370D01*
Y435386D01*
X198370D01*
Y434386D01*
X197370D01*
Y432386D01*
X198370D01*
X194039D02*
Y431386D01*
X196039D01*
Y432386D01*
X197039D01*
Y434386D01*
X196039D01*
Y435386D01*
X194039D01*
Y434386D01*
X193039D01*
Y432386D01*
X194039D01*
X254039D02*
Y431386D01*
X256039D01*
Y432386D01*
X257039D01*
Y434386D01*
X256039D01*
Y435386D01*
X254039D01*
Y434386D01*
X253039D01*
Y432386D01*
X254039D01*
X258370D02*
Y431386D01*
X260370D01*
Y432386D01*
X261370D01*
Y434386D01*
X260370D01*
Y435386D01*
X258370D01*
Y434386D01*
X257370D01*
Y432386D01*
X258370D01*
X262701D02*
Y431386D01*
X264701D01*
Y432386D01*
X265701D01*
Y434386D01*
X264701D01*
Y435386D01*
X262701D01*
Y434386D01*
X261701D01*
Y432386D01*
X262701D01*
X267032D02*
Y431386D01*
X269032D01*
Y432386D01*
X270031D01*
Y434386D01*
X269032D01*
Y435386D01*
X267032D01*
Y434386D01*
X266032D01*
Y432386D01*
X267032D01*
X249709D02*
Y431386D01*
X251709D01*
Y432386D01*
X252709D01*
Y434386D01*
X251709D01*
Y435386D01*
X249709D01*
Y434386D01*
X248709D01*
Y432386D01*
X249709D01*
Y436717D02*
Y435716D01*
X251709D01*
Y436717D01*
X252709D01*
Y438717D01*
X251709D01*
Y439716D01*
X249709D01*
Y438717D01*
X248709D01*
Y436717D01*
X249709D01*
X254039D02*
Y435716D01*
X256039D01*
Y436717D01*
X257039D01*
Y438717D01*
X256039D01*
Y439716D01*
X254039D01*
Y438717D01*
X253039D01*
Y436717D01*
X254039D01*
X262701D02*
Y435716D01*
X264701D01*
Y436717D01*
X265701D01*
Y438717D01*
X264701D01*
Y439716D01*
X262701D01*
Y438717D01*
X261701D01*
Y436717D01*
X262701D01*
X267032D02*
Y435716D01*
X269032D01*
Y436717D01*
X270031D01*
Y438717D01*
X269032D01*
Y439716D01*
X267032D01*
Y438717D01*
X266032D01*
Y436717D01*
X267032D01*
X271362D02*
Y435716D01*
X273362D01*
Y436717D01*
X274362D01*
Y438717D01*
X273362D01*
Y439716D01*
X271362D01*
Y438717D01*
X270362D01*
Y436717D01*
X271362D01*
X275693D02*
Y435716D01*
X277693D01*
Y436717D01*
X278693D01*
Y438717D01*
X277693D01*
Y439716D01*
X275693D01*
Y438717D01*
X274693D01*
Y436717D01*
X275693D01*
X258370D02*
Y435716D01*
X260370D01*
Y436717D01*
X261370D01*
Y438717D01*
X260370D01*
Y439716D01*
X258370D01*
Y438717D01*
X257370D01*
Y436717D01*
X258370D01*
X249709Y428055D02*
Y427055D01*
X251709D01*
Y428055D01*
X252709D01*
Y430055D01*
X251709D01*
Y431055D01*
X249709D01*
Y430055D01*
X248709D01*
Y428055D01*
X249709D01*
X254039D02*
Y427055D01*
X256039D01*
Y428055D01*
X257039D01*
Y430055D01*
X256039D01*
Y431055D01*
X254039D01*
Y430055D01*
X253039D01*
Y428055D01*
X254039D01*
X258370D02*
Y427055D01*
X260370D01*
Y428055D01*
X261370D01*
Y430055D01*
X260370D01*
Y431055D01*
X258370D01*
Y430055D01*
X257370D01*
Y428055D01*
X258370D01*
X262701D02*
Y427055D01*
X264701D01*
Y428055D01*
X265701D01*
Y430055D01*
X264701D01*
Y431055D01*
X262701D01*
Y430055D01*
X261701D01*
Y428055D01*
X262701D01*
X267032D02*
Y427055D01*
X269032D01*
Y428055D01*
X270031D01*
Y430055D01*
X269032D01*
Y431055D01*
X267032D01*
Y430055D01*
X266032D01*
Y428055D01*
X267032D01*
X271362D02*
Y427055D01*
X273362D01*
Y428055D01*
X274362D01*
Y430055D01*
X273362D01*
Y431055D01*
X271362D01*
Y430055D01*
X270362D01*
Y428055D01*
X271362D01*
Y432386D02*
Y431386D01*
X273362D01*
Y432386D01*
X274362D01*
Y434386D01*
X273362D01*
Y435386D01*
X271362D01*
Y434386D01*
X270362D01*
Y432386D01*
X271362D01*
X275693Y428055D02*
Y427055D01*
X277693D01*
Y428055D01*
X278693D01*
Y430055D01*
X277693D01*
Y431055D01*
X275693D01*
Y430055D01*
X274693D01*
Y428055D01*
X275693D01*
Y432386D02*
Y431386D01*
X277693D01*
Y432386D01*
X278693D01*
Y434386D01*
X277693D01*
Y435386D01*
X275693D01*
Y434386D01*
X274693D01*
Y432386D01*
X275693D01*
X280024Y428055D02*
Y427055D01*
X282024D01*
Y428055D01*
X283024D01*
Y430055D01*
X282024D01*
Y431055D01*
X280024D01*
Y430055D01*
X279024D01*
Y428055D01*
X280024D01*
Y432386D02*
Y431386D01*
X282024D01*
Y432386D01*
X283024D01*
Y434386D01*
X282024D01*
Y435386D01*
X280024D01*
Y434386D01*
X279024D01*
Y432386D01*
X280024D01*
Y436717D02*
Y435716D01*
X282024D01*
Y436717D01*
X283024D01*
Y438717D01*
X282024D01*
Y439716D01*
X280024D01*
Y438717D01*
X279024D01*
Y436717D01*
X280024D01*
X340024D02*
Y435716D01*
X342024D01*
Y436717D01*
X343024D01*
Y438717D01*
X342024D01*
Y439716D01*
X340024D01*
Y438717D01*
X339024D01*
Y436717D01*
X340024D01*
Y432386D02*
Y431386D01*
X342024D01*
Y432386D01*
X343024D01*
Y434386D01*
X342024D01*
Y435386D01*
X340024D01*
Y434386D01*
X339024D01*
Y432386D01*
X340024D01*
Y428055D02*
Y427055D01*
X342024D01*
Y428055D01*
X343024D01*
Y430055D01*
X342024D01*
Y431055D01*
X340024D01*
Y430055D01*
X339024D01*
Y428055D01*
X340024D01*
X335693Y432386D02*
Y431386D01*
X337693D01*
Y432386D01*
X338693D01*
Y434386D01*
X337693D01*
Y435386D01*
X335693D01*
Y434386D01*
X334693D01*
Y432386D01*
X335693D01*
Y428055D02*
Y427055D01*
X337693D01*
Y428055D01*
X338693D01*
Y430055D01*
X337693D01*
Y431055D01*
X335693D01*
Y430055D01*
X334693D01*
Y428055D01*
X335693D01*
X331362Y432386D02*
Y431386D01*
X333362D01*
Y432386D01*
X334362D01*
Y434386D01*
X333362D01*
Y435386D01*
X331362D01*
Y434386D01*
X330362D01*
Y432386D01*
X331362D01*
Y428055D02*
Y427055D01*
X333362D01*
Y428055D01*
X334362D01*
Y430055D01*
X333362D01*
Y431055D01*
X331362D01*
Y430055D01*
X330362D01*
Y428055D01*
X331362D01*
X327031D02*
Y427055D01*
X329031D01*
Y428055D01*
X330031D01*
Y430055D01*
X329031D01*
Y431055D01*
X327031D01*
Y430055D01*
X326031D01*
Y428055D01*
X327031D01*
X322701D02*
Y427055D01*
X324701D01*
Y428055D01*
X325701D01*
Y430055D01*
X324701D01*
Y431055D01*
X322701D01*
Y430055D01*
X321701D01*
Y428055D01*
X322701D01*
X318370D02*
Y427055D01*
X320370D01*
Y428055D01*
X321370D01*
Y430055D01*
X320370D01*
Y431055D01*
X318370D01*
Y430055D01*
X317370D01*
Y428055D01*
X318370D01*
X314039D02*
Y427055D01*
X316039D01*
Y428055D01*
X317039D01*
Y430055D01*
X316039D01*
Y431055D01*
X314039D01*
Y430055D01*
X313039D01*
Y428055D01*
X314039D01*
X309709D02*
Y427055D01*
X311709D01*
Y428055D01*
X312709D01*
Y430055D01*
X311709D01*
Y431055D01*
X309709D01*
Y430055D01*
X308709D01*
Y428055D01*
X309709D01*
X318370Y436717D02*
Y435716D01*
X320370D01*
Y436717D01*
X321370D01*
Y438717D01*
X320370D01*
Y439716D01*
X318370D01*
Y438717D01*
X317370D01*
Y436717D01*
X318370D01*
X335693D02*
Y435716D01*
X337693D01*
Y436717D01*
X338693D01*
Y438717D01*
X337693D01*
Y439716D01*
X335693D01*
Y438717D01*
X334693D01*
Y436717D01*
X335693D01*
X331362D02*
Y435716D01*
X333362D01*
Y436717D01*
X334362D01*
Y438717D01*
X333362D01*
Y439716D01*
X331362D01*
Y438717D01*
X330362D01*
Y436717D01*
X331362D01*
X327031D02*
Y435716D01*
X329031D01*
Y436717D01*
X330031D01*
Y438717D01*
X329031D01*
Y439716D01*
X327031D01*
Y438717D01*
X326031D01*
Y436717D01*
X327031D01*
X322701D02*
Y435716D01*
X324701D01*
Y436717D01*
X325701D01*
Y438717D01*
X324701D01*
Y439716D01*
X322701D01*
Y438717D01*
X321701D01*
Y436717D01*
X322701D01*
X314039D02*
Y435716D01*
X316039D01*
Y436717D01*
X317039D01*
Y438717D01*
X316039D01*
Y439716D01*
X314039D01*
Y438717D01*
X313039D01*
Y436717D01*
X314039D01*
X309709D02*
Y435716D01*
X311709D01*
Y436717D01*
X312709D01*
Y438717D01*
X311709D01*
Y439716D01*
X309709D01*
Y438717D01*
X308709D01*
Y436717D01*
X309709D01*
Y432386D02*
Y431386D01*
X311709D01*
Y432386D01*
X312709D01*
Y434386D01*
X311709D01*
Y435386D01*
X309709D01*
Y434386D01*
X308709D01*
Y432386D01*
X309709D01*
X327031D02*
Y431386D01*
X329031D01*
Y432386D01*
X330031D01*
Y434386D01*
X329031D01*
Y435386D01*
X327031D01*
Y434386D01*
X326031D01*
Y432386D01*
X327031D01*
X322701D02*
Y431386D01*
X324701D01*
Y432386D01*
X325701D01*
Y434386D01*
X324701D01*
Y435386D01*
X322701D01*
Y434386D01*
X321701D01*
Y432386D01*
X322701D01*
X318370D02*
Y431386D01*
X320370D01*
Y432386D01*
X321370D01*
Y434386D01*
X320370D01*
Y435386D01*
X318370D01*
Y434386D01*
X317370D01*
Y432386D01*
X318370D01*
X314039D02*
Y431386D01*
X316039D01*
Y432386D01*
X317039D01*
Y434386D01*
X316039D01*
Y435386D01*
X314039D01*
Y434386D01*
X313039D01*
Y432386D01*
X314039D01*
X296500Y416500D02*
Y415500D01*
X298500D01*
Y416500D01*
X299500D01*
Y418500D01*
X298500D01*
Y419500D01*
X296500D01*
Y418500D01*
X295500D01*
Y416500D01*
X296500D01*
X149892Y241221D02*
Y240222D01*
X151892D01*
Y241221D01*
X152892D01*
Y243221D01*
X151892D01*
Y244221D01*
X149892D01*
Y243221D01*
X148892D01*
Y241221D01*
X149892D01*
X160500Y244512D02*
Y243512D01*
X162500D01*
Y244512D01*
X163500D01*
Y246512D01*
X162500D01*
Y247512D01*
X160500D01*
Y246512D01*
X159500D01*
Y244512D01*
X160500D01*
X159500Y269000D02*
Y268000D01*
X161500D01*
Y269000D01*
X162500D01*
Y271000D01*
X161500D01*
Y272000D01*
X159500D01*
Y271000D01*
X158500D01*
Y269000D01*
X159500D01*
X308500Y125000D02*
Y124000D01*
X310500D01*
Y125000D01*
X311500D01*
Y127000D01*
X310500D01*
Y128000D01*
X308500D01*
Y127000D01*
X307500D01*
Y125000D01*
X308500D01*
X289500Y146000D02*
Y145000D01*
X291500D01*
Y146000D01*
X292500D01*
Y148000D01*
X291500D01*
Y149000D01*
X289500D01*
Y148000D01*
X288500D01*
Y146000D01*
X289500D01*
X287000Y143500D02*
Y142500D01*
X289000D01*
Y143500D01*
X290000D01*
Y145500D01*
X289000D01*
Y146500D01*
X287000D01*
Y145500D01*
X286000D01*
Y143500D01*
X287000D01*
X284500Y148500D02*
Y147500D01*
X286500D01*
Y148500D01*
X287500D01*
Y150500D01*
X286500D01*
Y151500D01*
X284500D01*
Y150500D01*
X283500D01*
Y148500D01*
X284500D01*
X339000Y502500D02*
Y501500D01*
X341000D01*
Y502500D01*
X342000D01*
Y504500D01*
X341000D01*
Y505500D01*
X339000D01*
Y504500D01*
X338000D01*
Y502500D01*
X339000D01*
X279000D02*
Y501500D01*
X281000D01*
Y502500D01*
X282000D01*
Y504500D01*
X281000D01*
Y505500D01*
X279000D01*
Y504500D01*
X278000D01*
Y502500D01*
X279000D01*
X219000D02*
Y501500D01*
X221000D01*
Y502500D01*
X222000D01*
Y504500D01*
X221000D01*
Y505500D01*
X219000D01*
Y504500D01*
X218000D01*
Y502500D01*
X219000D01*
X159000D02*
Y501500D01*
X161000D01*
Y502500D01*
X162000D01*
Y504500D01*
X161000D01*
Y505500D01*
X159000D01*
Y504500D01*
X158000D01*
Y502500D01*
X159000D01*
X9000Y108500D02*
Y107500D01*
X11000D01*
Y108500D01*
X12000D01*
Y110500D01*
X11000D01*
Y111500D01*
X9000D01*
Y110500D01*
X8000D01*
Y108500D01*
X9000D01*
Y168500D02*
Y167500D01*
X11000D01*
Y168500D01*
X12000D01*
Y170500D01*
X11000D01*
Y171500D01*
X9000D01*
Y170500D01*
X8000D01*
Y168500D01*
X9000D01*
Y228500D02*
Y227500D01*
X11000D01*
Y228500D01*
X12000D01*
Y230500D01*
X11000D01*
Y231500D01*
X9000D01*
Y230500D01*
X8000D01*
Y228500D01*
X9000D01*
Y298500D02*
Y297500D01*
X11000D01*
Y298500D01*
X12000D01*
Y300500D01*
X11000D01*
Y301500D01*
X9000D01*
Y300500D01*
X8000D01*
Y298500D01*
X9000D01*
Y358500D02*
Y357500D01*
X11000D01*
Y358500D01*
X12000D01*
Y360500D01*
X11000D01*
Y361500D01*
X9000D01*
Y360500D01*
X8000D01*
Y358500D01*
X9000D01*
Y418500D02*
Y417500D01*
X11000D01*
Y418500D01*
X12000D01*
Y420500D01*
X11000D01*
Y421500D01*
X9000D01*
Y420500D01*
X8000D01*
Y418500D01*
X9000D01*
X142500Y397500D02*
Y396500D01*
X144500D01*
Y397500D01*
X145500D01*
Y399500D01*
X144500D01*
Y400500D01*
X142500D01*
Y399500D01*
X141500D01*
Y397500D01*
X142500D01*
X225653Y98519D02*
Y97519D01*
X227653D01*
Y98519D01*
X228653D01*
Y100519D01*
X227653D01*
Y101519D01*
X225653D01*
Y100519D01*
X224653D01*
Y98519D01*
X225653D01*
X189644Y159006D02*
Y158006D01*
X191644D01*
Y159006D01*
X192644D01*
Y161006D01*
X191644D01*
Y162006D01*
X189644D01*
Y161006D01*
X188644D01*
Y159006D01*
X189644D01*
X235281Y293126D02*
Y292126D01*
X237281D01*
Y293126D01*
X238281D01*
Y295126D01*
X237281D01*
Y296126D01*
X235281D01*
Y295126D01*
X234281D01*
Y293126D01*
X235281D01*
X224000Y76000D02*
Y75000D01*
X226000D01*
Y76000D01*
X227000D01*
Y78000D01*
X226000D01*
Y79000D01*
X224000D01*
Y78000D01*
X223000D01*
Y76000D01*
X224000D01*
X222498Y98502D02*
Y97502D01*
X224498D01*
Y98502D01*
X225498D01*
Y100503D01*
X224498D01*
Y101503D01*
X222498D01*
Y100503D01*
X221498D01*
Y98502D01*
X222498D01*
X226500Y142500D02*
Y141500D01*
X228500D01*
Y142500D01*
X229500D01*
Y144500D01*
X228500D01*
Y145500D01*
X226500D01*
Y144500D01*
X225500D01*
Y142500D01*
X226500D01*
X228828Y140039D02*
Y139039D01*
X230828D01*
Y140039D01*
X231828D01*
Y142039D01*
X230828D01*
Y143039D01*
X228828D01*
Y142039D01*
X227828D01*
Y140039D01*
X228828D01*
X228000Y76000D02*
Y75000D01*
X230000D01*
Y76000D01*
X231000D01*
Y78000D01*
X230000D01*
Y79000D01*
X228000D01*
Y78000D01*
X227000D01*
Y76000D01*
X228000D01*
X201797Y235820D02*
Y234820D01*
X203797D01*
Y235820D01*
X204797D01*
Y237820D01*
X203797D01*
Y238820D01*
X201797D01*
Y237820D01*
X200797D01*
Y235820D01*
X201797D01*
X204257Y238307D02*
Y237307D01*
X206257D01*
Y238307D01*
X207257D01*
Y240307D01*
X206257D01*
Y241307D01*
X204257D01*
Y240307D01*
X203257D01*
Y238307D01*
X204257D01*
X208386Y240669D02*
Y239669D01*
X210386D01*
Y240669D01*
X211386D01*
Y242669D01*
X210386D01*
Y243669D01*
X208386D01*
Y242669D01*
X207386D01*
Y240669D01*
X208386D01*
X219500Y301500D02*
Y300500D01*
X221500D01*
Y301500D01*
X222500D01*
Y303500D01*
X221500D01*
Y304500D01*
X219500D01*
Y303500D01*
X218500D01*
Y301500D01*
X219500D01*
X209500Y309500D02*
Y308500D01*
X211500D01*
Y309500D01*
X212500D01*
Y311500D01*
X211500D01*
Y312500D01*
X209500D01*
Y311500D01*
X208500D01*
Y309500D01*
X209500D01*
X84001Y34000D02*
Y33000D01*
X86001D01*
Y34000D01*
X87001D01*
Y36000D01*
X86001D01*
Y37000D01*
X84001D01*
Y36000D01*
X83001D01*
Y34000D01*
X84001D01*
X151584Y207961D02*
Y206961D01*
X153584D01*
Y207961D01*
X154584D01*
Y209961D01*
X153584D01*
Y210961D01*
X151584D01*
Y209961D01*
X150584D01*
Y207961D01*
X151584D01*
X155500Y208000D02*
Y207000D01*
X157500D01*
Y208000D01*
X158500D01*
Y210000D01*
X157500D01*
Y211000D01*
X155500D01*
Y210000D01*
X154500D01*
Y208000D01*
X155500D01*
X109027Y40602D02*
Y39602D01*
X111027D01*
Y40602D01*
X112027D01*
Y42602D01*
X111027D01*
Y43602D01*
X109027D01*
Y42602D01*
X108027D01*
Y40602D01*
X109027D01*
X309000Y35000D02*
Y34000D01*
X311000D01*
Y35000D01*
X312000D01*
Y37000D01*
X311000D01*
Y38000D01*
X309000D01*
Y37000D01*
X308000D01*
Y35000D01*
X309000D01*
X124000Y227000D02*
Y226000D01*
X126000D01*
Y227000D01*
X127000D01*
Y229000D01*
X126000D01*
Y230000D01*
X124000D01*
Y229000D01*
X123000D01*
Y227000D01*
X124000D01*
X149500Y276500D02*
Y275500D01*
X151500D01*
Y276500D01*
X152500D01*
Y278500D01*
X151500D01*
Y279500D01*
X149500D01*
Y278500D01*
X148500D01*
Y276500D01*
X149500D01*
X122500Y274000D02*
Y273000D01*
X124500D01*
Y274000D01*
X125500D01*
Y276000D01*
X124500D01*
Y277000D01*
X122500D01*
Y276000D01*
X121500D01*
Y274000D01*
X122500D01*
X144000Y191500D02*
Y190500D01*
X146000D01*
Y191500D01*
X147000D01*
Y193500D01*
X146000D01*
Y194500D01*
X144000D01*
Y193500D01*
X143000D01*
Y191500D01*
X144000D01*
X122000Y168500D02*
Y167500D01*
X124000D01*
Y168500D01*
X125000D01*
Y170500D01*
X124000D01*
Y171500D01*
X122000D01*
Y170500D01*
X121000D01*
Y168500D01*
X122000D01*
X173000Y354000D02*
Y353000D01*
X175000D01*
Y354000D01*
X176000D01*
Y356000D01*
X175000D01*
Y357000D01*
X173000D01*
Y356000D01*
X172000D01*
Y354000D01*
X173000D01*
X231000Y254000D02*
Y253000D01*
X233000D01*
Y254000D01*
X234000D01*
Y256000D01*
X233000D01*
Y257000D01*
X231000D01*
Y256000D01*
X230000D01*
Y254000D01*
X231000D01*
X274878Y274537D02*
Y273537D01*
X276878D01*
Y274537D01*
X277878D01*
Y276537D01*
X276878D01*
Y277537D01*
X274878D01*
Y276537D01*
X273878D01*
Y274537D01*
X274878D01*
X255000Y274500D02*
Y273500D01*
X257000D01*
Y274500D01*
X258000D01*
Y276500D01*
X257000D01*
Y277500D01*
X255000D01*
Y276500D01*
X254000D01*
Y274500D01*
X255000D01*
X305680Y259143D02*
Y258143D01*
X307680D01*
Y259143D01*
X308680D01*
Y261143D01*
X307680D01*
Y262143D01*
X305680D01*
Y261143D01*
X304680D01*
Y259143D01*
X305680D01*
X290500Y301500D02*
Y300500D01*
X292500D01*
Y301500D01*
X293500D01*
Y303500D01*
X292500D01*
Y304500D01*
X290500D01*
Y303500D01*
X289500D01*
Y301500D01*
X290500D01*
X276500Y298500D02*
Y297500D01*
X278500D01*
Y298500D01*
X279500D01*
Y300500D01*
X278500D01*
Y301500D01*
X276500D01*
Y300500D01*
X275500D01*
Y298500D01*
X276500D01*
X300000Y277000D02*
Y276000D01*
X302000D01*
Y277000D01*
X303000D01*
Y279000D01*
X302000D01*
Y280000D01*
X300000D01*
Y279000D01*
X299000D01*
Y277000D01*
X300000D01*
X272356Y278776D02*
Y277776D01*
X274356D01*
Y278776D01*
X275356D01*
Y280776D01*
X274356D01*
Y281776D01*
X272356D01*
Y280776D01*
X271356D01*
Y278776D01*
X272356D01*
X278935Y277162D02*
Y276162D01*
X280935D01*
Y277162D01*
X281935D01*
Y279162D01*
X280935D01*
Y280162D01*
X278935D01*
Y279162D01*
X277935D01*
Y277162D01*
X278935D01*
X283000Y245000D02*
Y244000D01*
X285000D01*
Y245000D01*
X286000D01*
Y247000D01*
X285000D01*
Y248000D01*
X283000D01*
Y247000D01*
X282000D01*
Y245000D01*
X283000D01*
Y232500D02*
Y231500D01*
X285000D01*
Y232500D01*
X286000D01*
Y234500D01*
X285000D01*
Y235500D01*
X283000D01*
Y234500D01*
X282000D01*
Y232500D01*
X283000D01*
X287500Y360500D02*
Y359500D01*
X289500D01*
Y360500D01*
X290500D01*
Y362500D01*
X289500D01*
Y363500D01*
X287500D01*
Y362500D01*
X286500D01*
Y360500D01*
X287500D01*
X267000Y355500D02*
Y354500D01*
X269000D01*
Y355500D01*
X270000D01*
Y357500D01*
X269000D01*
Y358500D01*
X267000D01*
Y357500D01*
X266000D01*
Y355500D01*
X267000D01*
X176500Y416500D02*
Y415500D01*
X178500D01*
Y416500D01*
X179500D01*
Y418500D01*
X178500D01*
Y419500D01*
X176500D01*
Y418500D01*
X175500D01*
Y416500D01*
X176500D01*
X236500D02*
Y415500D01*
X238500D01*
Y416500D01*
X239500D01*
Y418500D01*
X238500D01*
Y419500D01*
X236500D01*
Y418500D01*
X235500D01*
Y416500D01*
X236500D01*
X159500Y285000D02*
Y284000D01*
X161500D01*
Y285000D01*
X162500D01*
Y287000D01*
X161500D01*
Y288000D01*
X159500D01*
Y287000D01*
X158500D01*
Y285000D01*
X159500D01*
X198000Y293500D02*
Y292500D01*
X200000D01*
Y293500D01*
X201000D01*
Y295500D01*
X200000D01*
Y296500D01*
X198000D01*
Y295500D01*
X197000D01*
Y293500D01*
X198000D01*
X226000Y307500D02*
Y306500D01*
X228000D01*
Y307500D01*
X229000D01*
Y309500D01*
X228000D01*
Y310500D01*
X226000D01*
Y309500D01*
X225000D01*
Y307500D01*
X226000D01*
X164000Y152500D02*
Y151500D01*
X166000D01*
Y152500D01*
X167000D01*
Y154500D01*
X166000D01*
Y155500D01*
X164000D01*
Y154500D01*
X163000D01*
Y152500D01*
X164000D01*
X184000Y150595D02*
Y149595D01*
X186000D01*
Y150595D01*
X187000D01*
Y152595D01*
X186000D01*
Y153595D01*
X184000D01*
Y152595D01*
X183000D01*
Y150595D01*
X184000D01*
X215500Y151000D02*
Y150000D01*
X217500D01*
Y151000D01*
X218500D01*
Y153000D01*
X217500D01*
Y154000D01*
X215500D01*
Y153000D01*
X214500D01*
Y151000D01*
X215500D01*
X230024Y126123D02*
Y125123D01*
X232024D01*
Y126123D01*
X233024D01*
Y128123D01*
X232024D01*
Y129123D01*
X230024D01*
Y128123D01*
X229024D01*
Y126123D01*
X230024D01*
X291559Y84059D02*
Y83059D01*
X293559D01*
Y84059D01*
X294559D01*
Y86059D01*
X293559D01*
Y87059D01*
X291559D01*
Y86059D01*
X290559D01*
Y84059D01*
X291559D01*
X235772Y95148D02*
Y94148D01*
X237772D01*
Y95148D01*
X238772D01*
Y97148D01*
X237772D01*
Y98148D01*
X235772D01*
Y97148D01*
X234772D01*
Y95148D01*
X235772D01*
X229000Y54500D02*
Y53500D01*
X231000D01*
Y54500D01*
X232000D01*
Y56500D01*
X231000D01*
Y57500D01*
X229000D01*
Y56500D01*
X228000D01*
Y54500D01*
X229000D01*
X271000Y50000D02*
Y49000D01*
X273000D01*
Y50000D01*
X274000D01*
Y52000D01*
X273000D01*
Y53000D01*
X271000D01*
Y52000D01*
X270000D01*
Y50000D01*
X271000D01*
X259000Y58000D02*
Y57000D01*
X261000D01*
Y58000D01*
X262000D01*
Y60000D01*
X261000D01*
Y61000D01*
X259000D01*
Y60000D01*
X258000D01*
Y58000D01*
X259000D01*
X207000Y113500D02*
Y112500D01*
X209000D01*
Y113500D01*
X210000D01*
Y115500D01*
X209000D01*
Y116500D01*
X207000D01*
Y115500D01*
X206000D01*
Y113500D01*
X207000D01*
X186500D02*
Y112500D01*
X188500D01*
Y113500D01*
X189500D01*
Y115500D01*
X188500D01*
Y116500D01*
X186500D01*
Y115500D01*
X185500D01*
Y113500D01*
X186500D01*
X252500Y96000D02*
Y95000D01*
X254500D01*
Y96000D01*
X255500D01*
Y98000D01*
X254500D01*
Y99000D01*
X252500D01*
Y98000D01*
X251500D01*
Y96000D01*
X252500D01*
X311500Y190000D02*
Y189000D01*
X313500D01*
Y190000D01*
X314500D01*
Y192000D01*
X313500D01*
Y193000D01*
X311500D01*
Y192000D01*
X310500D01*
Y190000D01*
X311500D01*
X326000Y183500D02*
Y182500D01*
X328000D01*
Y183500D01*
X329000D01*
Y185500D01*
X328000D01*
Y186500D01*
X326000D01*
Y185500D01*
X325000D01*
Y183500D01*
X326000D01*
X328093Y197816D02*
Y196816D01*
X330093D01*
Y197816D01*
X331093D01*
Y199816D01*
X330093D01*
Y200816D01*
X328093D01*
Y199816D01*
X327093D01*
Y197816D01*
X328093D01*
X330772Y200648D02*
Y199648D01*
X332772D01*
Y200648D01*
X333772D01*
Y202648D01*
X332772D01*
Y203648D01*
X330772D01*
Y202648D01*
X329772D01*
Y200648D01*
X330772D01*
X281500Y208000D02*
Y207000D01*
X283500D01*
Y208000D01*
X284500D01*
Y210000D01*
X283500D01*
Y211000D01*
X281500D01*
Y210000D01*
X280500D01*
Y208000D01*
X281500D01*
Y191500D02*
Y190500D01*
X283500D01*
Y191500D01*
X284500D01*
Y193500D01*
X283500D01*
Y194500D01*
X281500D01*
Y193500D01*
X280500D01*
Y191500D01*
X281500D01*
X245500Y201500D02*
Y200500D01*
X247500D01*
Y201500D01*
X248500D01*
Y203500D01*
X247500D01*
Y204500D01*
X245500D01*
Y203500D01*
X244500D01*
Y201500D01*
X245500D01*
X246500Y187500D02*
Y186500D01*
X248500D01*
Y187500D01*
X249500D01*
Y189500D01*
X248500D01*
Y190500D01*
X246500D01*
Y189500D01*
X245500D01*
Y187500D01*
X246500D01*
X214500Y199000D02*
Y198000D01*
X216500D01*
Y199000D01*
X217500D01*
Y201000D01*
X216500D01*
Y202000D01*
X214500D01*
Y201000D01*
X213500D01*
Y199000D01*
X214500D01*
Y192500D02*
Y191500D01*
X216500D01*
Y192500D01*
X217500D01*
Y194500D01*
X216500D01*
Y195500D01*
X214500D01*
Y194500D01*
X213500D01*
Y192500D01*
X214500D01*
X171510Y216038D02*
Y215037D01*
X173510D01*
Y216038D01*
X174510D01*
Y218038D01*
X173510D01*
Y219038D01*
X171510D01*
Y218038D01*
X170510D01*
Y216038D01*
X171510D01*
X187500Y216000D02*
Y215000D01*
X189500D01*
Y216000D01*
X190500D01*
Y218000D01*
X189500D01*
Y219000D01*
X187500D01*
Y218000D01*
X186500D01*
Y216000D01*
X187500D01*
X171000Y203000D02*
Y202000D01*
X173000D01*
Y203000D01*
X174000D01*
Y205000D01*
X173000D01*
Y206000D01*
X171000D01*
Y205000D01*
X170000D01*
Y203000D01*
X171000D01*
X174138Y127155D02*
Y126155D01*
X176138D01*
Y127155D01*
X177138D01*
Y129155D01*
X176138D01*
Y130155D01*
X174138D01*
Y129155D01*
X173138D01*
Y127155D01*
X174138D01*
X186963Y124399D02*
Y123399D01*
X188963D01*
Y124399D01*
X189963D01*
Y126399D01*
X188963D01*
Y127399D01*
X186963D01*
Y126399D01*
X185963D01*
Y124399D01*
X186963D01*
X218956Y120000D02*
Y119000D01*
X220956D01*
Y120000D01*
X221956D01*
Y122000D01*
X220956D01*
Y123000D01*
X218956D01*
Y122000D01*
X217956D01*
Y120000D01*
X218956D01*
X278000Y88000D02*
Y87000D01*
X280000D01*
Y88000D01*
X281000D01*
Y90000D01*
X280000D01*
Y91000D01*
X278000D01*
Y90000D01*
X277000D01*
Y88000D01*
X278000D01*
X272500Y111500D02*
Y110500D01*
X274500D01*
Y111500D01*
X275500D01*
Y113500D01*
X274500D01*
Y114500D01*
X272500D01*
Y113500D01*
X271500D01*
Y111500D01*
X272500D01*
X220500Y28744D02*
Y27744D01*
X222500D01*
Y28744D01*
X223500D01*
Y30744D01*
X222500D01*
Y31744D01*
X220500D01*
Y30744D01*
X219500D01*
Y28744D01*
X220500D01*
X152548Y316579D02*
Y315579D01*
X154548D01*
Y316579D01*
X155548D01*
Y318579D01*
X154548D01*
Y319579D01*
X152548D01*
Y318579D01*
X151548D01*
Y316579D01*
X152548D01*
X331017Y299500D02*
Y298500D01*
X333017D01*
Y299500D01*
X334017D01*
Y301500D01*
X333017D01*
Y302500D01*
X331017D01*
Y301500D01*
X330017D01*
Y299500D01*
X331017D01*
X204000Y211500D02*
Y210500D01*
X206000D01*
Y211500D01*
X207000D01*
Y213500D01*
X206000D01*
Y214500D01*
X204000D01*
Y213500D01*
X203000D01*
Y211500D01*
X204000D01*
X221000D02*
Y210500D01*
X223000D01*
Y211500D01*
X224000D01*
Y213500D01*
X223000D01*
Y214500D01*
X221000D01*
Y213500D01*
X220000D01*
Y211500D01*
X221000D01*
X231265Y309475D02*
Y308475D01*
X233265D01*
Y309475D01*
X234265D01*
Y311475D01*
X233265D01*
Y312475D01*
X231265D01*
Y311475D01*
X230265D01*
Y309475D01*
X231265D01*
X304000Y348500D02*
Y347500D01*
X306000D01*
Y348500D01*
X307000D01*
Y350500D01*
X306000D01*
Y351500D01*
X304000D01*
Y350500D01*
X303000D01*
Y348500D01*
X304000D01*
X210000Y335000D02*
Y334000D01*
X212000D01*
Y335000D01*
X213000D01*
Y337000D01*
X212000D01*
Y338000D01*
X210000D01*
Y337000D01*
X209000D01*
Y335000D01*
X210000D01*
X115662Y290619D02*
Y289619D01*
X117662D01*
Y290619D01*
X118662D01*
Y292619D01*
X117662D01*
Y293619D01*
X115662D01*
Y292619D01*
X114662D01*
Y290619D01*
X115662D01*
X168063Y218201D02*
Y217201D01*
X170063D01*
Y218201D01*
X171063D01*
Y220201D01*
X170063D01*
Y221201D01*
X168063D01*
Y220201D01*
X167063D01*
Y218201D01*
X168063D01*
X163500Y241500D02*
Y240500D01*
X165500D01*
Y241500D01*
X166500D01*
Y243500D01*
X165500D01*
Y244500D01*
X163500D01*
Y243500D01*
X162500D01*
Y241500D01*
X163500D01*
X132936Y296500D02*
Y295500D01*
X134936D01*
Y296500D01*
X135936D01*
Y298500D01*
X134936D01*
Y299500D01*
X132936D01*
Y298500D01*
X131936D01*
Y296500D01*
X132936D01*
X213996Y397500D02*
Y396500D01*
X215996D01*
Y397500D01*
X216996D01*
Y399500D01*
X215996D01*
Y400500D01*
X213996D01*
Y399500D01*
X212996D01*
Y397500D01*
X213996D01*
X180500Y331000D02*
Y330000D01*
X182500D01*
Y331000D01*
X183500D01*
Y333000D01*
X182500D01*
Y334000D01*
X180500D01*
Y333000D01*
X179500D01*
Y331000D01*
X180500D01*
X228844Y335343D02*
Y334343D01*
X230844D01*
Y335343D01*
X231844D01*
Y337343D01*
X230844D01*
Y338343D01*
X228844D01*
Y337343D01*
X227844D01*
Y335343D01*
X228844D01*
X302000Y381000D02*
Y380000D01*
X304000D01*
Y381000D01*
X305000D01*
Y383000D01*
X304000D01*
Y384000D01*
X302000D01*
Y383000D01*
X301000D01*
Y381000D01*
X302000D01*
Y374500D02*
Y373500D01*
X304000D01*
Y374500D01*
X305000D01*
Y376500D01*
X304000D01*
Y377500D01*
X302000D01*
Y376500D01*
X301000D01*
Y374500D01*
X302000D01*
X228500Y353000D02*
Y352000D01*
X230500D01*
Y353000D01*
X231500D01*
Y355000D01*
X230500D01*
Y356000D01*
X228500D01*
Y355000D01*
X227500D01*
Y353000D01*
X228500D01*
X224500Y391500D02*
Y390500D01*
X226500D01*
Y391500D01*
X227500D01*
Y393500D01*
X226500D01*
Y394500D01*
X224500D01*
Y393500D01*
X223500D01*
Y391500D01*
X224500D01*
X136500Y269000D02*
Y268000D01*
X138500D01*
Y269000D01*
X139500D01*
Y271000D01*
X138500D01*
Y272000D01*
X136500D01*
Y271000D01*
X135500D01*
Y269000D01*
X136500D01*
X105500Y264500D02*
Y263500D01*
X107500D01*
Y264500D01*
X108500D01*
Y266500D01*
X107500D01*
Y267500D01*
X105500D01*
Y266500D01*
X104500D01*
Y264500D01*
X105500D01*
X109000D02*
Y263500D01*
X111000D01*
Y264500D01*
X112000D01*
Y266500D01*
X111000D01*
Y267500D01*
X109000D01*
Y266500D01*
X108000D01*
Y264500D01*
X109000D01*
X112500D02*
Y263500D01*
X114500D01*
Y264500D01*
X115500D01*
Y266500D01*
X114500D01*
Y267500D01*
X112500D01*
Y266500D01*
X111500D01*
Y264500D01*
X112500D01*
X133500Y274000D02*
Y273000D01*
X135500D01*
Y274000D01*
X136500D01*
Y276000D01*
X135500D01*
Y277000D01*
X133500D01*
Y276000D01*
X132500D01*
Y274000D01*
X133500D01*
X299000Y299500D02*
Y298500D01*
X301000D01*
Y299500D01*
X302000D01*
Y301500D01*
X301000D01*
Y302500D01*
X299000D01*
Y301500D01*
X298000D01*
Y299500D01*
X299000D01*
X281000Y281500D02*
Y280500D01*
X283000D01*
Y281500D01*
X284000D01*
Y283500D01*
X283000D01*
Y284500D01*
X281000D01*
Y283500D01*
X280000D01*
Y281500D01*
X281000D01*
X181000Y208000D02*
Y207000D01*
X183000D01*
Y208000D01*
X184000D01*
Y210000D01*
X183000D01*
Y211000D01*
X181000D01*
Y210000D01*
X180000D01*
Y208000D01*
X181000D01*
X134000Y158500D02*
Y157500D01*
X136000D01*
Y158500D01*
X137000D01*
Y160500D01*
X136000D01*
Y161500D01*
X134000D01*
Y160500D01*
X133000D01*
Y158500D01*
X134000D01*
X223500Y155000D02*
Y154000D01*
X225500D01*
Y155000D01*
X226500D01*
Y157000D01*
X225500D01*
Y158000D01*
X223500D01*
Y157000D01*
X222500D01*
Y155000D01*
X223500D01*
X219500D02*
Y154000D01*
X221500D01*
Y155000D01*
X222500D01*
Y157000D01*
X221500D01*
Y158000D01*
X219500D01*
Y157000D01*
X218500D01*
Y155000D01*
X219500D01*
X113500Y148500D02*
Y147500D01*
X115500D01*
Y148500D01*
X116500D01*
Y150500D01*
X115500D01*
Y151500D01*
X113500D01*
Y150500D01*
X112500D01*
Y148500D01*
X113500D01*
X111000Y143500D02*
Y142500D01*
X113000D01*
Y143500D01*
X114000D01*
Y145500D01*
X113000D01*
Y146500D01*
X111000D01*
Y145500D01*
X110000D01*
Y143500D01*
X111000D01*
X328252Y264255D02*
Y263255D01*
X330252D01*
Y264255D01*
X331252D01*
Y266255D01*
X330252D01*
Y267255D01*
X328252D01*
Y266255D01*
X327252D01*
Y264255D01*
X328252D01*
X319500Y235500D02*
Y234500D01*
X321500D01*
Y235500D01*
X322500D01*
Y237500D01*
X321500D01*
Y238500D01*
X319500D01*
Y237500D01*
X318500D01*
Y235500D01*
X319500D01*
X204010Y151946D02*
Y150946D01*
X206010D01*
Y151946D01*
X207010D01*
Y153946D01*
X206010D01*
Y154946D01*
X204010D01*
Y153946D01*
X203010D01*
Y151946D01*
X204010D01*
X203925Y141075D02*
Y140075D01*
X205925D01*
Y141075D01*
X206925D01*
Y143075D01*
X205925D01*
Y144075D01*
X203925D01*
Y143075D01*
X202925D01*
Y141075D01*
X203925D01*
X211500Y115000D02*
Y114000D01*
X213500D01*
Y115000D01*
X214500D01*
Y117000D01*
X213500D01*
Y118000D01*
X211500D01*
Y117000D01*
X210500D01*
Y115000D01*
X211500D01*
X118000Y59000D02*
Y58000D01*
X120000D01*
Y59000D01*
X121000D01*
Y61000D01*
X120000D01*
Y62000D01*
X118000D01*
Y61000D01*
X117000D01*
Y59000D01*
X118000D01*
X141386Y74031D02*
Y73031D01*
X143386D01*
Y74031D01*
X144386D01*
Y76031D01*
X143386D01*
Y77031D01*
X141386D01*
Y76031D01*
X140386D01*
Y74031D01*
X141386D01*
X141330Y70830D02*
Y69830D01*
X143330D01*
Y70830D01*
X144330D01*
Y72830D01*
X143330D01*
Y73830D01*
X141330D01*
Y72830D01*
X140330D01*
Y70830D01*
X141330D01*
X43500Y85000D02*
Y84000D01*
X45500D01*
Y85000D01*
X46500D01*
Y87000D01*
X45500D01*
Y88000D01*
X43500D01*
Y87000D01*
X42500D01*
Y85000D01*
X43500D01*
X169500Y81000D02*
Y80000D01*
X171500D01*
Y81000D01*
X172500D01*
Y83000D01*
X171500D01*
Y84000D01*
X169500D01*
Y83000D01*
X168500D01*
Y81000D01*
X169500D01*
X172500Y31500D02*
Y30500D01*
X174500D01*
Y31500D01*
X175500D01*
Y33500D01*
X174500D01*
Y34500D01*
X172500D01*
Y33500D01*
X171500D01*
Y31500D01*
X172500D01*
X167500Y123000D02*
Y122000D01*
X169500D01*
Y123000D01*
X170500D01*
Y125000D01*
X169500D01*
Y126000D01*
X167500D01*
Y125000D01*
X166500D01*
Y123000D01*
X167500D01*
X163000Y69500D02*
X164000D01*
X165000Y70500D01*
X166000Y69500D01*
X167000D01*
Y70500D01*
X166000Y71500D01*
X167000Y72500D01*
Y73500D01*
X166000D01*
X165000Y72500D01*
X164000Y73500D01*
X163000D01*
Y72500D01*
X164000Y71500D01*
X163000Y70500D01*
Y69500D01*
X231500Y24000D02*
Y23000D01*
X233500D01*
Y24000D01*
X234500D01*
Y26000D01*
X233500D01*
Y27000D01*
X231500D01*
Y26000D01*
X230500D01*
Y24000D01*
X231500D01*
X287500Y230500D02*
Y229500D01*
X289500D01*
Y230500D01*
X290500D01*
Y232500D01*
X289500D01*
Y233500D01*
X287500D01*
Y232500D01*
X286500D01*
Y230500D01*
X287500D01*
X274000Y351500D02*
Y350500D01*
X276000D01*
Y351500D01*
X277000D01*
Y353500D01*
X276000D01*
Y354500D01*
X274000D01*
Y353500D01*
X273000D01*
Y351500D01*
X274000D01*
X268000Y345862D02*
Y344862D01*
X270000D01*
Y345862D01*
X271000D01*
Y347862D01*
X270000D01*
Y348862D01*
X268000D01*
Y347862D01*
X267000D01*
Y345862D01*
X268000D01*
X284500Y224000D02*
Y223000D01*
X286500D01*
Y224000D01*
X287500D01*
Y226000D01*
X286500D01*
Y227000D01*
X284500D01*
Y226000D01*
X283500D01*
Y224000D01*
X284500D01*
X284419Y220382D02*
Y219382D01*
X286419D01*
Y220382D01*
X287419D01*
Y222382D01*
X286419D01*
Y223382D01*
X284419D01*
Y222382D01*
X283419D01*
Y220382D01*
X284419D01*
X213000Y236500D02*
Y235500D01*
X215000D01*
Y236500D01*
X216000D01*
Y238500D01*
X215000D01*
Y239500D01*
X213000D01*
Y238500D01*
X212000D01*
Y236500D01*
X213000D01*
X247536Y244714D02*
Y243714D01*
X249536D01*
Y244714D01*
X250536D01*
Y246714D01*
X249536D01*
Y247714D01*
X247536D01*
Y246714D01*
X246536D01*
Y244714D01*
X247536D01*
X245537Y242395D02*
Y241395D01*
X247537D01*
Y242395D01*
X248537D01*
Y244395D01*
X247537D01*
Y245395D01*
X245537D01*
Y244395D01*
X244537D01*
Y242395D01*
X245537D01*
X243500Y240000D02*
Y239000D01*
X245500D01*
Y240000D01*
X246500D01*
Y242000D01*
X245500D01*
Y243000D01*
X243500D01*
Y242000D01*
X242500D01*
Y240000D01*
X243500D01*
X257780Y249885D02*
Y248885D01*
X259780D01*
Y249885D01*
X260780D01*
Y251885D01*
X259780D01*
Y252885D01*
X257780D01*
Y251885D01*
X256780D01*
Y249885D01*
X257780D01*
X256475Y252616D02*
Y251616D01*
X258475D01*
Y252616D01*
X259475D01*
Y254616D01*
X258475D01*
Y255616D01*
X256475D01*
Y254616D01*
X255475D01*
Y252616D01*
X256475D01*
X281500Y125000D02*
Y124000D01*
X283500D01*
Y125000D01*
X284500D01*
Y127000D01*
X283500D01*
Y128000D01*
X281500D01*
Y127000D01*
X280500D01*
Y125000D01*
X281500D01*
X115500Y225500D02*
Y224500D01*
X117500D01*
Y225500D01*
X118500D01*
Y227500D01*
X117500D01*
Y228500D01*
X115500D01*
Y227500D01*
X114500D01*
Y225500D01*
X115500D01*
X110470Y196453D02*
Y195453D01*
X112470D01*
Y196453D01*
X113470D01*
Y198453D01*
X112470D01*
Y199453D01*
X110470D01*
Y198453D01*
X109470D01*
Y196453D01*
X110470D01*
X215617Y141661D02*
Y140661D01*
X217617D01*
Y141661D01*
X218617D01*
Y143661D01*
X217617D01*
Y144661D01*
X215617D01*
Y143661D01*
X214617D01*
Y141661D01*
X215617D01*
X173500Y6500D02*
Y5500D01*
X175500D01*
Y6500D01*
X176500D01*
Y8500D01*
X175500D01*
Y9500D01*
X173500D01*
Y8500D01*
X172500D01*
Y6500D01*
X173500D01*
X214000D02*
Y5500D01*
X216000D01*
Y6500D01*
X217000D01*
Y8500D01*
X216000D01*
Y9500D01*
X214000D01*
Y8500D01*
X213000D01*
Y6500D01*
X214000D01*
X274000Y57000D02*
Y56000D01*
X276000D01*
Y57000D01*
X277000D01*
Y59000D01*
X276000D01*
Y60000D01*
X274000D01*
Y59000D01*
X273000D01*
Y57000D01*
X274000D01*
X261500Y97500D02*
Y96500D01*
X263500D01*
Y97500D01*
X264500D01*
Y99500D01*
X263500D01*
Y100500D01*
X261500D01*
Y99500D01*
X260500D01*
Y97500D01*
X261500D01*
X246694Y81722D02*
Y80722D01*
X248694D01*
Y81722D01*
X249694D01*
Y83722D01*
X248694D01*
Y84722D01*
X246694D01*
Y83722D01*
X245694D01*
Y81722D01*
X246694D01*
Y78551D02*
Y77551D01*
X248694D01*
Y78551D01*
X249694D01*
Y80551D01*
X248694D01*
Y81551D01*
X246694D01*
Y80551D01*
X245694D01*
Y78551D01*
X246694D01*
X234174Y83783D02*
Y82783D01*
X236174D01*
Y83783D01*
X237174D01*
Y85783D01*
X236174D01*
Y86783D01*
X234174D01*
Y85783D01*
X233174D01*
Y83783D01*
X234174D01*
X215000Y83500D02*
Y82500D01*
X217000D01*
Y83500D01*
X218000D01*
Y85500D01*
X217000D01*
Y86500D01*
X215000D01*
Y85500D01*
X214000D01*
Y83500D01*
X215000D01*
X191817Y81221D02*
Y80221D01*
X193817D01*
Y81221D01*
X194817D01*
Y83221D01*
X193817D01*
Y84221D01*
X191817D01*
Y83221D01*
X190817D01*
Y81221D01*
X191817D01*
X179027D02*
Y80221D01*
X181027D01*
Y81221D01*
X182027D01*
Y83221D01*
X181027D01*
Y84221D01*
X179027D01*
Y83221D01*
X178027D01*
Y81221D01*
X179027D01*
X213000Y171000D02*
Y170000D01*
X215000D01*
Y171000D01*
X216000D01*
Y173000D01*
X215000D01*
Y174000D01*
X213000D01*
Y173000D01*
X212000D01*
Y171000D01*
X213000D01*
X201500Y276000D02*
Y275000D01*
X203500D01*
Y276000D01*
X204500D01*
Y278000D01*
X203500D01*
Y279000D01*
X201500D01*
Y278000D01*
X200500D01*
Y276000D01*
X201500D01*
X198000D02*
Y275000D01*
X200000D01*
Y276000D01*
X201000D01*
Y278000D01*
X200000D01*
Y279000D01*
X198000D01*
Y278000D01*
X197000D01*
Y276000D01*
X198000D01*
X194500D02*
Y275000D01*
X196500D01*
Y276000D01*
X197500D01*
Y278000D01*
X196500D01*
Y279000D01*
X194500D01*
Y278000D01*
X193500D01*
Y276000D01*
X194500D01*
X191000D02*
Y275000D01*
X193000D01*
Y276000D01*
X194000D01*
Y278000D01*
X193000D01*
Y279000D01*
X191000D01*
Y278000D01*
X190000D01*
Y276000D01*
X191000D01*
X283466Y278064D02*
Y277064D01*
X285466D01*
Y278064D01*
X286466D01*
Y280065D01*
X285466D01*
Y281065D01*
X283466D01*
Y280065D01*
X282466D01*
Y278064D01*
X283466D01*
X188500Y239500D02*
Y238500D01*
X190500D01*
Y239500D01*
X191500D01*
Y241500D01*
X190500D01*
Y242500D01*
X188500D01*
Y241500D01*
X187500D01*
Y239500D01*
X188500D01*
Y243000D02*
Y242000D01*
X190500D01*
Y243000D01*
X191500D01*
Y245000D01*
X190500D01*
Y246000D01*
X188500D01*
Y245000D01*
X187500D01*
Y243000D01*
X188500D01*
X187000Y285000D02*
Y284000D01*
X189000D01*
Y285000D01*
X190000D01*
Y287000D01*
X189000D01*
Y288000D01*
X187000D01*
Y287000D01*
X186000D01*
Y285000D01*
X187000D01*
X218000Y98000D02*
Y97000D01*
X220000D01*
Y98000D01*
X221000D01*
Y100000D01*
X220000D01*
Y101000D01*
X218000D01*
Y100000D01*
X217000D01*
Y98000D01*
X218000D01*
X273000Y257500D02*
Y256500D01*
X275000D01*
Y257500D01*
X276000D01*
Y259500D01*
X275000D01*
Y260500D01*
X273000D01*
Y259500D01*
X272000D01*
Y257500D01*
X273000D01*
X274000Y152500D02*
Y151500D01*
X276000D01*
Y152500D01*
X277000D01*
Y154500D01*
X276000D01*
Y155500D01*
X274000D01*
Y154500D01*
X273000D01*
Y152500D01*
X274000D01*
X277000D02*
Y151500D01*
X279000D01*
Y152500D01*
X280000D01*
Y154500D01*
X279000D01*
Y155500D01*
X277000D01*
Y154500D01*
X276000D01*
Y152500D01*
X277000D01*
X257578Y280257D02*
Y279257D01*
X259578D01*
Y280257D01*
X260578D01*
Y282257D01*
X259578D01*
Y283257D01*
X257578D01*
Y282257D01*
X256578D01*
Y280257D01*
X257578D01*
X219500Y259000D02*
Y258000D01*
X221500D01*
Y259000D01*
X222500D01*
Y261000D01*
X221500D01*
Y262000D01*
X219500D01*
Y261000D01*
X218500D01*
Y259000D01*
X219500D01*
X208500D02*
Y258000D01*
X210500D01*
Y259000D01*
X211500D01*
Y261000D01*
X210500D01*
Y262000D01*
X208500D01*
Y261000D01*
X207500D01*
Y259000D01*
X208500D01*
X215833D02*
Y258000D01*
X217833D01*
Y259000D01*
X218833D01*
Y261000D01*
X217833D01*
Y262000D01*
X215833D01*
Y261000D01*
X214833D01*
Y259000D01*
X215833D01*
X212167D02*
Y258000D01*
X214167D01*
Y259000D01*
X215167D01*
Y261000D01*
X214167D01*
Y262000D01*
X212167D01*
Y261000D01*
X211167D01*
Y259000D01*
X212167D01*
X163500Y218201D02*
Y217201D01*
X165500D01*
Y218201D01*
X166500D01*
Y220201D01*
X165500D01*
Y221201D01*
X163500D01*
Y220201D01*
X162500D01*
Y218201D01*
X163500D01*
Y226862D02*
Y225862D01*
X165500D01*
Y226862D01*
X166500D01*
Y228862D01*
X165500D01*
Y229862D01*
X163500D01*
Y228862D01*
X162500D01*
Y226862D01*
X163500D01*
X296388Y264500D02*
Y263500D01*
X298388D01*
Y264500D01*
X299388D01*
Y266500D01*
X298388D01*
Y267500D01*
X296388D01*
Y266500D01*
X295388D01*
Y264500D01*
X296388D01*
X318394Y276766D02*
Y275766D01*
X320394D01*
Y276766D01*
X321394D01*
Y278766D01*
X320394D01*
Y279766D01*
X318394D01*
Y278766D01*
X317394D01*
Y276766D01*
X318394D01*
X313500Y278606D02*
Y277606D01*
X315500D01*
Y278606D01*
X316500D01*
Y280606D01*
X315500D01*
Y281606D01*
X313500D01*
Y280606D01*
X312500D01*
Y278606D01*
X313500D01*
X291500Y262500D02*
Y261500D01*
X293500D01*
Y262500D01*
X294500D01*
Y264500D01*
X293500D01*
Y265500D01*
X291500D01*
Y264500D01*
X290500D01*
Y262500D01*
X291500D01*
X290500Y259341D02*
Y258341D01*
X292500D01*
Y259341D01*
X293500D01*
Y261341D01*
X292500D01*
Y262341D01*
X290500D01*
Y261341D01*
X289500D01*
Y259341D01*
X290500D01*
X271500Y308000D02*
Y307000D01*
X273500D01*
Y308000D01*
X274500D01*
Y310000D01*
X273500D01*
Y311000D01*
X271500D01*
Y310000D01*
X270500D01*
Y308000D01*
X271500D01*
X243000Y305000D02*
Y304000D01*
X245000D01*
Y305000D01*
X246000D01*
Y307000D01*
X245000D01*
Y308000D01*
X243000D01*
Y307000D01*
X242000D01*
Y305000D01*
X243000D01*
X246268Y301603D02*
Y300603D01*
X248268D01*
Y301603D01*
X249268D01*
Y303603D01*
X248268D01*
Y304603D01*
X246268D01*
Y303603D01*
X245268D01*
Y301603D01*
X246268D01*
X107362Y445500D02*
Y444500D01*
X109362D01*
Y445500D01*
X110362D01*
Y447500D01*
X109362D01*
Y448500D01*
X107362D01*
Y447500D01*
X106362D01*
Y445500D01*
X107362D01*
X114500Y431000D02*
Y430000D01*
X116500D01*
Y431000D01*
X117500D01*
Y433000D01*
X116500D01*
Y434000D01*
X114500D01*
Y433000D01*
X113500D01*
Y431000D01*
X114500D01*
X108000Y448500D02*
Y447500D01*
X110000D01*
Y448500D01*
X111000D01*
Y450500D01*
X110000D01*
Y451500D01*
X108000D01*
Y450500D01*
X107000D01*
Y448500D01*
X108000D01*
X154609Y364299D02*
Y363299D01*
X156609D01*
Y364299D01*
X157609D01*
Y366299D01*
X156609D01*
Y367299D01*
X154609D01*
Y366299D01*
X153609D01*
Y364299D01*
X154609D01*
X155362Y352500D02*
Y351500D01*
X157362D01*
Y352500D01*
X158362D01*
Y354500D01*
X157362D01*
Y355500D01*
X155362D01*
Y354500D01*
X154362D01*
Y352500D01*
X155362D01*
X205957Y370830D02*
Y369830D01*
X207957D01*
Y370830D01*
X208957D01*
Y372830D01*
X207957D01*
Y373830D01*
X205957D01*
Y372830D01*
X204957D01*
Y370830D01*
X205957D01*
X207500Y346000D02*
Y345000D01*
X209500D01*
Y346000D01*
X210500D01*
Y348000D01*
X209500D01*
Y349000D01*
X207500D01*
Y348000D01*
X206500D01*
Y346000D01*
X207500D01*
X234500Y157500D02*
Y156500D01*
X236500D01*
Y157500D01*
X237500D01*
Y159500D01*
X236500D01*
Y160500D01*
X234500D01*
Y159500D01*
X233500D01*
Y157500D01*
X234500D01*
X232000Y155000D02*
Y154000D01*
X234000D01*
Y155000D01*
X235000D01*
Y157000D01*
X234000D01*
Y158000D01*
X232000D01*
Y157000D01*
X231000D01*
Y155000D01*
X232000D01*
X134062Y326562D02*
Y325562D01*
X136062D01*
Y326562D01*
X137062D01*
Y328562D01*
X136062D01*
Y329562D01*
X134062D01*
Y328562D01*
X133062D01*
Y326562D01*
X134062D01*
X219500Y310500D02*
Y309500D01*
X221500D01*
Y310500D01*
X222500D01*
Y312500D01*
X221500D01*
Y313500D01*
X219500D01*
Y312500D01*
X218500D01*
Y310500D01*
X219500D01*
X146000Y260000D02*
Y259000D01*
X148000D01*
Y260000D01*
X149000D01*
Y262000D01*
X148000D01*
Y263000D01*
X146000D01*
Y262000D01*
X145000D01*
Y260000D01*
X146000D01*
X107500Y204000D02*
Y203000D01*
X109500D01*
Y204000D01*
X110500D01*
Y206000D01*
X109500D01*
Y207000D01*
X107500D01*
Y206000D01*
X106500D01*
Y204000D01*
X107500D01*
X215726Y322774D02*
Y321774D01*
X217726D01*
Y322774D01*
X218726D01*
Y324774D01*
X217726D01*
Y325774D01*
X215726D01*
Y324774D01*
X214726D01*
Y322774D01*
X215726D01*
X108500Y137000D02*
Y136000D01*
X110500D01*
Y137000D01*
X111500D01*
Y139000D01*
X110500D01*
Y140000D01*
X108500D01*
Y139000D01*
X107500D01*
Y137000D01*
X108500D01*
X286011Y275489D02*
Y274489D01*
X288011D01*
Y275489D01*
X289011D01*
Y277489D01*
X288011D01*
Y278489D01*
X286011D01*
Y277489D01*
X285011D01*
Y275489D01*
X286011D01*
X114500Y388500D02*
Y387500D01*
X116500D01*
Y388500D01*
X117500D01*
Y390500D01*
X116500D01*
Y391500D01*
X114500D01*
Y390500D01*
X113500D01*
Y388500D01*
X114500D01*
X98179Y391352D02*
Y390352D01*
X100179D01*
Y391352D01*
X101179D01*
Y393352D01*
X100179D01*
Y394352D01*
X98179D01*
Y393352D01*
X97179D01*
Y391352D01*
X98179D01*
X195000Y303500D02*
Y302500D01*
X197000D01*
Y303500D01*
X198000D01*
Y305500D01*
X197000D01*
Y306500D01*
X195000D01*
Y305500D01*
X194000D01*
Y303500D01*
X195000D01*
X216000Y310500D02*
Y309500D01*
X218000D01*
Y310500D01*
X219000D01*
Y312500D01*
X218000D01*
Y313500D01*
X216000D01*
Y312500D01*
X215000D01*
Y310500D01*
X216000D01*
X98179Y386234D02*
Y385234D01*
X100179D01*
Y386234D01*
X101179D01*
Y388234D01*
X100179D01*
Y389234D01*
X98179D01*
Y388234D01*
X97179D01*
Y386234D01*
X98179D01*
X111500Y391500D02*
Y390500D01*
X113500D01*
Y391500D01*
X114500D01*
Y393500D01*
X113500D01*
Y394500D01*
X111500D01*
Y393500D01*
X110500D01*
Y391500D01*
X111500D01*
X218688Y324188D02*
Y323188D01*
X220688D01*
Y324188D01*
X221688D01*
Y326188D01*
X220688D01*
Y327188D01*
X218688D01*
Y326188D01*
X217688D01*
Y324188D01*
X218688D01*
X253500Y333500D02*
Y332500D01*
X255500D01*
Y333500D01*
X256500D01*
Y335500D01*
X255500D01*
Y336500D01*
X253500D01*
Y335500D01*
X252500D01*
Y333500D01*
X253500D01*
X117500Y385000D02*
Y384000D01*
X119500D01*
Y385000D01*
X120500D01*
Y387000D01*
X119500D01*
Y388000D01*
X117500D01*
Y387000D01*
X116500D01*
Y385000D01*
X117500D01*
Y256500D02*
Y255500D01*
X119500D01*
Y256500D01*
X120500D01*
Y258500D01*
X119500D01*
Y259500D01*
X117500D01*
Y258500D01*
X116500D01*
Y256500D01*
X117500D01*
X129695Y328790D02*
Y327790D01*
X131695D01*
Y328790D01*
X132695D01*
Y330790D01*
X131695D01*
Y331790D01*
X129695D01*
Y330790D01*
X128695D01*
Y328790D01*
X129695D01*
X198670Y303170D02*
Y302170D01*
X200670D01*
Y303170D01*
X201670D01*
Y305170D01*
X200670D01*
Y306170D01*
X198670D01*
Y305170D01*
X197670D01*
Y303170D01*
X198670D01*
X123000Y331500D02*
Y330500D01*
X125000D01*
Y331500D01*
X126000D01*
Y333500D01*
X125000D01*
Y334500D01*
X123000D01*
Y333500D01*
X122000D01*
Y331500D01*
X123000D01*
X171000Y303000D02*
Y302000D01*
X173000D01*
Y303000D01*
X174000D01*
Y305000D01*
X173000D01*
Y306000D01*
X171000D01*
Y305000D01*
X170000D01*
Y303000D01*
X171000D01*
X98179Y381116D02*
Y380116D01*
X100179D01*
Y381116D01*
X101179D01*
Y383116D01*
X100179D01*
Y384116D01*
X98179D01*
Y383116D01*
X97179D01*
Y381116D01*
X98179D01*
X184000Y144000D02*
Y143000D01*
X186000D01*
Y144000D01*
X187000D01*
Y146000D01*
X186000D01*
Y147000D01*
X184000D01*
Y146000D01*
X183000D01*
Y144000D01*
X184000D01*
X194500D02*
Y143000D01*
X196500D01*
Y144000D01*
X197500D01*
Y146000D01*
X196500D01*
Y147000D01*
X194500D01*
Y146000D01*
X193500D01*
Y144000D01*
X194500D01*
X74000Y34000D02*
Y33000D01*
X76000D01*
Y34000D01*
X77000D01*
Y36000D01*
X76000D01*
Y37000D01*
X74000D01*
Y36000D01*
X73000D01*
Y34000D01*
X74000D01*
X153000Y228500D02*
Y227500D01*
X155000D01*
Y228500D01*
X156000D01*
Y230500D01*
X155000D01*
Y231500D01*
X153000D01*
Y230500D01*
X152000D01*
Y228500D01*
X153000D01*
X319000Y374000D02*
Y373000D01*
X321000D01*
Y374000D01*
X322000D01*
Y376000D01*
X321000D01*
Y377000D01*
X319000D01*
Y376000D01*
X318000D01*
Y374000D01*
X319000D01*
X336382Y415022D02*
Y414022D01*
X338382D01*
Y415022D01*
X339382D01*
Y417022D01*
X338382D01*
Y418022D01*
X336382D01*
Y417022D01*
X335382D01*
Y415022D01*
X336382D01*
X331263D02*
Y414022D01*
X333263D01*
Y415022D01*
X334263D01*
Y417022D01*
X333263D01*
Y418022D01*
X331263D01*
Y417022D01*
X330263D01*
Y415022D01*
X331263D01*
X326145D02*
Y414022D01*
X328145D01*
Y415022D01*
X329145D01*
Y417022D01*
X328145D01*
Y418022D01*
X326145D01*
Y417022D01*
X325145D01*
Y415022D01*
X326145D01*
X276398Y415105D02*
Y414105D01*
X278398D01*
Y415105D01*
X279398D01*
Y417105D01*
X278398D01*
Y418105D01*
X276398D01*
Y417105D01*
X275398D01*
Y415105D01*
X276398D01*
X266162D02*
Y414105D01*
X268162D01*
Y415105D01*
X269162D01*
Y417105D01*
X268162D01*
Y418105D01*
X266162D01*
Y417105D01*
X265162D01*
Y415105D01*
X266162D01*
X271297Y415089D02*
Y414089D01*
X273296D01*
Y415089D01*
X274296D01*
Y417089D01*
X273296D01*
Y418089D01*
X271297D01*
Y417089D01*
X270297D01*
Y415089D01*
X271297D01*
X206343Y415000D02*
Y414000D01*
X208343D01*
Y415000D01*
X209343D01*
Y417000D01*
X208343D01*
Y418000D01*
X206343D01*
Y417000D01*
X205343D01*
Y415000D01*
X206343D01*
X211461D02*
Y414000D01*
X213461D01*
Y415000D01*
X214461D01*
Y417000D01*
X213461D01*
Y418000D01*
X211461D01*
Y417000D01*
X210461D01*
Y415000D01*
X211461D01*
X216500D02*
Y414000D01*
X218500D01*
Y415000D01*
X219500D01*
Y417000D01*
X218500D01*
Y418000D01*
X216500D01*
Y417000D01*
X215500D01*
Y415000D01*
X216500D01*
X156500D02*
Y414000D01*
X158500D01*
Y415000D01*
X159500D01*
Y417000D01*
X158500D01*
Y418000D01*
X156500D01*
Y417000D01*
X155500D01*
Y415000D01*
X156500D01*
X151461D02*
Y414000D01*
X153461D01*
Y415000D01*
X154461D01*
Y417000D01*
X153461D01*
Y418000D01*
X151461D01*
Y417000D01*
X150461D01*
Y415000D01*
X151461D01*
X146343D02*
Y414000D01*
X148343D01*
Y415000D01*
X149343D01*
Y417000D01*
X148343D01*
Y418000D01*
X146343D01*
Y417000D01*
X145343D01*
Y415000D01*
X146343D01*
X98179Y441116D02*
Y440116D01*
X100179D01*
Y441116D01*
X101179D01*
Y443116D01*
X100179D01*
Y444116D01*
X98179D01*
Y443116D01*
X97179D01*
Y441116D01*
X98179D01*
Y446234D02*
Y445234D01*
X100179D01*
Y446234D01*
X101179D01*
Y448234D01*
X100179D01*
Y449234D01*
X98179D01*
Y448234D01*
X97179D01*
Y446234D01*
X98179D01*
Y451352D02*
Y450352D01*
X100179D01*
Y451352D01*
X101179D01*
Y453352D01*
X100179D01*
Y454352D01*
X98179D01*
Y453352D01*
X97179D01*
Y451352D01*
X98179D01*
X114004Y323833D02*
Y322832D01*
X116004D01*
Y323833D01*
X117004D01*
Y325833D01*
X116004D01*
Y326833D01*
X114004D01*
Y325833D01*
X113004D01*
Y323833D01*
X114004D01*
X98179Y321116D02*
Y320116D01*
X100179D01*
Y321116D01*
X101179D01*
Y323116D01*
X100179D01*
Y324116D01*
X98179D01*
Y323116D01*
X97179D01*
Y321116D01*
X98179D01*
Y326234D02*
Y325234D01*
X100179D01*
Y326234D01*
X101179D01*
Y328234D01*
X100179D01*
Y329234D01*
X98179D01*
Y328234D01*
X97179D01*
Y326234D01*
X98179D01*
Y331352D02*
Y330352D01*
X100179D01*
Y331352D01*
X101179D01*
Y333352D01*
X100179D01*
Y334352D01*
X98179D01*
Y333352D01*
X97179D01*
Y331352D01*
X98179D01*
Y261352D02*
Y260352D01*
X100179D01*
Y261352D01*
X101179D01*
Y263352D01*
X100179D01*
Y264352D01*
X98179D01*
Y263352D01*
X97179D01*
Y261352D01*
X98179D01*
Y256234D02*
Y255234D01*
X100179D01*
Y256234D01*
X101179D01*
Y258234D01*
X100179D01*
Y259234D01*
X98179D01*
Y258234D01*
X97179D01*
Y256234D01*
X98179D01*
Y251116D02*
Y250116D01*
X100179D01*
Y251116D01*
X101179D01*
Y253116D01*
X100179D01*
Y254116D01*
X98179D01*
Y253116D01*
X97179D01*
Y251116D01*
X98179D01*
Y191116D02*
Y190116D01*
X100179D01*
Y191116D01*
X101179D01*
Y193116D01*
X100179D01*
Y194116D01*
X98179D01*
Y193116D01*
X97179D01*
Y191116D01*
X98179D01*
Y196234D02*
Y195234D01*
X100179D01*
Y196234D01*
X101179D01*
Y198234D01*
X100179D01*
Y199234D01*
X98179D01*
Y198234D01*
X97179D01*
Y196234D01*
X98179D01*
Y201352D02*
Y200352D01*
X100179D01*
Y201352D01*
X101179D01*
Y203352D01*
X100179D01*
Y204352D01*
X98179D01*
Y203352D01*
X97179D01*
Y201352D01*
X98179D01*
Y131116D02*
Y130116D01*
X100179D01*
Y131116D01*
X101179D01*
Y133116D01*
X100179D01*
Y134116D01*
X98179D01*
Y133116D01*
X97179D01*
Y131116D01*
X98179D01*
Y136234D02*
Y135234D01*
X100179D01*
Y136234D01*
X101179D01*
Y138234D01*
X100179D01*
Y139234D01*
X98179D01*
Y138234D01*
X97179D01*
Y136234D01*
X98179D01*
Y141352D02*
Y140352D01*
X100179D01*
Y141352D01*
X101179D01*
Y143352D01*
X100179D01*
Y144352D01*
X98179D01*
Y143352D01*
X97179D01*
Y141352D01*
X98179D01*
X265287Y385000D02*
Y384000D01*
X267287D01*
Y385000D01*
X268287D01*
Y387000D01*
X267287D01*
Y388000D01*
X265287D01*
Y387000D01*
X264287D01*
Y385000D01*
X265287D01*
X235704Y341204D02*
Y340204D01*
X237704D01*
Y341204D01*
X238704D01*
Y343204D01*
X237704D01*
Y344204D01*
X235704D01*
Y343204D01*
X234704D01*
Y341204D01*
X235704D01*
X251500Y376500D02*
Y375500D01*
X253500D01*
Y376500D01*
X254500D01*
Y378500D01*
X253500D01*
Y379500D01*
X251500D01*
Y378500D01*
X250500D01*
Y376500D01*
X251500D01*
Y373500D02*
Y372500D01*
X253500D01*
Y373500D01*
X254500D01*
Y375500D01*
X253500D01*
Y376500D01*
X251500D01*
Y375500D01*
X250500D01*
Y373500D01*
X251500D01*
X243397Y353309D02*
Y352309D01*
X245397D01*
Y353309D01*
X246397D01*
Y355309D01*
X245397D01*
Y356309D01*
X243397D01*
Y355309D01*
X242397D01*
Y353309D01*
X243397D01*
X251271D02*
Y352309D01*
X253271D01*
Y353309D01*
X254271D01*
Y355309D01*
X253271D01*
Y356309D01*
X251271D01*
Y355309D01*
X250271D01*
Y353309D01*
X251271D01*
X247334D02*
Y352309D01*
X249334D01*
Y353309D01*
X250334D01*
Y355309D01*
X249334D01*
Y356309D01*
X247334D01*
Y355309D01*
X246334D01*
Y353309D01*
X247334D01*
X232000Y371000D02*
Y370000D01*
X234000D01*
Y371000D01*
X235000D01*
Y373000D01*
X234000D01*
Y374000D01*
X232000D01*
Y373000D01*
X231000D01*
Y371000D01*
X232000D01*
X235000D02*
Y370000D01*
X237000D01*
Y371000D01*
X238000D01*
Y373000D01*
X237000D01*
Y374000D01*
X235000D01*
Y373000D01*
X234000D01*
Y371000D01*
X235000D01*
X238000D02*
Y370000D01*
X240000D01*
Y371000D01*
X241000D01*
Y373000D01*
X240000D01*
Y374000D01*
X238000D01*
Y373000D01*
X237000D01*
Y371000D01*
X238000D01*
X153000Y408000D02*
Y407000D01*
X155000D01*
Y408000D01*
X156000D01*
Y410000D01*
X155000D01*
Y411000D01*
X153000D01*
Y410000D01*
X152000D01*
Y408000D01*
X153000D01*
X156000Y405500D02*
Y404500D01*
X158000D01*
Y405500D01*
X159000D01*
Y407500D01*
X158000D01*
Y408500D01*
X156000D01*
Y407500D01*
X155000D01*
Y405500D01*
X156000D01*
X159000Y402500D02*
Y401500D01*
X161000D01*
Y402500D01*
X162000D01*
Y404500D01*
X161000D01*
Y405500D01*
X159000D01*
Y404500D01*
X158000D01*
Y402500D01*
X159000D01*
X305447Y398149D02*
Y397149D01*
X307447D01*
Y398149D01*
X308447D01*
Y400149D01*
X307447D01*
Y401149D01*
X305447D01*
Y400149D01*
X304447D01*
Y398149D01*
X305447D01*
X251500Y379500D02*
Y378500D01*
X253500D01*
Y379500D01*
X254500D01*
Y381500D01*
X253500D01*
Y382500D01*
X251500D01*
Y381500D01*
X250500D01*
Y379500D01*
X251500D01*
X282638Y323954D02*
Y322954D01*
X284638D01*
Y323954D01*
X285638D01*
Y325954D01*
X284638D01*
Y326954D01*
X282638D01*
Y325954D01*
X281638D01*
Y323954D01*
X282638D01*
X276000Y387500D02*
Y386500D01*
X278000D01*
Y387500D01*
X279000D01*
Y389500D01*
X278000D01*
Y390500D01*
X276000D01*
Y389500D01*
X275000D01*
Y387500D01*
X276000D01*
X266078Y374624D02*
Y373624D01*
X268078D01*
Y374624D01*
X269078D01*
Y376624D01*
X268078D01*
Y377624D01*
X266078D01*
Y376624D01*
X265078D01*
Y374624D01*
X266078D01*
X242500Y386000D02*
Y385000D01*
X244500D01*
Y386000D01*
X245500D01*
Y388000D01*
X244500D01*
Y389000D01*
X242500D01*
Y388000D01*
X241500D01*
Y386000D01*
X242500D01*
X239000D02*
Y385000D01*
X241000D01*
Y386000D01*
X242000D01*
Y388000D01*
X241000D01*
Y389000D01*
X239000D01*
Y388000D01*
X238000D01*
Y386000D01*
X239000D01*
X105000Y448500D02*
Y447500D01*
X107000D01*
Y448500D01*
X108000D01*
Y450500D01*
X107000D01*
Y451500D01*
X105000D01*
Y450500D01*
X104000D01*
Y448500D01*
X105000D01*
X102500Y452500D02*
Y451500D01*
X104500D01*
Y452500D01*
X105500D01*
Y454500D01*
X104500D01*
Y455500D01*
X102500D01*
Y454500D01*
X101500D01*
Y452500D01*
X102500D01*
X123000Y254354D02*
Y253354D01*
X125000D01*
Y254354D01*
X126000D01*
Y256354D01*
X125000D01*
Y257354D01*
X123000D01*
Y256354D01*
X122000D01*
Y254354D01*
X123000D01*
X129500Y251500D02*
Y250500D01*
X131500D01*
Y251500D01*
X132500D01*
Y253500D01*
X131500D01*
Y254500D01*
X129500D01*
Y253500D01*
X128500D01*
Y251500D01*
X129500D01*
X146000Y285000D02*
Y284000D01*
X148000D01*
Y285000D01*
X149000D01*
Y287000D01*
X148000D01*
Y288000D01*
X146000D01*
Y287000D01*
X145000D01*
Y285000D01*
X146000D01*
X141500Y281000D02*
Y280000D01*
X143500D01*
Y281000D01*
X144500D01*
Y283000D01*
X143500D01*
Y284000D01*
X141500D01*
Y283000D01*
X140500D01*
Y281000D01*
X141500D01*
X146000D02*
Y280000D01*
X148000D01*
Y281000D01*
X149000D01*
Y283000D01*
X148000D01*
Y284000D01*
X146000D01*
Y283000D01*
X145000D01*
Y281000D01*
X146000D01*
X116000Y85000D02*
X117000D01*
X118000Y86000D01*
X119000Y85000D01*
X120000D01*
Y86000D01*
X119000Y87000D01*
X120000Y88000D01*
Y89000D01*
X119000D01*
X118000Y88000D01*
X117000Y89000D01*
X116000D01*
Y88000D01*
X117000Y87000D01*
X116000Y86000D01*
Y85000D01*
X114500Y81000D02*
X115500D01*
X116500Y82000D01*
X117500Y81000D01*
X118500D01*
Y82000D01*
X117500Y83000D01*
X118500Y84000D01*
Y85000D01*
X117500D01*
X116500Y84000D01*
X115500Y85000D01*
X114500D01*
Y84000D01*
X115500Y83000D01*
X114500Y82000D01*
Y81000D01*
X59500Y110500D02*
X60500D01*
X61500Y111500D01*
X62500Y110500D01*
X63500D01*
Y111500D01*
X62500Y112500D01*
X63500Y113500D01*
Y114500D01*
X62500D01*
X61500Y113500D01*
X60500Y114500D01*
X59500D01*
Y113500D01*
X60500Y112500D01*
X59500Y111500D01*
Y110500D01*
Y170500D02*
X60500D01*
X61500Y171500D01*
X62500Y170500D01*
X63500D01*
Y171500D01*
X62500Y172500D01*
X63500Y173500D01*
Y174500D01*
X62500D01*
X61500Y173500D01*
X60500Y174500D01*
X59500D01*
Y173500D01*
X60500Y172500D01*
X59500Y171500D01*
Y170500D01*
Y230500D02*
X60500D01*
X61500Y231500D01*
X62500Y230500D01*
X63500D01*
Y231500D01*
X62500Y232500D01*
X63500Y233500D01*
Y234500D01*
X62500D01*
X61500Y233500D01*
X60500Y234500D01*
X59500D01*
Y233500D01*
X60500Y232500D01*
X59500Y231500D01*
Y230500D01*
Y300500D02*
X60500D01*
X61500Y301500D01*
X62500Y300500D01*
X63500D01*
Y301500D01*
X62500Y302500D01*
X63500Y303500D01*
Y304500D01*
X62500D01*
X61500Y303500D01*
X60500Y304500D01*
X59500D01*
Y303500D01*
X60500Y302500D01*
X59500Y301500D01*
Y300500D01*
Y360500D02*
X60500D01*
X61500Y361500D01*
X62500Y360500D01*
X63500D01*
Y361500D01*
X62500Y362500D01*
X63500Y363500D01*
Y364500D01*
X62500D01*
X61500Y363500D01*
X60500Y364500D01*
X59500D01*
Y363500D01*
X60500Y362500D01*
X59500Y361500D01*
Y360500D01*
Y420500D02*
X60500D01*
X61500Y421500D01*
X62500Y420500D01*
X63500D01*
Y421500D01*
X62500Y422500D01*
X63500Y423500D01*
Y424500D01*
X62500D01*
X61500Y423500D01*
X60500Y424500D01*
X59500D01*
Y423500D01*
X60500Y422500D01*
X59500Y421500D01*
Y420500D01*
X305500Y451500D02*
X306500D01*
X307500Y452500D01*
X308500Y451500D01*
X309500D01*
Y452500D01*
X308500Y453500D01*
X309500Y454500D01*
Y455500D01*
X308500D01*
X307500Y454500D01*
X306500Y455500D01*
X305500D01*
Y454500D01*
X306500Y453500D01*
X305500Y452500D01*
Y451500D01*
X245500D02*
X246500D01*
X247500Y452500D01*
X248500Y451500D01*
X249500D01*
Y452500D01*
X248500Y453500D01*
X249500Y454500D01*
Y455500D01*
X248500D01*
X247500Y454500D01*
X246500Y455500D01*
X245500D01*
Y454500D01*
X246500Y453500D01*
X245500Y452500D01*
Y451500D01*
X185500D02*
X186500D01*
X187500Y452500D01*
X188500Y451500D01*
X189500D01*
Y452500D01*
X188500Y453500D01*
X189500Y454500D01*
Y455500D01*
X188500D01*
X187500Y454500D01*
X186500Y455500D01*
X185500D01*
Y454500D01*
X186500Y453500D01*
X185500Y452500D01*
Y451500D01*
X190000D02*
X191000D01*
X192000Y452500D01*
X193000Y451500D01*
X194000D01*
Y452500D01*
X193000Y453500D01*
X194000Y454500D01*
Y455500D01*
X193000D01*
X192000Y454500D01*
X191000Y455500D01*
X190000D01*
Y454500D01*
X191000Y453500D01*
X190000Y452500D01*
Y451500D01*
X125500D02*
X126500D01*
X127500Y452500D01*
X128500Y451500D01*
X129500D01*
Y452500D01*
X128500Y453500D01*
X129500Y454500D01*
Y455500D01*
X128500D01*
X127500Y454500D01*
X126500Y455500D01*
X125500D01*
Y454500D01*
X126500Y453500D01*
X125500Y452500D01*
Y451500D01*
X121000D02*
X122000D01*
X123000Y452500D01*
X124000Y451500D01*
X125000D01*
Y452500D01*
X124000Y453500D01*
X125000Y454500D01*
Y455500D01*
X124000D01*
X123000Y454500D01*
X122000Y455500D01*
X121000D01*
Y454500D01*
X122000Y453500D01*
X121000Y452500D01*
Y451500D01*
X118000Y77000D02*
X119000D01*
X120000Y78000D01*
X121000Y77000D01*
X122000D01*
Y78000D01*
X121000Y79000D01*
X122000Y80000D01*
Y81000D01*
X121000D01*
X120000Y80000D01*
X119000Y81000D01*
X118000D01*
Y80000D01*
X119000Y79000D01*
X118000Y78000D01*
Y77000D01*
X114500D02*
X115500D01*
X116500Y78000D01*
X117500Y77000D01*
X118500D01*
Y78000D01*
X117500Y79000D01*
X118500Y80000D01*
Y81000D01*
X117500D01*
X116500Y80000D01*
X115500Y81000D01*
X114500D01*
Y80000D01*
X115500Y79000D01*
X114500Y78000D01*
Y77000D01*
X121500D02*
X122500D01*
X123500Y78000D01*
X124500Y77000D01*
X125500D01*
Y78000D01*
X124500Y79000D01*
X125500Y80000D01*
Y81000D01*
X124500D01*
X123500Y80000D01*
X122500Y81000D01*
X121500D01*
Y80000D01*
X122500Y79000D01*
X121500Y78000D01*
Y77000D01*
X118000Y73000D02*
X119000D01*
X120000Y74000D01*
X121000Y73000D01*
X122000D01*
Y74000D01*
X121000Y75000D01*
X122000Y76000D01*
Y77000D01*
X121000D01*
X120000Y76000D01*
X119000Y77000D01*
X118000D01*
Y76000D01*
X119000Y75000D01*
X118000Y74000D01*
Y73000D01*
X114500Y73000D02*
X115500D01*
X116500Y74000D01*
X117500Y73000D01*
X118500D01*
Y74000D01*
X117500Y75000D01*
X118500Y76000D01*
Y77000D01*
X117500D01*
X116500Y76000D01*
X115500Y77000D01*
X114500D01*
Y76000D01*
X115500Y75000D01*
X114500Y74000D01*
Y73000D01*
X121500D02*
X122500D01*
X123500Y74000D01*
X124500Y73000D01*
X125500D01*
Y74000D01*
X124500Y75000D01*
X125500Y76000D01*
Y77000D01*
X124500D01*
X123500Y76000D01*
X122500Y77000D01*
X121500D01*
Y76000D01*
X122500Y75000D01*
X121500Y74000D01*
Y73000D01*
X118000Y81000D02*
X119000D01*
X120000Y82000D01*
X121000Y81000D01*
X122000D01*
Y82000D01*
X121000Y83000D01*
X122000Y84000D01*
Y85000D01*
X121000D01*
X120000Y84000D01*
X119000Y85000D01*
X118000D01*
Y84000D01*
X119000Y83000D01*
X118000Y82000D01*
Y81000D01*
X49500Y455000D02*
X50500D01*
X51500Y456000D01*
X52500Y455000D01*
X53500D01*
Y456000D01*
X52500Y457000D01*
X53500Y458000D01*
Y459000D01*
X52500D01*
X51500Y458000D01*
X50500Y459000D01*
X49500D01*
Y458000D01*
X50500Y457000D01*
X49500Y456000D01*
Y455000D01*
Y395000D02*
X50500D01*
X51500Y396000D01*
X52500Y395000D01*
X53500D01*
Y396000D01*
X52500Y397000D01*
X53500Y398000D01*
Y399000D01*
X52500D01*
X51500Y398000D01*
X50500Y399000D01*
X49500D01*
Y398000D01*
X50500Y397000D01*
X49500Y396000D01*
Y395000D01*
Y335000D02*
X50500D01*
X51500Y336000D01*
X52500Y335000D01*
X53500D01*
Y336000D01*
X52500Y337000D01*
X53500Y338000D01*
Y339000D01*
X52500D01*
X51500Y338000D01*
X50500Y339000D01*
X49500D01*
Y338000D01*
X50500Y337000D01*
X49500Y336000D01*
Y335000D01*
Y265000D02*
X50500D01*
X51500Y266000D01*
X52500Y265000D01*
X53500D01*
Y266000D01*
X52500Y267000D01*
X53500Y268000D01*
Y269000D01*
X52500D01*
X51500Y268000D01*
X50500Y269000D01*
X49500D01*
Y268000D01*
X50500Y267000D01*
X49500Y266000D01*
Y265000D01*
Y205000D02*
X50500D01*
X51500Y206000D01*
X52500Y205000D01*
X53500D01*
Y206000D01*
X52500Y207000D01*
X53500Y208000D01*
Y209000D01*
X52500D01*
X51500Y208000D01*
X50500Y209000D01*
X49500D01*
Y208000D01*
X50500Y207000D01*
X49500Y206000D01*
Y205000D01*
X59500Y425000D02*
X60500D01*
X61500Y426000D01*
X62500Y425000D01*
X63500D01*
Y426000D01*
X62500Y427000D01*
X63500Y428000D01*
Y429000D01*
X62500D01*
X61500Y428000D01*
X60500Y429000D01*
X59500D01*
Y428000D01*
X60500Y427000D01*
X59500Y426000D01*
Y425000D01*
Y416000D02*
X60500D01*
X61500Y417000D01*
X62500Y416000D01*
X63500D01*
Y417000D01*
X62500Y418000D01*
X63500Y419000D01*
Y420000D01*
X62500D01*
X61500Y419000D01*
X60500Y420000D01*
X59500D01*
Y419000D01*
X60500Y418000D01*
X59500Y417000D01*
Y416000D01*
Y365000D02*
X60500D01*
X61500Y366000D01*
X62500Y365000D01*
X63500D01*
Y366000D01*
X62500Y367000D01*
X63500Y368000D01*
Y369000D01*
X62500D01*
X61500Y368000D01*
X60500Y369000D01*
X59500D01*
Y368000D01*
X60500Y367000D01*
X59500Y366000D01*
Y365000D01*
Y356000D02*
X60500D01*
X61500Y357000D01*
X62500Y356000D01*
X63500D01*
Y357000D01*
X62500Y358000D01*
X63500Y359000D01*
Y360000D01*
X62500D01*
X61500Y359000D01*
X60500Y360000D01*
X59500D01*
Y359000D01*
X60500Y358000D01*
X59500Y357000D01*
Y356000D01*
Y305000D02*
X60500D01*
X61500Y306000D01*
X62500Y305000D01*
X63500D01*
Y306000D01*
X62500Y307000D01*
X63500Y308000D01*
Y309000D01*
X62500D01*
X61500Y308000D01*
X60500Y309000D01*
X59500D01*
Y308000D01*
X60500Y307000D01*
X59500Y306000D01*
Y305000D01*
Y296000D02*
X60500D01*
X61500Y297000D01*
X62500Y296000D01*
X63500D01*
Y297000D01*
X62500Y298000D01*
X63500Y299000D01*
Y300000D01*
X62500D01*
X61500Y299000D01*
X60500Y300000D01*
X59500D01*
Y299000D01*
X60500Y298000D01*
X59500Y297000D01*
Y296000D01*
Y235000D02*
X60500D01*
X61500Y236000D01*
X62500Y235000D01*
X63500D01*
Y236000D01*
X62500Y237000D01*
X63500Y238000D01*
Y239000D01*
X62500D01*
X61500Y238000D01*
X60500Y239000D01*
X59500D01*
Y238000D01*
X60500Y237000D01*
X59500Y236000D01*
Y235000D01*
Y226000D02*
X60500D01*
X61500Y227000D01*
X62500Y226000D01*
X63500D01*
Y227000D01*
X62500Y228000D01*
X63500Y229000D01*
Y230000D01*
X62500D01*
X61500Y229000D01*
X60500Y230000D01*
X59500D01*
Y229000D01*
X60500Y228000D01*
X59500Y227000D01*
Y226000D01*
Y175000D02*
X60500D01*
X61500Y176000D01*
X62500Y175000D01*
X63500D01*
Y176000D01*
X62500Y177000D01*
X63500Y178000D01*
Y179000D01*
X62500D01*
X61500Y178000D01*
X60500Y179000D01*
X59500D01*
Y178000D01*
X60500Y177000D01*
X59500Y176000D01*
Y175000D01*
Y166000D02*
X60500D01*
X61500Y167000D01*
X62500Y166000D01*
X63500D01*
Y167000D01*
X62500Y168000D01*
X63500Y169000D01*
Y170000D01*
X62500D01*
X61500Y169000D01*
X60500Y170000D01*
X59500D01*
Y169000D01*
X60500Y168000D01*
X59500Y167000D01*
Y166000D01*
Y115000D02*
X60500D01*
X61500Y116000D01*
X62500Y115000D01*
X63500D01*
Y116000D01*
X62500Y117000D01*
X63500Y118000D01*
Y119000D01*
X62500D01*
X61500Y118000D01*
X60500Y119000D01*
X59500D01*
Y118000D01*
X60500Y117000D01*
X59500Y116000D01*
Y115000D01*
Y106000D02*
X60500D01*
X61500Y107000D01*
X62500Y106000D01*
X63500D01*
Y107000D01*
X62500Y108000D01*
X63500Y109000D01*
Y110000D01*
X62500D01*
X61500Y109000D01*
X60500Y110000D01*
X59500D01*
Y109000D01*
X60500Y108000D01*
X59500Y107000D01*
Y106000D01*
X181000Y451500D02*
X182000D01*
X183000Y452500D01*
X184000Y451500D01*
X185000D01*
Y452500D01*
X184000Y453500D01*
X185000Y454500D01*
Y455500D01*
X184000D01*
X183000Y454500D01*
X182000Y455500D01*
X181000D01*
Y454500D01*
X182000Y453500D01*
X181000Y452500D01*
Y451500D01*
X241000D02*
X242000D01*
X243000Y452500D01*
X244000Y451500D01*
X245000D01*
Y452500D01*
X244000Y453500D01*
X245000Y454500D01*
Y455500D01*
X244000D01*
X243000Y454500D01*
X242000Y455500D01*
X241000D01*
Y454500D01*
X242000Y453500D01*
X241000Y452500D01*
Y451500D01*
X301000D02*
X302000D01*
X303000Y452500D01*
X304000Y451500D01*
X305000D01*
Y452500D01*
X304000Y453500D01*
X305000Y454500D01*
Y455500D01*
X304000D01*
X303000Y454500D01*
X302000Y455500D01*
X301000D01*
Y454500D01*
X302000Y453500D01*
X301000Y452500D01*
Y451500D01*
X49500Y145000D02*
X50500D01*
X51500Y146000D01*
X52500Y145000D01*
X53500D01*
Y146000D01*
X52500Y147000D01*
X53500Y148000D01*
Y149000D01*
X52500D01*
X51500Y148000D01*
X50500Y149000D01*
X49500D01*
Y148000D01*
X50500Y147000D01*
X49500Y146000D01*
Y145000D01*
X310000Y451500D02*
X311000D01*
X312000Y452500D01*
X313000Y451500D01*
X314000D01*
Y452500D01*
X313000Y453500D01*
X314000Y454500D01*
Y455500D01*
X313000D01*
X312000Y454500D01*
X311000Y455500D01*
X310000D01*
Y454500D01*
X311000Y453500D01*
X310000Y452500D01*
Y451500D01*
X337100Y461613D02*
X338100D01*
X339100Y462613D01*
X340100Y461613D01*
X341100D01*
Y462613D01*
X340100Y463613D01*
X341100Y464613D01*
Y465613D01*
X340100D01*
X339100Y464613D01*
X338100Y465613D01*
X337100D01*
Y464613D01*
X338100Y463613D01*
X337100Y462613D01*
Y461613D01*
X250000Y451500D02*
X251000D01*
X252000Y452500D01*
X253000Y451500D01*
X254000D01*
Y452500D01*
X253000Y453500D01*
X254000Y454500D01*
Y455500D01*
X253000D01*
X252000Y454500D01*
X251000Y455500D01*
X250000D01*
Y454500D01*
X251000Y453500D01*
X250000Y452500D01*
Y451500D01*
X277100Y461613D02*
X278100D01*
X279100Y462613D01*
X280100Y461613D01*
X281100D01*
Y462613D01*
X280100Y463613D01*
X281100Y464613D01*
Y465613D01*
X280100D01*
X279100Y464613D01*
X278100Y465613D01*
X277100D01*
Y464613D01*
X278100Y463613D01*
X277100Y462613D01*
Y461613D01*
X217100D02*
X218100D01*
X219100Y462613D01*
X220100Y461613D01*
X221100D01*
Y462613D01*
X220100Y463613D01*
X221100Y464613D01*
Y465613D01*
X220100D01*
X219100Y464613D01*
X218100Y465613D01*
X217100D01*
Y464613D01*
X218100Y463613D01*
X217100Y462613D01*
Y461613D01*
X157100D02*
X158100D01*
X159100Y462613D01*
X160100Y461613D01*
X161100D01*
Y462613D01*
X160100Y463613D01*
X161100Y464613D01*
Y465613D01*
X160100D01*
X159100Y464613D01*
X158100Y465613D01*
X157100D01*
Y464613D01*
X158100Y463613D01*
X157100Y462613D01*
Y461613D01*
X130000Y451500D02*
X131000D01*
X132000Y452500D01*
X133000Y451500D01*
X134000D01*
Y452500D01*
X133000Y453500D01*
X134000Y454500D01*
Y455500D01*
X133000D01*
X132000Y454500D01*
X131000Y455500D01*
X130000D01*
Y454500D01*
X131000Y453500D01*
X130000Y452500D01*
Y451500D01*
D156*
X336646Y19685D02*
G03*
X336646Y19685I-2000J0D01*
G01*
Y393701D02*
G03*
X336646Y393701I-2000J0D01*
G01*
X21685Y492126D02*
G03*
X21685Y492126I-2000J0D01*
G01*
Y19685D02*
G03*
X21685Y19685I-2000J0D01*
G01*
%TF.MD5,b8a06dc33e05be091963aee48cc1c8a6*%
M02*
